<?xml version="1.0" encoding="UTF-8" standalone="no"?>
<!--
SPDX-FileCopyrightText: Filip Dominec and contributors (https://commons.wikimedia.org/wiki/User:FDominec)
SPDX-FileCopyrightText: Robert Ryszard Paciorek <rrp@opcode.eu.org>

SPDX-License-Identifier: 0BSD OR MIT

Based-On: https://commons.wikimedia.org/wiki/File:Electrical_symbols_library.svg UNDER Public Domain BY Filip Dominec and contributors
-->

<svg
   width="48"
   height="48"
   viewBox="0 0 12.699999 12.699999"
   version="1.1"
   id="svg1840"
   inkscape:version="1.2.2 (b0a8486541, 2022-12-01)"
   sodipodi:docname="voltmeter.svg"
   xmlns:inkscape="http://www.inkscape.org/namespaces/inkscape"
   xmlns:sodipodi="http://sodipodi.sourceforge.net/DTD/sodipodi-0.dtd"
   xmlns="http://www.w3.org/2000/svg"
   xmlns:svg="http://www.w3.org/2000/svg">
  <sodipodi:namedview
     id="namedview1842"
     pagecolor="#8b8b8b"
     bordercolor="#666666"
     borderopacity="1.0"
     inkscape:showpageshadow="2"
     inkscape:pageopacity="0"
     inkscape:pagecheckerboard="0"
     inkscape:deskcolor="#d1d1d1"
     inkscape:document-units="px"
     showgrid="false"
     inkscape:zoom="4.7572176"
     inkscape:cx="-61.695727"
     inkscape:cy="31.320829"
     inkscape:window-width="1920"
     inkscape:window-height="1003"
     inkscape:window-x="0"
     inkscape:window-y="0"
     inkscape:window-maximized="1"
     inkscape:current-layer="g3087" />
  <defs
     id="defs1837" />
  <g
     inkscape:label="Layer 1"
     inkscape:groupmode="layer"
     id="layer1">
    <g
       id="g3087"
       transform="matrix(0.12543331,0,0,0.12717774,-55.834518,-60.265607)"
       style="stroke:#ffffff;stroke-width:2.72329;stroke-dasharray:none;stroke-opacity:1">
      <path
         inkscape:connector-curvature="0"
         id="rect3249"
         d="m 466.02874,477.66376 h 59.45772 c 3.21344,0 5.80044,2.58698 5.80044,5.80042 v 80.67016 c 0,3.21344 -2.587,5.80042 -5.80044,5.80042 h -59.45772 c -3.21344,0 -5.80042,-2.58698 -5.80042,-5.80042 v -80.67016 c 0,-3.21344 2.58698,-5.80042 5.80042,-5.80042 z"
         style="color:#000000;display:inline;overflow:visible;visibility:visible;fill:#999999;fill-opacity:1;fill-rule:nonzero;stroke:#ffffff;stroke-width:2.72329;stroke-linecap:butt;stroke-linejoin:round;stroke-miterlimit:4;stroke-dasharray:none;stroke-dashoffset:0;stroke-opacity:1;marker:none" />
      <rect
         rx="12.235148"
         ry="12.067348"
         y="484.7507"
         x="467.91354"
         height="44.359825"
         width="56.329552"
         id="rect3253"
         style="color:#000000;display:inline;overflow:visible;visibility:visible;fill:#cbcbcb;fill-opacity:1;fill-rule:nonzero;stroke:#ffffff;stroke-width:2.72329;stroke-linecap:butt;stroke-linejoin:round;stroke-miterlimit:4;stroke-dasharray:none;stroke-dashoffset:0;stroke-opacity:1;marker:none" />
      <path
         inkscape:connector-curvature="0"
         d="m 513.40855,562.72983 a 3.5750543,3.5697542 0 0 1 -3.57505,3.56975 3.5750543,3.5697542 0 0 1 -3.57506,-3.56975 3.5750543,3.5697542 0 0 1 3.57506,-3.56977 3.5750543,3.5697542 0 0 1 3.57505,3.56977 z"
         id="path3273"
         style="color:#000000;display:inline;overflow:visible;visibility:visible;fill:#ff0000;fill-opacity:1;fill-rule:nonzero;stroke:#ffffff;stroke-width:2.09483;stroke-linecap:butt;stroke-linejoin:round;stroke-miterlimit:4;stroke-dasharray:none;stroke-dashoffset:0;stroke-opacity:1;marker:none" />
      <path
         inkscape:connector-curvature="0"
         d="m 523.83622,562.72983 a 3.5750543,3.5697542 0 0 1 -3.57505,3.56975 3.5750543,3.5697542 0 0 1 -3.57506,-3.56975 3.5750543,3.5697542 0 0 1 3.57506,-3.56977 3.5750543,3.5697542 0 0 1 3.57505,3.56977 z"
         id="path3275"
         style="color:#000000;display:inline;overflow:visible;visibility:visible;fill:#5599ff;fill-opacity:1;fill-rule:nonzero;stroke:#ffffff;stroke-width:2.09483;stroke-linecap:butt;stroke-linejoin:round;stroke-miterlimit:4;stroke-dasharray:none;stroke-dashoffset:0;stroke-opacity:1;marker:none" />
      <path
         inkscape:connector-curvature="0"
         id="path2447"
         d="m 499.55564,527.49416 7.3366,-27.38058"
         style="display:inline;fill:none;stroke:#414141;stroke-width:2.72329;stroke-linecap:butt;stroke-linejoin:miter;stroke-dasharray:none;stroke-opacity:1" />
      <g
         aria-label="V"
         transform="scale(0.973857,1.02684)"
         id="text3265"
         style="font-weight:bold;font-size:37.7089px;line-height:125%;font-family:'Bitstream Vera Sans';display:inline;fill:#0066ff">
        <path
           d="m 505.91659,523.02944 h -7.73032 v 0.71647 c 2.07399,0.11313 2.75275,0.52793 2.75275,1.58378 0,0.60334 -0.26397,1.62148 -0.71647,2.75275 l -5.54321,13.83916 -5.69404,-12.7456 c -1.2444,-2.75275 -1.54607,-3.62006 -1.54607,-4.18569 0,-0.71647 0.52792,-1.09356 1.73461,-1.16898 0.15084,0 0.56563,-0.0377 1.09356,-0.0754 v -0.71647 h -10.03057 v 0.71647 c 1.84774,0.0754 2.48879,0.56564 3.99714,3.95944 l 9.27639,20.70218 h 0.56564 l 8.37137,-21.15469 c 1.20669,-3.01671 1.65919,-3.3938 3.46922,-3.50693 z"
           style="font-weight:normal;font-family:FreeSerif;-inkscape-font-specification:FreeSerif"
           id="path1128" />
      </g>
    </g>
  </g>
</svg>
