<?xml version="1.0" encoding="UTF-8" standalone="no"?>
<!--
SPDX-FileCopyrightText: Robert Ryszard Paciorek <rrp@opcode.eu.org>
SPDX-License-Identifier: MIT
-->

<svg
   version="1.1"
   id="svg2"
   width="998.49597"
   height="773.08801"
   viewBox="0 0 998.49597 773.08801"
   sodipodi:docname="spi.svg"
   inkscape:version="1.2.2 (b0a8486541, 2022-12-01)"
   xmlns:inkscape="http://www.inkscape.org/namespaces/inkscape"
   xmlns:sodipodi="http://sodipodi.sourceforge.net/DTD/sodipodi-0.dtd"
   xmlns="http://www.w3.org/2000/svg"
   xmlns:svg="http://www.w3.org/2000/svg">
  <sodipodi:namedview
     id="namedview534"
     pagecolor="#afafaf"
     bordercolor="#666666"
     borderopacity="1.0"
     inkscape:showpageshadow="2"
     inkscape:pageopacity="0.0"
     inkscape:pagecheckerboard="0"
     inkscape:deskcolor="#d1d1d1"
     showgrid="false"
     inkscape:zoom="0.6105385"
     inkscape:cx="161.33299"
     inkscape:cy="468.43893"
     inkscape:window-width="1920"
     inkscape:window-height="1003"
     inkscape:window-x="0"
     inkscape:window-y="0"
     inkscape:window-maximized="1"
     inkscape:current-layer="g8" />
  <defs
     id="defs6">
    <clipPath
       clipPathUnits="userSpaceOnUse"
       id="clipPath18">
      <path
         d="M 0,0 H 748 V 579 H 0 Z"
         id="path16" />
    </clipPath>
  </defs>
  <g
     id="g8"
     transform="matrix(1.3333333,0,0,1.3333333,0,1.93272e-5)">
    <g
       id="g10"
       stroke="#000000"
       style="display:inline"
       inkscape:label="en">
      <g
         aria-label="master"
         transform="translate(44.171875,72.214844)"
         id="text28"
         style="font-size:26px;font-family:'DejaVu Sans';-inkscape-font-specification:DejaVuSans;fill:#ffffff;stroke:none">
        <path
           d="m 13.520508,-11.489258 q 0.875976,-1.574219 2.094726,-2.323242 1.21875,-0.749023 2.869141,-0.749023 2.22168,0 3.427734,1.561523 1.206055,1.548828 1.206055,4.4179687 V 0 h -2.348633 v -8.5058594 q 0,-2.0439456 -0.723633,-3.0341796 -0.723632,-0.990234 -2.208984,-0.990234 -1.81543,0 -2.869141,1.206054 -1.05371,1.206055 -1.05371,3.2880862 V 0 H 11.56543 v -8.5058594 q 0,-2.0566406 -0.723633,-3.0341796 -0.723633,-0.990234 -2.2343751,-0.990234 -1.7900391,0 -2.84375,1.21875 -1.053711,1.206054 -1.053711,3.2753902 V 0 H 2.3613281 v -14.21875 h 2.3486328 v 2.208984 q 0.7998047,-1.307617 1.9169922,-1.929687 1.1171875,-0.62207 2.6533203,-0.62207 1.5488286,0 2.6279296,0.787109 1.091797,0.787109 1.612305,2.285156 z"
           id="path2826" />
        <path
           d="m 34.236124,-7.1474609 q -2.831055,0 -3.922852,0.6474609 -1.091796,0.6474609 -1.091796,2.2089844 0,1.2441406 0.8125,1.9804687 0.825195,0.7236328 2.234375,0.7236328 1.942382,0 3.110351,-1.3710937 1.180664,-1.3837891 1.180664,-3.6689453 v -0.5205078 z m 4.65918,-0.9648438 V 0 h -2.335938 v -2.1582031 q -0.799804,1.29492185 -1.993164,1.91699216 -1.193359,0.609375 -2.919922,0.609375 -2.183593,0 -3.478515,-1.21875 -1.282227,-1.23144536 -1.282227,-3.28808596 0,-2.399414 1.599609,-3.618164 1.612305,-1.21875 4.798829,-1.21875 h 3.27539 v -0.2285157 q 0,-1.6123044 -1.066406,-2.4882814 -1.053711,-0.888672 -2.970703,-0.888672 -1.21875,0 -2.374024,0.291992 -1.155273,0.291993 -2.221679,0.875977 v -2.158203 q 1.282226,-0.495117 2.488281,-0.736328 1.206055,-0.253906 2.348633,-0.253906 3.084961,0 4.608398,1.599609 1.523438,1.599609 1.523438,4.8496093 z"
           id="path2828" />
        <path
           d="m 52.750675,-13.799805 v 2.208985 q -0.990234,-0.507813 -2.05664,-0.761719 -1.066407,-0.253906 -2.208985,-0.253906 -1.739258,0 -2.615234,0.533203 -0.863281,0.533203 -0.863281,1.599609 0,0.8125002 0.62207,1.2822267 0.62207,0.4570313 2.500976,0.8759766 l 0.799805,0.1777344 q 2.488281,0.5332031 3.529297,1.5107422 1.053711,0.9648437 1.053711,2.7041015 0,1.9804688 -1.574219,3.13574223 -1.561523,1.15527343 -4.303711,1.15527343 -1.142578,0 -2.386718,-0.22851562 -1.231446,-0.21582031 -2.60254,-0.66015625 V -2.9326172 q 1.294922,0.6728516 2.551758,1.015625 1.256836,0.3300781 2.488282,0.3300781 1.65039,0 2.539062,-0.5585937 0.888672,-0.5712891 0.888672,-1.5996094 0,-0.9521484 -0.647461,-1.4599609 -0.634766,-0.5078125 -2.805664,-0.9775391 l -0.8125,-0.1904297 q -2.170899,-0.4570312 -3.135742,-1.3964843 -0.964844,-0.9521485 -0.964844,-2.6025388 0,-2.00586 1.421875,-3.097657 1.421875,-1.091796 4.037109,-1.091796 1.294922,0 2.4375,0.190429 1.142578,0.19043 2.107422,0.571289 z"
           id="path2830" />
        <path
           d="m 59.516777,-18.255859 v 4.037109 H 64.3283 v 1.81543 h -4.811523 v 7.7187497 q 0,1.7392578 0.469727,2.234375 0.482421,0.4951172 1.942382,0.4951172 H 64.3283 V 0 h -2.399414 q -2.704101,0 -3.732421,-1.0029297 -1.028321,-1.015625 -1.028321,-3.6816406 V -12.40332 h -1.713867 v -1.81543 h 1.713867 v -4.037109 z"
           id="path2832" />
        <path
           d="m 79.560341,-7.6933594 v 1.1425782 H 68.820107 q 0.152343,2.4121093 1.447265,3.6816406 1.307617,1.2568359 3.63086,1.2568359 1.345703,0 2.602539,-0.3300781 1.269531,-0.3300781 2.513671,-0.9902344 v 2.20898439 q -1.256835,0.53320312 -2.577148,0.8125 -1.320312,0.27929687 -2.678711,0.27929687 -3.402344,0 -5.395508,-1.98046876 -1.980468,-1.9804687 -1.980468,-5.3574219 0,-3.4912114 1.878906,-5.5351564 1.891601,-2.05664 5.09082,-2.05664 2.869141,0 4.532227,1.853515 1.675781,1.84082 1.675781,5.0146486 z m -2.335938,-0.6855469 q -0.02539,-1.9169917 -1.079101,-3.0595707 -1.041016,-1.142578 -2.767578,-1.142578 -1.955078,0 -3.135742,1.104492 -1.167969,1.104493 -1.345704,3.1103521 z"
           id="path2834" />
        <path
           d="m 91.627502,-12.035156 q -0.393554,-0.228516 -0.863281,-0.330078 -0.457031,-0.114258 -1.015625,-0.114258 -1.980469,0 -3.046875,1.294922 -1.053711,1.2822262 -1.053711,3.6943356 V 0 h -2.348633 v -14.21875 h 2.348633 v 2.208984 q 0.736328,-1.294922 1.916992,-1.916992 1.180665,-0.634765 2.869141,-0.634765 0.241211,0 0.533203,0.03808 0.291992,0.02539 0.647461,0.08887 z"
           id="path2836" />
      </g>
      <g
         aria-label="SCLK"
         transform="translate(183.60156,111.81641)"
         id="text36"
         style="font-size:13px;font-family:'DejaVu Sans';-inkscape-font-specification:DejaVuSans;fill:#ffffff;stroke:none">
        <path
           d="m 6.9570312,-9.1660156 v 1.2504883 Q 6.2270508,-8.2646484 5.5795898,-8.4360352 4.9321289,-8.6074219 4.3291016,-8.6074219 q -1.0473633,0 -1.6186524,0.40625 -0.5649414,0.40625 -0.5649414,1.1552735 0,0.6284179 0.3745117,0.9521484 0.3808594,0.3173828 1.4345703,0.5141602 l 0.7744141,0.1586914 q 1.4345703,0.2729492 2.1137695,0.9648437 0.6855469,0.6855469 0.6855469,1.8408203 0,1.3774414 -0.9267578,2.08837893 -0.9204102,0.7109375 -2.7041016,0.7109375 -0.6728515,0 -1.4345703,-0.15234375 Q 1.7075195,-0.12060547 0.89501953,-0.41894531 V -1.7392578 q 0.78076167,0.4379883 1.52978517,0.6601562 0.7490234,0.22216801 1.4726562,0.22216801 1.0981446,0 1.6948243,-0.43164061 0.5966796,-0.4316406 0.5966796,-1.2314453 0,-0.6982422 -0.4316406,-1.0917969 -0.425293,-0.3935547 -1.402832,-0.590332 L 3.5737305,-4.3544922 Q 2.1391602,-4.6401367 1.4980469,-5.2495117 0.85693359,-5.8588867 0.85693359,-6.9443359 q 0,-1.256836 0.88232421,-1.9804688 0.8886719,-0.7236328 2.4438477,-0.7236328 0.6665039,0 1.3583984,0.1206055 0.6918945,0.1206054 1.4155273,0.3618164 z"
           id="path2839" />
        <path
           d="m 16.614564,-8.7470703 v 1.3520508 q -0.647461,-0.6030274 -1.383789,-0.9013672 -0.729981,-0.2983399 -1.555176,-0.2983399 -1.625,0 -2.488281,0.9965821 -0.863281,0.9902343 -0.863281,2.8691406 0,1.8725586 0.863281,2.8691406 0.863281,0.99023439 2.488281,0.99023439 0.825195,0 1.555176,-0.29833979 0.736328,-0.2983399 1.383789,-0.9013672 v 1.33935543 q -0.672852,0.45703125 -1.428223,0.68554688 -0.749023,0.22851562 -1.586914,0.22851562 -2.151855,0 -3.389648,-1.31396483 -1.2377932,-1.3203125 -1.2377932,-3.5991211 0,-2.2851563 1.2377932,-3.5991211 1.237793,-1.3203125 3.389648,-1.3203125 0.850586,0 1.59961,0.2285156 0.755371,0.222168 1.415527,0.6728516 z"
           id="path2841" />
        <path
           d="m 18.59189,-9.4770508 h 1.282227 v 8.3979492 h 4.614746 V 0 H 18.59189 Z"
           id="path2843" />
        <path
           d="m 25.884893,-9.4770508 h 1.282227 v 4.0053711 l 4.25293,-4.0053711 h 1.65039 L 28.366827,-5.059082 33.406866,0 H 31.71839 L 27.16712,-4.5639648 V 0 h -1.282227 z"
           id="path2845" />
      </g>
      <g
         aria-label="MOSI"
         transform="translate(183.60156,169.41406)"
         id="text44"
         style="font-size:13px;font-family:'DejaVu Sans';-inkscape-font-specification:DejaVuSans;fill:#ffffff;stroke:none">
        <path
           d="M 1.2758789,-9.4770508 H 3.1865234 L 5.6049805,-3.027832 8.0361328,-9.4770508 H 9.9467773 V 0 H 8.6962891 v -8.3217773 l -2.4438477,6.5 H 4.9638672 l -2.4438477,-6.5 V 0 H 1.2758789 Z"
           id="path2848" />
        <path
           d="m 16.328566,-8.6074219 q -1.396485,0 -2.22168,1.0410157 -0.818848,1.0410156 -0.818848,2.8374023 0,1.7900391 0.818848,2.8310547 0.825195,1.04101561 2.22168,1.04101561 1.396484,0 2.208984,-1.04101561 0.818848,-1.0410156 0.818848,-2.8310547 0,-1.7963867 -0.818848,-2.8374023 -0.8125,-1.0410157 -2.208984,-1.0410157 z m 0,-1.0410156 q 1.993164,0 3.186523,1.3393555 1.193359,1.3330078 1.193359,3.5800781 0,2.2407226 -1.193359,3.5800781 -1.193359,1.33300783 -3.186523,1.33300783 -1.999512,0 -3.199219,-1.33300783 -1.19336,-1.3330078 -1.19336,-3.5800781 0,-2.2470703 1.19336,-3.5800781 1.199707,-1.3393555 3.199219,-1.3393555 z"
           id="path2850" />
        <path
           d="m 28.394045,-9.1660156 v 1.2504883 q -0.729981,-0.3491211 -1.377442,-0.5205079 -0.64746,-0.1713867 -1.250488,-0.1713867 -1.047363,0 -1.618652,0.40625 -0.564942,0.40625 -0.564942,1.1552735 0,0.6284179 0.374512,0.9521484 0.38086,0.3173828 1.43457,0.5141602 l 0.774415,0.1586914 q 1.43457,0.2729492 2.113769,0.9648437 0.685547,0.6855469 0.685547,1.8408203 0,1.3774414 -0.926758,2.08837893 -0.92041,0.7109375 -2.704101,0.7109375 -0.672852,0 -1.434571,-0.15234375 -0.755371,-0.15234375 -1.567871,-0.45068359 V -1.7392578 q 0.780762,0.4379883 1.529785,0.6601562 0.749024,0.22216801 1.472657,0.22216801 1.098144,0 1.694824,-0.43164061 0.596679,-0.4316406 0.596679,-1.2314453 0,-0.6982422 -0.43164,-1.0917969 -0.425293,-0.3935547 -1.402832,-0.590332 l -0.780762,-0.1523438 q -1.43457,-0.2856445 -2.075683,-0.8950195 -0.641114,-0.609375 -0.641114,-1.6948242 0,-1.256836 0.882324,-1.9804688 0.888672,-0.7236328 2.443848,-0.7236328 0.666504,0 1.358399,0.1206055 0.691894,0.1206054 1.415527,0.3618164 z"
           id="path2852" />
        <path
           d="m 30.993896,-9.4770508 h 1.282227 V 0 h -1.282227 z"
           id="path2854" />
      </g>
      <g
         aria-label="MISO"
         transform="translate(183.60156,227.01562)"
         id="text100"
         style="font-size:13px;font-family:'DejaVu Sans';-inkscape-font-specification:DejaVuSans;fill:#ffffff;stroke:none">
        <path
           d="M 1.2758789,-9.4770508 H 3.1865234 L 5.6049805,-3.027832 8.0361328,-9.4770508 H 9.9467773 V 0 H 8.6962891 v -8.3217773 l -2.4438477,6.5 H 4.9638672 l -2.4438477,-6.5 V 0 H 1.2758789 Z"
           id="path2857" />
        <path
           d="m 12.481886,-9.4770508 h 1.282226 V 0 h -1.282226 z"
           id="path2859" />
        <path
           d="m 21.985041,-9.1660156 v 1.2504883 q -0.729981,-0.3491211 -1.377442,-0.5205079 -0.647461,-0.1713867 -1.250488,-0.1713867 -1.047363,0 -1.618652,0.40625 -0.564942,0.40625 -0.564942,1.1552735 0,0.6284179 0.374512,0.9521484 0.380859,0.3173828 1.43457,0.5141602 l 0.774414,0.1586914 q 1.434571,0.2729492 2.11377,0.9648437 0.685547,0.6855469 0.685547,1.8408203 0,1.3774414 -0.926758,2.08837893 -0.92041,0.7109375 -2.704102,0.7109375 -0.672851,0 -1.43457,-0.15234375 -0.755371,-0.15234375 -1.567871,-0.45068359 V -1.7392578 q 0.780762,0.4379883 1.529785,0.6601562 0.749024,0.22216801 1.472656,0.22216801 1.098145,0 1.694825,-0.43164061 0.596679,-0.4316406 0.596679,-1.2314453 0,-0.6982422 -0.43164,-1.0917969 -0.425293,-0.3935547 -1.402832,-0.590332 L 18.60174,-4.3544922 q -1.43457,-0.2856445 -2.075684,-0.8950195 -0.641113,-0.609375 -0.641113,-1.6948242 0,-1.256836 0.882324,-1.9804688 0.888672,-0.7236328 2.443848,-0.7236328 0.666504,0 1.358398,0.1206055 0.691895,0.1206054 1.415528,0.3618164 z"
           id="path2861" />
        <path
           d="m 28.392572,-8.6074219 q -1.396484,0 -2.221679,1.0410157 -0.818848,1.0410156 -0.818848,2.8374023 0,1.7900391 0.818848,2.8310547 0.825195,1.04101561 2.221679,1.04101561 1.396485,0 2.208985,-1.04101561 0.818847,-1.0410156 0.818847,-2.8310547 0,-1.7963867 -0.818847,-2.8374023 -0.8125,-1.0410157 -2.208985,-1.0410157 z m 0,-1.0410156 q 1.993164,0 3.186524,1.3393555 1.193359,1.3330078 1.193359,3.5800781 0,2.2407226 -1.193359,3.5800781 -1.19336,1.33300783 -3.186524,1.33300783 -1.999511,0 -3.199218,-1.33300783 -1.19336,-1.3330078 -1.19336,-3.5800781 0,-2.2470703 1.19336,-3.5800781 1.199707,-1.3393555 3.199218,-1.3393555 z"
           id="path2863" />
      </g>
      <g
         aria-label="CS#1"
         transform="translate(183.60156,313.41406)"
         id="text156"
         style="font-size:13px;font-family:'DejaVu Sans';-inkscape-font-specification:DejaVuSans;fill:#ffffff;stroke:none">
        <path
           d="m 8.3725586,-8.7470703 v 1.3520508 Q 7.7250977,-7.9980469 6.9887695,-8.2963867 6.2587891,-8.5947266 5.4335937,-8.5947266 q -1.6249999,0 -2.4882812,0.9965821 -0.8632812,0.9902343 -0.8632812,2.8691406 0,1.8725586 0.8632812,2.8691406 0.8632813,0.99023439 2.4882812,0.99023439 0.8251954,0 1.5551758,-0.29833979 0.7363282,-0.2983399 1.3837891,-0.9013672 v 1.33935543 q -0.6728516,0.45703125 -1.4282227,0.68554688 -0.7490234,0.22851562 -1.586914,0.22851562 -2.1518555,0 -3.3896485,-1.31396483 -1.23779293,-1.3203125 -1.23779293,-3.5991211 0,-2.2851563 1.23779293,-3.5991211 1.237793,-1.3203125 3.3896485,-1.3203125 0.8505859,0 1.5996093,0.2285156 0.7553711,0.222168 1.4155274,0.6728516 z"
           id="path2866" />
        <path
           d="m 16.031036,-9.1660156 v 1.2504883 q -0.72998,-0.3491211 -1.377441,-0.5205079 -0.647461,-0.1713867 -1.250488,-0.1713867 -1.047364,0 -1.618653,0.40625 -0.564941,0.40625 -0.564941,1.1552735 0,0.6284179 0.374512,0.9521484 0.380859,0.3173828 1.43457,0.5141602 l 0.774414,0.1586914 q 1.43457,0.2729492 2.11377,0.9648437 0.685546,0.6855469 0.685546,1.8408203 0,1.3774414 -0.926757,2.08837893 -0.920411,0.7109375 -2.704102,0.7109375 -0.672851,0 -1.43457,-0.15234375 -0.755371,-0.15234375 -1.5678713,-0.45068359 V -1.7392578 q 0.7807613,0.4379883 1.5297853,0.6601562 0.749023,0.22216801 1.472656,0.22216801 1.098145,0 1.694824,-0.43164061 0.59668,-0.4316406 0.59668,-1.2314453 0,-0.6982422 -0.431641,-1.0917969 -0.425293,-0.3935547 -1.402832,-0.590332 l -0.780761,-0.1523438 q -1.434571,-0.2856445 -2.075684,-0.8950195 -0.6411133,-0.609375 -0.6411133,-1.6948242 0,-1.256836 0.8823243,-1.9804688 0.888672,-0.7236328 2.443848,-0.7236328 0.666504,0 1.358398,0.1206055 0.691895,0.1206054 1.415527,0.3618164 z"
           id="path2868" />
        <path
           d="M 23.962008,-5.7192383 H 22.11484 l -0.533204,2.1201172 H 23.4415 Z m -0.952149,-3.6118164 -0.660156,2.6342774 h 1.853515 l 0.666504,-2.6342774 h 1.015625 l -0.653808,2.6342774 h 1.980469 v 0.977539 H 24.98398 l -0.520508,2.1201172 h 2.018555 v 0.9711914 H 24.215914 L 23.555758,0 h -1.015625 l 0.653808,-2.6279297 H 21.334078 L 20.680269,0 h -1.021972 l 0.660156,-2.6279297 h -1.999512 v -0.9711914 h 2.234375 l 0.533203,-2.1201172 h -2.043945 v -0.977539 h 2.291504 l 0.647461,-2.6342774 z"
           id="path2870" />
        <path
           d="m 29.809322,-1.0791016 h 2.094727 V -8.309082 l -2.278809,0.4570312 v -1.1679687 l 2.266114,-0.4570313 h 1.282226 v 8.3979492 h 2.094727 V 0 h -5.458985 z"
           id="path2872" />
      </g>
      <g
         aria-label="CS#2"
         transform="translate(183.60156,371.01562)"
         id="text164"
         style="font-size:13px;font-family:'DejaVu Sans';-inkscape-font-specification:DejaVuSans;fill:#ffffff;stroke:none">
        <path
           d="m 8.3725586,-8.7470703 v 1.3520508 Q 7.7250977,-7.9980469 6.9887695,-8.2963867 6.2587891,-8.5947266 5.4335937,-8.5947266 q -1.6249999,0 -2.4882812,0.9965821 -0.8632812,0.9902343 -0.8632812,2.8691406 0,1.8725586 0.8632812,2.8691406 0.8632813,0.99023439 2.4882812,0.99023439 0.8251954,0 1.5551758,-0.29833979 0.7363282,-0.2983399 1.3837891,-0.9013672 v 1.33935543 q -0.6728516,0.45703125 -1.4282227,0.68554688 -0.7490234,0.22851562 -1.586914,0.22851562 -2.1518555,0 -3.3896485,-1.31396483 -1.23779293,-1.3203125 -1.23779293,-3.5991211 0,-2.2851563 1.23779293,-3.5991211 1.237793,-1.3203125 3.3896485,-1.3203125 0.8505859,0 1.5996093,0.2285156 0.7553711,0.222168 1.4155274,0.6728516 z"
           id="path2875" />
        <path
           d="m 16.031036,-9.1660156 v 1.2504883 q -0.72998,-0.3491211 -1.377441,-0.5205079 -0.647461,-0.1713867 -1.250488,-0.1713867 -1.047364,0 -1.618653,0.40625 -0.564941,0.40625 -0.564941,1.1552735 0,0.6284179 0.374512,0.9521484 0.380859,0.3173828 1.43457,0.5141602 l 0.774414,0.1586914 q 1.43457,0.2729492 2.11377,0.9648437 0.685546,0.6855469 0.685546,1.8408203 0,1.3774414 -0.926757,2.08837893 -0.920411,0.7109375 -2.704102,0.7109375 -0.672851,0 -1.43457,-0.15234375 -0.755371,-0.15234375 -1.5678713,-0.45068359 V -1.7392578 q 0.7807613,0.4379883 1.5297853,0.6601562 0.749023,0.22216801 1.472656,0.22216801 1.098145,0 1.694824,-0.43164061 0.59668,-0.4316406 0.59668,-1.2314453 0,-0.6982422 -0.431641,-1.0917969 -0.425293,-0.3935547 -1.402832,-0.590332 l -0.780761,-0.1523438 q -1.434571,-0.2856445 -2.075684,-0.8950195 -0.6411133,-0.609375 -0.6411133,-1.6948242 0,-1.256836 0.8823243,-1.9804688 0.888672,-0.7236328 2.443848,-0.7236328 0.666504,0 1.358398,0.1206055 0.691895,0.1206054 1.415527,0.3618164 z"
           id="path2877" />
        <path
           d="M 23.962008,-5.7192383 H 22.11484 l -0.533204,2.1201172 H 23.4415 Z m -0.952149,-3.6118164 -0.660156,2.6342774 h 1.853515 l 0.666504,-2.6342774 h 1.015625 l -0.653808,2.6342774 h 1.980469 v 0.977539 H 24.98398 l -0.520508,2.1201172 h 2.018555 v 0.9711914 H 24.215914 L 23.555758,0 h -1.015625 l 0.653808,-2.6279297 H 21.334078 L 20.680269,0 h -1.021972 l 0.660156,-2.6279297 h -1.999512 v -0.9711914 h 2.234375 l 0.533203,-2.1201172 h -2.043945 v -0.977539 h 2.291504 l 0.647461,-2.6342774 z"
           id="path2879" />
        <path
           d="m 30.691647,-1.0791016 h 4.475097 V 0 h -6.017578 v -1.0791016 q 0.729981,-0.7553711 1.986817,-2.0249023 1.263183,-1.2758789 1.586914,-1.644043 0.615722,-0.6918945 0.856933,-1.1679687 0.247559,-0.4824219 0.247559,-0.9458008 0,-0.7553711 -0.533203,-1.2314453 -0.526856,-0.4760742 -1.377442,-0.4760742 -0.603027,0 -1.275879,0.2094726 -0.666504,0.2094727 -1.428222,0.6347656 v -1.2949218 q 0.774414,-0.3110352 1.447265,-0.4697266 0.672852,-0.1586914 1.231446,-0.1586914 1.472656,0 2.348632,0.7363281 0.875977,0.7363281 0.875977,1.9677735 0,0.5839843 -0.222168,1.1108398 -0.21582,0.5205078 -0.793457,1.2314453 -0.158691,0.1840821 -1.009277,1.0664063 -0.850586,0.8759765 -2.399414,2.4565429 z"
           id="path2881" />
      </g>
      <g
         aria-label="slave #1"
         transform="translate(306.25391,511.41406)"
         id="text196"
         style="font-size:26px;font-family:'DejaVu Sans';-inkscape-font-specification:DejaVuSans;fill:#ffffff;stroke:none">
        <path
           d="m 11.514648,-13.799805 v 2.208985 q -0.990234,-0.507813 -2.0566402,-0.761719 -1.0664062,-0.253906 -2.2089844,-0.253906 -1.7392578,0 -2.6152343,0.533203 -0.8632813,0.533203 -0.8632813,1.599609 0,0.8125002 0.6220703,1.2822267 0.6220703,0.4570313 2.5009766,0.8759766 l 0.7998047,0.1777344 q 2.4882816,0.5332031 3.5292966,1.5107422 1.053711,0.9648437 1.053711,2.7041015 0,1.9804688 -1.574219,3.13574223 -1.561523,1.15527343 -4.3037105,1.15527343 -1.1425781,0 -2.3867188,-0.22851562 -1.2314453,-0.21582031 -2.602539,-0.66015625 V -2.9326172 q 1.2949219,0.6728516 2.5517578,1.015625 1.2568359,0.3300781 2.4882812,0.3300781 1.6503907,0 2.5390626,-0.5585937 0.8886718,-0.5712891 0.8886718,-1.5996094 0,-0.9521484 -0.6474609,-1.4599609 -0.6347656,-0.5078125 -2.8056641,-0.9775391 l -0.8125,-0.1904297 Q 3.4404297,-6.8300781 2.4755859,-7.7695312 1.5107422,-8.7216797 1.5107422,-10.37207 q 0,-2.00586 1.421875,-3.097657 1.421875,-1.091796 4.0371094,-1.091796 1.2949218,0 2.4375,0.190429 1.1425784,0.19043 2.1074214,0.571289 z"
           id="path2884" />
        <path
           d="m 15.970203,-19.753906 h 2.335938 V 0 h -2.335938 z"
           id="path2886" />
        <path
           d="m 29.634123,-7.1474609 q -2.831055,0 -3.922852,0.6474609 -1.091797,0.6474609 -1.091797,2.2089844 0,1.2441406 0.8125,1.9804687 0.825196,0.7236328 2.234375,0.7236328 1.942383,0 3.110352,-1.3710937 1.180664,-1.3837891 1.180664,-3.6689453 v -0.5205078 z m 4.65918,-0.9648438 V 0 h -2.335938 v -2.1582031 q -0.799805,1.29492185 -1.993164,1.91699216 -1.193359,0.609375 -2.919922,0.609375 -2.183594,0 -3.478516,-1.21875 -1.282226,-1.23144536 -1.282226,-3.28808596 0,-2.399414 1.599609,-3.618164 1.612305,-1.21875 4.798828,-1.21875 h 3.275391 v -0.2285157 q 0,-1.6123044 -1.066406,-2.4882814 -1.053711,-0.888672 -2.970703,-0.888672 -1.21875,0 -2.374024,0.291992 -1.155273,0.291993 -2.221679,0.875977 v -2.158203 q 1.282226,-0.495117 2.488281,-0.736328 1.206054,-0.253906 2.348633,-0.253906 3.084961,0 4.608398,1.599609 1.523438,1.599609 1.523438,4.8496093 z"
           id="path2888" />
        <path
           d="m 37.408436,-14.21875 h 2.475586 l 4.443359,11.9335937 4.44336,-11.9335937 h 2.475585 L 45.914295,0 h -3.173828 z"
           id="path2890" />
        <path
           d="m 66.612335,-7.6933594 v 1.1425782 H 55.872101 q 0.152344,2.4121093 1.447265,3.6816406 1.307618,1.2568359 3.63086,1.2568359 1.345703,0 2.602539,-0.3300781 1.269531,-0.3300781 2.513672,-0.9902344 v 2.20898439 q -1.256836,0.53320312 -2.577149,0.8125 -1.320312,0.27929687 -2.678711,0.27929687 -3.402343,0 -5.395507,-1.98046876 -1.980469,-1.9804687 -1.980469,-5.3574219 0,-3.4912114 1.878906,-5.5351564 1.891602,-2.05664 5.09082,-2.05664 2.869141,0 4.532227,1.853515 1.675781,1.84082 1.675781,5.0146486 z m -2.335937,-0.6855469 q -0.02539,-1.9169917 -1.079102,-3.0595707 -1.041015,-1.142578 -2.767578,-1.142578 -1.955078,0 -3.135742,1.104492 -1.167969,1.104493 -1.345703,3.1103521 z"
           id="path2892" />
        <path
           d="m 89.52404,-11.438477 h -3.694336 l -1.066406,4.2402348 h 3.719727 z m -1.904297,-7.223632 -1.320312,5.268554 h 3.707031 l 1.333008,-5.268554 h 2.03125 l -1.307617,5.268554 h 3.960937 v 1.955078 h -4.456054 l -1.041016,4.2402348 h 4.037109 v 1.9423828 H 90.031853 L 88.71154,0 h -2.03125 l 1.307617,-5.2558594 H 84.268181 L 82.960564,0 h -2.043946 l 1.320313,-5.2558594 h -3.999024 v -1.9423828 h 4.46875 l 1.066407,-4.2402348 h -4.087891 v -1.955078 h 4.583008 l 1.294922,-5.268554 z"
           id="path2894" />
        <path
           d="m 101.21867,-2.1582031 h 4.18945 V -16.618164 l -4.55762,0.914062 v -2.335937 l 4.53223,-0.914063 h 2.56445 v 16.7958989 h 4.18945 V 0 h -10.91796 z"
           id="path2896" />
      </g>
      <g
         aria-label="slave #2"
         transform="translate(486.25391,511.41406)"
         id="text236"
         style="font-size:26px;font-family:'DejaVu Sans';-inkscape-font-specification:DejaVuSans;fill:#ffffff;stroke:none">
        <path
           d="m 11.514648,-13.799805 v 2.208985 q -0.990234,-0.507813 -2.0566402,-0.761719 -1.0664062,-0.253906 -2.2089844,-0.253906 -1.7392578,0 -2.6152343,0.533203 -0.8632813,0.533203 -0.8632813,1.599609 0,0.8125002 0.6220703,1.2822267 0.6220703,0.4570313 2.5009766,0.8759766 l 0.7998047,0.1777344 q 2.4882816,0.5332031 3.5292966,1.5107422 1.053711,0.9648437 1.053711,2.7041015 0,1.9804688 -1.574219,3.13574223 -1.561523,1.15527343 -4.3037105,1.15527343 -1.1425781,0 -2.3867188,-0.22851562 -1.2314453,-0.21582031 -2.602539,-0.66015625 V -2.9326172 q 1.2949219,0.6728516 2.5517578,1.015625 1.2568359,0.3300781 2.4882812,0.3300781 1.6503907,0 2.5390626,-0.5585937 0.8886718,-0.5712891 0.8886718,-1.5996094 0,-0.9521484 -0.6474609,-1.4599609 -0.6347656,-0.5078125 -2.8056641,-0.9775391 l -0.8125,-0.1904297 Q 3.4404297,-6.8300781 2.4755859,-7.7695312 1.5107422,-8.7216797 1.5107422,-10.37207 q 0,-2.00586 1.421875,-3.097657 1.421875,-1.091796 4.0371094,-1.091796 1.2949218,0 2.4375,0.190429 1.1425784,0.19043 2.1074214,0.571289 z"
           id="path2899" />
        <path
           d="m 15.970203,-19.753906 h 2.335938 V 0 h -2.335938 z"
           id="path2901" />
        <path
           d="m 29.634123,-7.1474609 q -2.831055,0 -3.922852,0.6474609 -1.091797,0.6474609 -1.091797,2.2089844 0,1.2441406 0.8125,1.9804687 0.825196,0.7236328 2.234375,0.7236328 1.942383,0 3.110352,-1.3710937 1.180664,-1.3837891 1.180664,-3.6689453 v -0.5205078 z m 4.65918,-0.9648438 V 0 h -2.335938 v -2.1582031 q -0.799805,1.29492185 -1.993164,1.91699216 -1.193359,0.609375 -2.919922,0.609375 -2.183594,0 -3.478516,-1.21875 -1.282226,-1.23144536 -1.282226,-3.28808596 0,-2.399414 1.599609,-3.618164 1.612305,-1.21875 4.798828,-1.21875 h 3.275391 v -0.2285157 q 0,-1.6123044 -1.066406,-2.4882814 -1.053711,-0.888672 -2.970703,-0.888672 -1.21875,0 -2.374024,0.291992 -1.155273,0.291993 -2.221679,0.875977 v -2.158203 q 1.282226,-0.495117 2.488281,-0.736328 1.206054,-0.253906 2.348633,-0.253906 3.084961,0 4.608398,1.599609 1.523438,1.599609 1.523438,4.8496093 z"
           id="path2903" />
        <path
           d="m 37.408436,-14.21875 h 2.475586 l 4.443359,11.9335937 4.44336,-11.9335937 h 2.475585 L 45.914295,0 h -3.173828 z"
           id="path2905" />
        <path
           d="m 66.612335,-7.6933594 v 1.1425782 H 55.872101 q 0.152344,2.4121093 1.447265,3.6816406 1.307618,1.2568359 3.63086,1.2568359 1.345703,0 2.602539,-0.3300781 1.269531,-0.3300781 2.513672,-0.9902344 v 2.20898439 q -1.256836,0.53320312 -2.577149,0.8125 -1.320312,0.27929687 -2.678711,0.27929687 -3.402343,0 -5.395507,-1.98046876 -1.980469,-1.9804687 -1.980469,-5.3574219 0,-3.4912114 1.878906,-5.5351564 1.891602,-2.05664 5.09082,-2.05664 2.869141,0 4.532227,1.853515 1.675781,1.84082 1.675781,5.0146486 z m -2.335937,-0.6855469 q -0.02539,-1.9169917 -1.079102,-3.0595707 -1.041015,-1.142578 -2.767578,-1.142578 -1.955078,0 -3.135742,1.104492 -1.167969,1.104493 -1.345703,3.1103521 z"
           id="path2907" />
        <path
           d="m 89.52404,-11.438477 h -3.694336 l -1.066406,4.2402348 h 3.719727 z m -1.904297,-7.223632 -1.320312,5.268554 h 3.707031 l 1.333008,-5.268554 h 2.03125 l -1.307617,5.268554 h 3.960937 v 1.955078 h -4.456054 l -1.041016,4.2402348 h 4.037109 v 1.9423828 H 90.031853 L 88.71154,0 h -2.03125 l 1.307617,-5.2558594 H 84.268181 L 82.960564,0 h -2.043946 l 1.320313,-5.2558594 h -3.999024 v -1.9423828 h 4.46875 l 1.066407,-4.2402348 h -4.087891 v -1.955078 h 4.583008 l 1.294922,-5.268554 z"
           id="path2909" />
        <path
           d="m 102.98331,-2.1582031 h 8.9502 V 0 H 99.898354 v -2.1582031 q 1.459956,-1.5107422 3.973636,-4.0498047 2.52636,-2.5517578 3.17382,-3.288086 1.23145,-1.3837892 1.71387,-2.3359372 0.49512,-0.964844 0.49512,-1.891602 0,-1.510742 -1.06641,-2.46289 -1.05371,-0.952149 -2.75488,-0.952149 -1.20605,0 -2.55176,0.418945 -1.33301,0.418946 -2.85644,1.269532 v -2.589844 q 1.54882,-0.62207 2.89453,-0.939453 1.3457,-0.317383 2.46289,-0.317383 2.94531,0 4.69726,1.472656 1.75196,1.472657 1.75196,3.935547 0,1.167969 -0.44434,2.22168 -0.43164,1.041015 -1.58691,2.4628904 -0.31739,0.3681641 -2.01856,2.1328125 -1.70117,1.7519532 -4.79883,4.913086 z"
           id="path2911" />
      </g>
      <g
         aria-label="..."
         transform="translate(680.39844,504.21484)"
         id="text240"
         style="font-size:52px;font-family:'DejaVu Sans';-inkscape-font-specification:DejaVuSans;fill:#ffffff;stroke:none">
        <path
           d="M 5.5605469,-6.4492187 H 10.917969 V 0 H 5.5605469 Z"
           id="path2914" />
        <path
           d="m 22.044558,-6.4492187 h 5.357421 V 0 h -5.357421 z"
           id="path2916" />
        <path
           d="M 38.528568,-6.4492187 H 43.88599 V 0 h -5.357422 z"
           id="path2918" />
      </g>
      <g
         aria-label="Serial Peripheral Interface"
         transform="translate(255.60156,50.617187)"
         id="text244"
         style="font-size:35.0996px;font-family:'DejaVu Sans';-inkscape-font-specification:DejaVuSans;fill:#ffffff;stroke:none">
        <path
           d="m 18.783771,-24.747961 v 3.37628 q -1.970925,-0.942617 -3.719049,-1.405355 -1.748125,-0.462739 -3.37628,-0.462739 -2.8278492,0 -4.3703121,1.096862 -1.5253245,1.096863 -1.5253245,3.119203 0,1.696709 1.0111701,2.570772 1.0283087,0.856924 3.8732955,1.388216 l 2.090895,0.428462 q 3.873296,0.736955 5.707113,2.605049 1.850955,1.850955 1.850955,4.9701583 0,3.7190496 -2.502217,5.6385591 -2.48508,1.91950945 -7.300992,1.91950945 -1.8166785,0 -3.8732958,-0.41132346 Q 4.6102504,-0.32563107 2.4165253,-1.1311395 v -3.5648033 q 2.1080327,1.1825549 4.1303731,1.7824016 2.0223403,0.5998467 3.9761266,0.5998467 2.964957,0 4.575974,-1.1654164 1.611016,-1.1654165 1.611016,-3.3248646 0,-1.8852325 -1.165416,-2.9478181 -1.148278,-1.0625854 -3.787603,-1.5938784 l -2.1080332,-0.411324 q -3.8732959,-0.771231 -5.6042821,-2.416525 -1.7309862,-1.645294 -1.7309862,-4.575973 0,-3.393419 2.3822483,-5.347205 2.3993868,-1.953787 6.5983142,-1.953787 1.79954,0 3.667634,0.325631 1.868094,0.325631 3.82188,0.976894 z"
           id="path2921" />
        <path
           d="m 41.979519,-10.385917 v 1.5424627 H 27.480367 q 0.205662,3.2563107 1.953787,4.9701584 1.765263,1.6967093 4.901604,1.6967093 1.816679,0 3.513388,-0.4456004 1.713848,-0.4456005 3.393419,-1.3368013 v 2.98209509 q -1.696709,0.71981605 -3.479111,1.09686255 -1.782402,0.37704651 -3.616219,0.37704651 -4.593112,0 -7.283853,-2.67360245 -2.673602,-2.6736025 -2.673602,-7.2324375 0,-4.7130809 2.536494,-7.4723759 2.553634,-2.776434 6.87253,-2.776434 3.873296,0 6.118436,2.502218 2.262279,2.485079 2.262279,6.769699 z m -3.153479,-0.925478 q -0.03428,-2.58791 -1.456771,-4.130373 -1.405355,-1.542463 -3.736188,-1.542463 -2.639326,0 -4.233204,1.491047 -1.57674,1.491048 -1.816679,4.198927 z"
           id="path2923" />
        <path
           d="m 58.269973,-16.247277 q -0.531293,-0.308492 -1.165417,-0.4456 -0.616985,-0.154246 -1.371078,-0.154246 -2.673603,0 -4.113235,1.748124 -1.422493,1.730987 -1.422493,4.987297 V 0 H 47.027131 V -19.195095 H 50.19775 V -16.213 q 0.994031,-1.748124 2.58791,-2.58791 1.593878,-0.856924 3.873296,-0.856924 0.325631,0 0.719816,0.05142 0.394185,0.03428 0.874062,0.119969 z"
           id="path2925" />
        <path
           d="m 61.573027,-19.195095 h 3.15348 V 0 h -3.15348 z m 0,-7.472376 h 3.15348 v 3.993265 h -3.15348 z"
           id="path2927" />
        <path
           d="m 79.913795,-9.6489628 q -3.821881,0 -5.29579,0.8740624 -1.473909,0.8740623 -1.473909,2.982095 0,1.6795708 1.096863,2.6736025 1.114001,0.9768932 3.016372,0.9768932 2.622187,0 4.198927,-1.8509555 1.593878,-1.8680941 1.593878,-4.95302 v -0.7026776 z m 6.289821,-1.3025242 V 0 h -3.15348 v -2.9135412 q -1.079724,1.7481247 -2.690741,2.58791013 -1.611017,0.82264692 -3.94185,0.82264692 -2.947818,0 -4.695942,-1.64529385 -1.730987,-1.6624323 -1.730987,-4.4388656 0,-3.2391723 2.159448,-4.8844664 2.176587,-1.645294 6.478345,-1.645294 h 4.421727 v -0.308492 q 0,-2.176587 -1.439632,-3.359142 -1.422494,-1.199693 -4.010404,-1.199693 -1.645294,0 -3.204895,0.394185 -1.559601,0.394185 -2.999234,1.182555 v -2.913541 q 1.730987,-0.668401 3.359142,-0.994032 1.628155,-0.34277 3.170618,-0.34277 4.16465,0 6.221268,2.159449 2.056617,2.159448 2.056617,6.546898 z"
           id="path2929" />
        <path
           d="m 92.671252,-26.667471 h 3.153479 V 0 h -3.153479 z"
           id="path2931" />
        <path
           d="m 117.11948,-22.74276 v 9.614686 h 4.35318 q 2.41652,0 3.73618,-1.251109 1.31967,-1.251108 1.31967,-3.564803 0,-2.296556 -1.31967,-3.547665 -1.31966,-1.251109 -3.73618,-1.251109 z m -3.46197,-2.844987 h 7.81515 q 4.30175,0 6.49548,1.953787 2.21086,1.936648 2.21086,5.689974 0,3.787604 -2.21086,5.724252 -2.19373,1.936648 -6.49548,1.936648 h -4.35318 V 0 h -3.46197 z"
           id="path2933" />
        <path
           d="m 149.87562,-10.385917 v 1.5424627 h -14.49915 q 0.20566,3.2563107 1.95378,4.9701584 1.76527,1.6967093 4.90161,1.6967093 1.81668,0 3.51339,-0.4456004 1.71384,-0.4456005 3.39341,-1.3368013 v 2.98209509 q -1.69671,0.71981605 -3.47911,1.09686255 -1.7824,0.37704651 -3.61622,0.37704651 -4.59311,0 -7.28385,-2.67360245 -2.6736,-2.6736025 -2.6736,-7.2324375 0,-4.7130809 2.53649,-7.4723759 2.55364,-2.776434 6.87253,-2.776434 3.8733,0 6.11844,2.502218 2.26228,2.485079 2.26228,6.769699 z m -3.15348,-0.925478 q -0.0343,-2.58791 -1.45677,-4.130373 -1.40536,-1.542463 -3.73619,-1.542463 -2.63933,0 -4.2332,1.491047 -1.57674,1.491048 -1.81668,4.198927 z"
           id="path2935" />
        <path
           d="m 166.16607,-16.247277 q -0.53129,-0.308492 -1.16541,-0.4456 -0.61699,-0.154246 -1.37108,-0.154246 -2.67361,0 -4.11324,1.748124 -1.42249,1.730987 -1.42249,4.987297 V 0 h -3.17062 v -19.195095 h 3.17062 V -16.213 q 0.99403,-1.748124 2.58791,-2.58791 1.59388,-0.856924 3.87329,-0.856924 0.32564,0 0.71982,0.05142 0.39419,0.03428 0.87406,0.119969 z"
           id="path2937" />
        <path
           d="m 169.46913,-19.195095 h 3.15348 V 0 h -3.15348 z m 0,-7.472376 h 3.15348 v 3.993265 h -3.15348 z"
           id="path2939" />
        <path
           d="M 182.24236,-2.8792642 V 7.3009914 h -3.17062 V -19.195095 h 3.17062 v 2.913541 q 0.99403,-1.713847 2.50222,-2.536494 1.52532,-0.839786 3.63336,-0.839786 3.49625,0 5.67283,2.776434 2.19373,2.776433 2.19373,7.3009911 0,4.5245581 -2.19373,7.3009914 -2.17658,2.77643335 -5.67283,2.77643335 -2.10804,0 -3.63336,-0.82264692 -1.50819,-0.83978543 -2.50222,-2.55363313 z m 10.72869,-6.7011447 q 0,-3.4791111 -1.43963,-5.4500361 -1.4225,-1.988063 -3.92471,-1.988063 -2.50222,0 -3.94185,1.988063 -1.4225,1.970925 -1.4225,5.4500361 0,3.4791109 1.4225,5.4671743 1.43963,1.9709249 3.94185,1.9709249 2.50221,0 3.92471,-1.9709249 1.43963,-1.9880634 1.43963,-5.4671743 z"
           id="path2941" />
        <path
           d="M 217.40076,-11.585611 V 0 h -3.15348 v -11.48278 q 0,-2.725018 -1.06258,-4.078957 -1.06259,-1.35394 -3.18776,-1.35394 -2.55363,0 -4.02754,1.628155 -1.47391,1.628156 -1.47391,4.438866 V 0 h -3.17062 v -26.667471 h 3.17062 V -16.213 q 1.13114,-1.730986 2.65646,-2.58791 1.54247,-0.856924 3.54767,-0.856924 3.30773,0 5.00443,2.056618 1.69671,2.039479 1.69671,6.015605 z"
           id="path2943" />
        <path
           d="m 240.08154,-10.385917 v 1.5424627 h -14.49916 q 0.20567,3.2563107 1.95379,4.9701584 1.76526,1.6967093 4.9016,1.6967093 1.81668,0 3.51339,-0.4456004 1.71385,-0.4456005 3.39342,-1.3368013 v 2.98209509 q -1.69671,0.71981605 -3.47911,1.09686255 -1.7824,0.37704651 -3.61622,0.37704651 -4.59311,0 -7.28385,-2.67360245 -2.6736,-2.6736025 -2.6736,-7.2324375 0,-4.7130809 2.53649,-7.4723759 2.55363,-2.776434 6.87253,-2.776434 3.8733,0 6.11844,2.502218 2.26228,2.485079 2.26228,6.769699 z m -3.15348,-0.925478 q -0.0343,-2.58791 -1.45677,-4.130373 -1.40536,-1.542463 -3.73619,-1.542463 -2.63933,0 -4.23321,1.491047 -1.57674,1.491048 -1.81668,4.198927 z"
           id="path2945" />
        <path
           d="m 256.37199,-16.247277 q -0.53129,-0.308492 -1.16542,-0.4456 -0.61698,-0.154246 -1.37108,-0.154246 -2.6736,0 -4.11323,1.748124 -1.42249,1.730987 -1.42249,4.987297 V 0 h -3.17062 v -19.195095 h 3.17062 V -16.213 q 0.99403,-1.748124 2.58791,-2.58791 1.59387,-0.856924 3.87329,-0.856924 0.32563,0 0.71982,0.05142 0.39418,0.03428 0.87406,0.119969 z"
           id="path2947" />
        <path
           d="m 268.29324,-9.6489628 q -3.82189,0 -5.29579,0.8740624 -1.47391,0.8740623 -1.47391,2.982095 0,1.6795708 1.09686,2.6736025 1.114,0.9768932 3.01637,0.9768932 2.62219,0 4.19893,-1.8509555 1.59388,-1.8680941 1.59388,-4.95302 v -0.7026776 z m 6.28982,-1.3025242 V 0 h -3.15348 v -2.9135412 q -1.07973,1.7481247 -2.69074,2.58791013 -1.61102,0.82264692 -3.94185,0.82264692 -2.94782,0 -4.69595,-1.64529385 -1.73098,-1.6624323 -1.73098,-4.4388656 0,-3.2391723 2.15944,-4.8844664 2.17659,-1.645294 6.47835,-1.645294 h 4.42173 v -0.308492 q 0,-2.176587 -1.43964,-3.359142 -1.42249,-1.199693 -4.0104,-1.199693 -1.64529,0 -3.20489,0.394185 -1.55961,0.394185 -2.99924,1.182555 v -2.913541 q 1.73099,-0.668401 3.35914,-0.994032 1.62816,-0.34277 3.17062,-0.34277 4.16465,0 6.22127,2.159449 2.05662,2.159448 2.05662,6.546898 z"
           id="path2949" />
        <path
           d="m 281.05068,-26.667471 h 3.15348 V 0 h -3.15348 z"
           id="path2951" />
        <path
           d="m 302.03694,-25.587747 h 3.46197 V 0 h -3.46197 z"
           id="path2953" />
        <path
           d="M 328.17503,-11.585611 V 0 h -3.15348 v -11.48278 q 0,-2.725018 -1.06259,-4.078957 -1.06259,-1.35394 -3.18776,-1.35394 -2.55363,0 -4.02754,1.628155 -1.47391,1.628156 -1.47391,4.438866 V 0 h -3.17062 v -19.195095 h 3.17062 V -16.213 q 1.13114,-1.730986 2.65647,-2.58791 1.54246,-0.856924 3.54766,-0.856924 3.30773,0 5.00444,2.056618 1.69671,2.039479 1.69671,6.015605 z"
           id="path2955" />
        <path
           d="m 337.55635,-24.645131 v 5.450036 h 6.49549 v 2.450803 h -6.49549 v 10.4201938 q 0,2.3479714 0.63413,3.0163721 0.65126,0.6684006 2.62218,0.6684006 h 3.23918 V 0 h -3.23918 q -3.65049,0 -5.03871,-1.3539397 -1.38821,-1.3710782 -1.38821,-4.9701585 V -16.744292 h -2.3137 v -2.450803 h 2.3137 v -5.450036 z"
           id="path2957" />
        <path
           d="m 364.61485,-10.385917 v 1.5424627 h -14.49916 q 0.20567,3.2563107 1.95379,4.9701584 1.76526,1.6967093 4.9016,1.6967093 1.81668,0 3.51339,-0.4456004 1.71385,-0.4456005 3.39342,-1.3368013 v 2.98209509 q -1.69671,0.71981605 -3.47911,1.09686255 -1.7824,0.37704651 -3.61622,0.37704651 -4.59311,0 -7.28385,-2.67360245 -2.6736,-2.6736025 -2.6736,-7.2324375 0,-4.7130809 2.53649,-7.4723759 2.55363,-2.776434 6.87253,-2.776434 3.8733,0 6.11844,2.502218 2.26228,2.485079 2.26228,6.769699 z m -3.15348,-0.925478 q -0.0343,-2.58791 -1.45677,-4.130373 -1.40536,-1.542463 -3.73619,-1.542463 -2.63933,0 -4.23321,1.491047 -1.57674,1.491048 -1.81668,4.198927 z"
           id="path2959" />
        <path
           d="m 380.9053,-16.247277 q -0.53129,-0.308492 -1.16542,-0.4456 -0.61698,-0.154246 -1.37108,-0.154246 -2.6736,0 -4.11323,1.748124 -1.42249,1.730987 -1.42249,4.987297 V 0 h -3.17062 v -19.195095 h 3.17062 V -16.213 q 0.99403,-1.748124 2.58791,-2.58791 1.59387,-0.856924 3.87329,-0.856924 0.32563,0 0.71982,0.05142 0.39418,0.03428 0.87406,0.119969 z"
           id="path2961" />
        <path
           d="m 393.92588,-26.667471 v 2.622187 h -3.01637 q -1.69671,0 -2.36511,0.685539 -0.65127,0.685539 -0.65127,2.467941 v 1.696709 h 5.19296 v 2.450803 h -5.19296 V 0 h -3.17061 v -16.744292 h -3.01638 v -2.450803 h 3.01638 v -1.336801 q 0,-3.204895 1.49104,-4.661666 1.49105,-1.473909 4.73022,-1.473909 z"
           id="path2963" />
        <path
           d="m 405.28689,-9.6489628 q -3.82188,0 -5.29579,0.8740624 -1.47391,0.8740623 -1.47391,2.982095 0,1.6795708 1.09686,2.6736025 1.114,0.9768932 3.01637,0.9768932 2.62219,0 4.19893,-1.8509555 1.59388,-1.8680941 1.59388,-4.95302 v -0.7026776 z m 6.28982,-1.3025242 V 0 h -3.15348 v -2.9135412 q -1.07973,1.7481247 -2.69074,2.58791013 -1.61102,0.82264692 -3.94185,0.82264692 -2.94782,0 -4.69594,-1.64529385 -1.73099,-1.6624323 -1.73099,-4.4388656 0,-3.2391723 2.15945,-4.8844664 2.17658,-1.645294 6.47834,-1.645294 h 4.42173 v -0.308492 q 0,-2.176587 -1.43963,-3.359142 -1.4225,-1.199693 -4.01041,-1.199693 -1.64529,0 -3.20489,0.394185 -1.5596,0.394185 -2.99924,1.182555 v -2.913541 q 1.73099,-0.668401 3.35915,-0.994032 1.62815,-0.34277 3.17061,-0.34277 4.16465,0 6.22127,2.159449 2.05662,2.159448 2.05662,6.546898 z"
           id="path2965" />
        <path
           d="m 431.85794,-18.45814 v 2.947818 q -1.3368,-0.736955 -2.69074,-1.096863 -1.3368,-0.377046 -2.70788,-0.377046 -3.06779,0 -4.7645,1.953786 -1.6967,1.936648 -1.6967,5.4500361 0,3.5133879 1.6967,5.4671743 1.69671,1.936648 4.7645,1.936648 1.37108,0 2.70788,-0.3599081 1.35394,-0.3770465 2.69074,-1.114001 v 2.91354117 q -1.31966,0.61698519 -2.74215,0.92547778 -1.40536,0.3084926 -2.99924,0.3084926 -4.33603,0 -6.88967,-2.72501795 -2.55363,-2.7250179 -2.55363,-7.3524068 0,-4.6959431 2.57077,-7.3866841 2.58791,-2.690741 7.07819,-2.690741 1.45677,0 2.84499,0.308493 1.38822,0.291354 2.69074,0.891201 z"
           id="path2967" />
        <path
           d="m 453.73267,-10.385917 v 1.5424627 h -14.49915 q 0.20566,3.2563107 1.95379,4.9701584 1.76526,1.6967093 4.9016,1.6967093 1.81668,0 3.51339,-0.4456004 1.71385,-0.4456005 3.39342,-1.3368013 v 2.98209509 q -1.69671,0.71981605 -3.47911,1.09686255 -1.7824,0.37704651 -3.61622,0.37704651 -4.59311,0 -7.28385,-2.67360245 -2.67361,-2.6736025 -2.67361,-7.2324375 0,-4.7130809 2.5365,-7.4723759 2.55363,-2.776434 6.87253,-2.776434 3.87329,0 6.11844,2.502218 2.26227,2.485079 2.26227,6.769699 z m -3.15348,-0.925478 q -0.0343,-2.58791 -1.45677,-4.130373 -1.40535,-1.542463 -3.73618,-1.542463 -2.63933,0 -4.23321,1.491047 -1.57674,1.491048 -1.81668,4.198927 z"
           id="path2969" />
      </g>
    </g>
    <g
       id="g12">
      <g
         id="g14"
         clip-path="url(#clipPath18)">
        <g
           id="g22"
           transform="scale(1,-1)"
           stroke="#000000"
           style="stroke:#ffffff;stroke-opacity:1">
          <path
             d="M 18,-79.418 H 169.199 V -410.617 H 18 Z"
             stroke="#000000"
             style="fill:none;stroke:#ffffff;stroke-width:0.36;stroke-linecap:butt;stroke-linejoin:bevel;stroke-miterlimit:10;stroke-dasharray:none;stroke-opacity:1"
             id="path24" />
        </g>
        <g
           id="g30"
           transform="scale(1,-1)"
           stroke="#000000"
           style="stroke:#ffffff;stroke-opacity:1">
          <path
             d="m 176.398,-115.414 h 468"
             stroke="#000000"
             style="fill:none;stroke:#ffffff;stroke-width:0.72;stroke-linecap:square;stroke-linejoin:miter;stroke-miterlimit:10;stroke-dasharray:none;stroke-opacity:1"
             id="path32" />
        </g>
        <g
           id="g38"
           transform="scale(1,-1)"
           stroke="#000000"
           style="stroke:#ffffff;stroke-opacity:1">
          <path
             d="m 176.398,-173.016 h 468"
             stroke="#000000"
             style="fill:none;stroke:#ffffff;stroke-width:0.72;stroke-linecap:square;stroke-linejoin:miter;stroke-miterlimit:10;stroke-dasharray:none;stroke-opacity:1"
             id="path40" />
        </g>
        <g
           id="g46"
           transform="scale(1,-1)"
           stroke="#000000"
           style="stroke:#ffffff;stroke-opacity:1">
          <path
             d="m 118.801,-93.816 36,-21.598"
             stroke="#000000"
             style="fill:none;stroke:#ffffff;stroke-width:0.36;stroke-linecap:butt;stroke-linejoin:bevel;stroke-miterlimit:10;stroke-dasharray:none;stroke-opacity:1"
             id="path48" />
        </g>
        <g
           id="g50"
           transform="scale(1,-1)"
           stroke="#000000"
           style="stroke:#ffffff;stroke-opacity:1">
          <path
             d="m 154.801,-115.414 -36,-21.602"
             stroke="#000000"
             style="fill:none;stroke:#ffffff;stroke-width:0.36;stroke-linecap:butt;stroke-linejoin:bevel;stroke-miterlimit:10;stroke-dasharray:none;stroke-opacity:1"
             id="path52" />
        </g>
        <g
           id="g54"
           transform="scale(1,-1)"
           stroke="#000000"
           style="stroke:#ffffff;stroke-opacity:1">
          <path
             d="m 118.801,-93.816 v -21.598"
             stroke="#000000"
             style="fill:none;stroke:#ffffff;stroke-width:0.36;stroke-linecap:butt;stroke-linejoin:bevel;stroke-miterlimit:10;stroke-dasharray:none;stroke-opacity:1"
             id="path56" />
        </g>
        <g
           id="g58"
           transform="scale(1,-1)"
           stroke="#000000"
           style="stroke:#ffffff;stroke-opacity:1">
          <path
             d="m 118.801,-115.414 v -21.602"
             stroke="#000000"
             style="fill:none;stroke:#ffffff;stroke-width:0.36;stroke-linecap:butt;stroke-linejoin:bevel;stroke-miterlimit:10;stroke-dasharray:none;stroke-opacity:1"
             id="path60" />
        </g>
        <g
           id="g62"
           transform="scale(1,-1)"
           stroke="#000000"
           style="stroke:#ffffff;stroke-opacity:1">
          <path
             d="M 176.398,-115.414 H 154.801"
             stroke="#000000"
             style="fill:none;stroke:#ffffff;stroke-width:0.72;stroke-linecap:square;stroke-linejoin:miter;stroke-miterlimit:10;stroke-dasharray:none;stroke-opacity:1"
             id="path64" />
        </g>
        <g
           id="g66"
           transform="scale(1,-1)"
           stroke="#000000"
           style="stroke:#ffffff;stroke-opacity:1">
          <path
             d="M 118.801,-115.414 H 97.199"
             stroke="#000000"
             style="fill:none;stroke:#ffffff;stroke-width:0.72;stroke-linecap:square;stroke-linejoin:miter;stroke-miterlimit:10;stroke-dasharray:none;stroke-opacity:1"
             id="path68" />
        </g>
        <g
           id="g70"
           transform="scale(1,-1)"
           stroke="#000000"
           style="stroke:#ffffff;stroke-opacity:1">
          <path
             d="m 118.801,-151.414 36,-21.602"
             stroke="#000000"
             style="fill:none;stroke:#ffffff;stroke-width:0.36;stroke-linecap:butt;stroke-linejoin:bevel;stroke-miterlimit:10;stroke-dasharray:none;stroke-opacity:1"
             id="path72" />
        </g>
        <g
           id="g74"
           transform="scale(1,-1)"
           stroke="#000000"
           style="stroke:#ffffff;stroke-opacity:1">
          <path
             d="m 154.801,-173.016 -36,-21.601"
             stroke="#000000"
             style="fill:none;stroke:#ffffff;stroke-width:0.36;stroke-linecap:butt;stroke-linejoin:bevel;stroke-miterlimit:10;stroke-dasharray:none;stroke-opacity:1"
             id="path76" />
        </g>
        <g
           id="g78"
           transform="scale(1,-1)"
           stroke="#000000"
           style="stroke:#ffffff;stroke-opacity:1">
          <path
             d="m 118.801,-151.414 v -21.602"
             stroke="#000000"
             style="fill:none;stroke:#ffffff;stroke-width:0.36;stroke-linecap:butt;stroke-linejoin:bevel;stroke-miterlimit:10;stroke-dasharray:none;stroke-opacity:1"
             id="path80" />
        </g>
        <g
           id="g82"
           transform="scale(1,-1)"
           stroke="#000000"
           style="stroke:#ffffff;stroke-opacity:1">
          <path
             d="m 118.801,-173.016 v -21.601"
             stroke="#000000"
             style="fill:none;stroke:#ffffff;stroke-width:0.36;stroke-linecap:butt;stroke-linejoin:bevel;stroke-miterlimit:10;stroke-dasharray:none;stroke-opacity:1"
             id="path84" />
        </g>
        <g
           id="g86"
           transform="scale(1,-1)"
           stroke="#000000"
           style="stroke:#ffffff;stroke-opacity:1">
          <path
             d="M 176.398,-173.016 H 154.801"
             stroke="#000000"
             style="fill:none;stroke:#ffffff;stroke-width:0.72;stroke-linecap:square;stroke-linejoin:miter;stroke-miterlimit:10;stroke-dasharray:none;stroke-opacity:1"
             id="path88" />
        </g>
        <g
           id="g90"
           transform="scale(1,-1)"
           stroke="#000000"
           style="stroke:#ffffff;stroke-opacity:1">
          <path
             d="M 118.801,-173.016 H 97.199"
             stroke="#000000"
             style="fill:none;stroke:#ffffff;stroke-width:0.72;stroke-linecap:square;stroke-linejoin:miter;stroke-miterlimit:10;stroke-dasharray:none;stroke-opacity:1"
             id="path92" />
        </g>
        <g
           id="g94"
           transform="scale(1,-1)"
           stroke="#000000"
           style="stroke:#ffffff;stroke-opacity:1">
          <path
             d="m 176.398,-230.617 h 468"
             stroke="#000000"
             style="fill:none;stroke:#ffffff;stroke-width:0.72;stroke-linecap:square;stroke-linejoin:miter;stroke-miterlimit:10;stroke-dasharray:none;stroke-opacity:1"
             id="path96" />
        </g>
        <g
           id="g102"
           transform="scale(1,-1)"
           stroke="#000000"
           style="stroke:#ffffff;stroke-opacity:1">
          <path
             d="m 154.801,-209.016 -36,-21.601"
             stroke="#000000"
             style="fill:none;stroke:#ffffff;stroke-width:0.36;stroke-linecap:butt;stroke-linejoin:bevel;stroke-miterlimit:10;stroke-dasharray:none;stroke-opacity:1"
             id="path104" />
        </g>
        <g
           id="g106"
           transform="scale(1,-1)"
           stroke="#000000"
           style="stroke:#ffffff;stroke-opacity:1">
          <path
             d="m 118.801,-230.617 36,-21.598"
             stroke="#000000"
             style="fill:none;stroke:#ffffff;stroke-width:0.36;stroke-linecap:butt;stroke-linejoin:bevel;stroke-miterlimit:10;stroke-dasharray:none;stroke-opacity:1"
             id="path108" />
        </g>
        <g
           id="g110"
           transform="scale(1,-1)"
           stroke="#000000"
           style="stroke:#ffffff;stroke-opacity:1">
          <path
             d="m 154.801,-209.016 v -21.601"
             stroke="#000000"
             style="fill:none;stroke:#ffffff;stroke-width:0.36;stroke-linecap:butt;stroke-linejoin:bevel;stroke-miterlimit:10;stroke-dasharray:none;stroke-opacity:1"
             id="path112" />
        </g>
        <g
           id="g114"
           transform="scale(1,-1)"
           stroke="#000000"
           style="stroke:#ffffff;stroke-opacity:1">
          <path
             d="m 154.801,-230.617 v -21.598"
             stroke="#000000"
             style="fill:none;stroke:#ffffff;stroke-width:0.36;stroke-linecap:butt;stroke-linejoin:bevel;stroke-miterlimit:10;stroke-dasharray:none;stroke-opacity:1"
             id="path116" />
        </g>
        <g
           id="g118"
           transform="scale(1,-1)"
           stroke="#000000"
           style="stroke:#ffffff;stroke-opacity:1">
          <path
             d="m 97.199,-230.617 h 21.602"
             stroke="#000000"
             style="fill:none;stroke:#ffffff;stroke-width:0.72;stroke-linecap:square;stroke-linejoin:miter;stroke-miterlimit:10;stroke-dasharray:none;stroke-opacity:1"
             id="path120" />
        </g>
        <g
           id="g122"
           transform="scale(1,-1)"
           stroke="#000000"
           style="stroke:#ffffff;stroke-opacity:1">
          <path
             d="m 154.801,-230.617 h 21.597"
             stroke="#000000"
             style="fill:none;stroke:#ffffff;stroke-width:0.72;stroke-linecap:square;stroke-linejoin:miter;stroke-miterlimit:10;stroke-dasharray:none;stroke-opacity:1"
             id="path124" />
        </g>
        <g
           id="g126"
           transform="scale(1,-1)"
           stroke="#000000"
           style="stroke:#ffffff;stroke-opacity:1">
          <path
             d="m 118.801,-295.414 36,-21.602"
             stroke="#000000"
             style="fill:none;stroke:#ffffff;stroke-width:0.36;stroke-linecap:butt;stroke-linejoin:bevel;stroke-miterlimit:10;stroke-dasharray:none;stroke-opacity:1"
             id="path128" />
        </g>
        <g
           id="g130"
           transform="scale(1,-1)"
           stroke="#000000"
           style="stroke:#ffffff;stroke-opacity:1">
          <path
             d="m 154.801,-317.016 -36,-21.601"
             stroke="#000000"
             style="fill:none;stroke:#ffffff;stroke-width:0.36;stroke-linecap:butt;stroke-linejoin:bevel;stroke-miterlimit:10;stroke-dasharray:none;stroke-opacity:1"
             id="path132" />
        </g>
        <g
           id="g134"
           transform="scale(1,-1)"
           stroke="#000000"
           style="stroke:#ffffff;stroke-opacity:1">
          <path
             d="m 118.801,-295.414 v -21.602"
             stroke="#000000"
             style="fill:none;stroke:#ffffff;stroke-width:0.36;stroke-linecap:butt;stroke-linejoin:bevel;stroke-miterlimit:10;stroke-dasharray:none;stroke-opacity:1"
             id="path136" />
        </g>
        <g
           id="g138"
           transform="scale(1,-1)"
           stroke="#000000"
           style="stroke:#ffffff;stroke-opacity:1">
          <path
             d="m 118.801,-317.016 v -21.601"
             stroke="#000000"
             style="fill:none;stroke:#ffffff;stroke-width:0.36;stroke-linecap:butt;stroke-linejoin:bevel;stroke-miterlimit:10;stroke-dasharray:none;stroke-opacity:1"
             id="path140" />
        </g>
        <g
           id="g142"
           transform="scale(1,-1)"
           stroke="#000000"
           style="stroke:#ffffff;stroke-opacity:1">
          <path
             d="M 176.398,-317.016 H 154.801"
             stroke="#000000"
             style="fill:none;stroke:#ffffff;stroke-width:0.72;stroke-linecap:square;stroke-linejoin:miter;stroke-miterlimit:10;stroke-dasharray:none;stroke-opacity:1"
             id="path144" />
        </g>
        <g
           id="g146"
           transform="scale(1,-1)"
           stroke="#000000"
           style="stroke:#ffffff;stroke-opacity:1">
          <path
             d="M 118.801,-317.016 H 97.199"
             stroke="#000000"
             style="fill:none;stroke:#ffffff;stroke-width:0.72;stroke-linecap:square;stroke-linejoin:miter;stroke-miterlimit:10;stroke-dasharray:none;stroke-opacity:1"
             id="path148" />
        </g>
        <g
           id="g150"
           transform="scale(1,-1)"
           stroke="#000000"
           style="stroke:#ffffff;stroke-opacity:1">
          <path
             d="m 176.398,-317.016 h 144"
             stroke="#000000"
             style="fill:none;stroke:#ffffff;stroke-width:0.72;stroke-linecap:square;stroke-linejoin:miter;stroke-miterlimit:10;stroke-dasharray:none;stroke-opacity:1"
             id="path152" />
        </g>
        <g
           id="g158"
           transform="scale(1,-1)"
           stroke="#000000"
           style="stroke:#ffffff;stroke-opacity:1">
          <path
             d="m 176.398,-374.617 h 324"
             stroke="#000000"
             style="fill:none;stroke:#ffffff;stroke-width:0.72;stroke-linecap:square;stroke-linejoin:miter;stroke-miterlimit:10;stroke-dasharray:none;stroke-opacity:1"
             id="path160" />
        </g>
        <g
           id="g166"
           transform="scale(1,-1)"
           stroke="#000000"
           style="stroke:#ffffff;stroke-opacity:1">
          <path
             d="m 118.801,-353.016 36,-21.601"
             stroke="#000000"
             style="fill:none;stroke:#ffffff;stroke-width:0.36;stroke-linecap:butt;stroke-linejoin:bevel;stroke-miterlimit:10;stroke-dasharray:none;stroke-opacity:1"
             id="path168" />
        </g>
        <g
           id="g170"
           transform="scale(1,-1)"
           stroke="#000000"
           style="stroke:#ffffff;stroke-opacity:1">
          <path
             d="m 154.801,-374.617 -36,-21.598"
             stroke="#000000"
             style="fill:none;stroke:#ffffff;stroke-width:0.36;stroke-linecap:butt;stroke-linejoin:bevel;stroke-miterlimit:10;stroke-dasharray:none;stroke-opacity:1"
             id="path172" />
        </g>
        <g
           id="g174"
           transform="scale(1,-1)"
           stroke="#000000"
           style="stroke:#ffffff;stroke-opacity:1">
          <path
             d="m 118.801,-353.016 v -21.601"
             stroke="#000000"
             style="fill:none;stroke:#ffffff;stroke-width:0.36;stroke-linecap:butt;stroke-linejoin:bevel;stroke-miterlimit:10;stroke-dasharray:none;stroke-opacity:1"
             id="path176" />
        </g>
        <g
           id="g178"
           transform="scale(1,-1)"
           stroke="#000000"
           style="stroke:#ffffff;stroke-opacity:1">
          <path
             d="m 118.801,-374.617 v -21.598"
             stroke="#000000"
             style="fill:none;stroke:#ffffff;stroke-width:0.36;stroke-linecap:butt;stroke-linejoin:bevel;stroke-miterlimit:10;stroke-dasharray:none;stroke-opacity:1"
             id="path180" />
        </g>
        <g
           id="g182"
           transform="scale(1,-1)"
           stroke="#000000"
           style="stroke:#ffffff;stroke-opacity:1">
          <path
             d="M 176.398,-374.617 H 154.801"
             stroke="#000000"
             style="fill:none;stroke:#ffffff;stroke-width:0.72;stroke-linecap:square;stroke-linejoin:miter;stroke-miterlimit:10;stroke-dasharray:none;stroke-opacity:1"
             id="path184" />
        </g>
        <g
           id="g186"
           transform="scale(1,-1)"
           stroke="#000000"
           style="stroke:#ffffff;stroke-opacity:1">
          <path
             d="M 118.801,-374.617 H 97.199"
             stroke="#000000"
             style="fill:none;stroke:#ffffff;stroke-width:0.72;stroke-linecap:square;stroke-linejoin:miter;stroke-miterlimit:10;stroke-dasharray:none;stroke-opacity:1"
             id="path188" />
        </g>
        <g
           id="g190"
           transform="scale(1,-1)"
           stroke="#000000"
           style="stroke:#ffffff;stroke-opacity:1">
          <path
             d="M 298.797,-439.418 H 428.399 V -561.816 H 298.797 Z"
             stroke="#000000"
             style="fill:none;stroke:#ffffff;stroke-width:0.36;stroke-linecap:butt;stroke-linejoin:bevel;stroke-miterlimit:10;stroke-dasharray:none;stroke-opacity:1"
             id="path192" />
        </g>
        <g
           id="g198"
           transform="scale(1,-1)"
           stroke="#000000"
           style="stroke:#ffffff;stroke-opacity:1">
          <path
             d="m 320.398,-317.016 v -136.8"
             stroke="#000000"
             style="fill:none;stroke:#ffffff;stroke-width:0.72;stroke-linecap:square;stroke-linejoin:miter;stroke-miterlimit:10;stroke-dasharray:none;stroke-opacity:1"
             id="path200" />
        </g>
        <g
           id="g202"
           transform="scale(1,-1)"
           stroke="#000000"
           style="stroke:#ffffff;stroke-opacity:1">
          <path
             d="M 349.199,-230.617 V -453.816"
             stroke="#000000"
             style="fill:none;stroke:#ffffff;stroke-width:0.72;stroke-linecap:square;stroke-linejoin:miter;stroke-miterlimit:10;stroke-dasharray:none;stroke-opacity:1"
             id="path204" />
        </g>
        <g
           id="g206"
           transform="scale(1,-1)"
           stroke="#000000"
           style="stroke:#ffffff;stroke-opacity:1">
          <path
             d="m 378,-173.016 v -280.8"
             stroke="#000000"
             style="fill:none;stroke:#ffffff;stroke-width:0.72;stroke-linecap:square;stroke-linejoin:miter;stroke-miterlimit:10;stroke-dasharray:none;stroke-opacity:1"
             id="path208" />
        </g>
        <g
           id="g210"
           transform="scale(1,-1)"
           stroke="#000000"
           style="stroke:#ffffff;stroke-opacity:1">
          <path
             d="M 406.801,-115.414 V -453.816"
             stroke="#000000"
             style="fill:none;stroke:#ffffff;stroke-width:0.72;stroke-linecap:square;stroke-linejoin:miter;stroke-miterlimit:10;stroke-dasharray:none;stroke-opacity:1"
             id="path212" />
        </g>
        <g
           id="g214"
           transform="scale(1,-1)"
           stroke="#000000"
           style="stroke:#ffffff;stroke-opacity:1">
          <path
             d="M 478.797,-439.418 H 608.399 V -561.816 H 478.797 Z"
             stroke="#000000"
             style="fill:none;stroke:#ffffff;stroke-width:0.36;stroke-linecap:butt;stroke-linejoin:bevel;stroke-miterlimit:10;stroke-dasharray:none;stroke-opacity:1"
             id="path216" />
        </g>
        <g
           id="g218"
           transform="scale(1,-1)"
           stroke="#000000"
           style="stroke:#ffffff;stroke-opacity:1">
          <path
             d="m 500.398,-374.617 v -79.199"
             stroke="#000000"
             style="fill:none;stroke:#ffffff;stroke-width:0.72;stroke-linecap:square;stroke-linejoin:miter;stroke-miterlimit:10;stroke-dasharray:none;stroke-opacity:1"
             id="path220" />
        </g>
        <g
           id="g222"
           transform="scale(1,-1)"
           stroke="#000000"
           style="stroke:#ffffff;stroke-opacity:1">
          <path
             d="M 529.199,-230.617 V -453.816"
             stroke="#000000"
             style="fill:none;stroke:#ffffff;stroke-width:0.72;stroke-linecap:square;stroke-linejoin:miter;stroke-miterlimit:10;stroke-dasharray:none;stroke-opacity:1"
             id="path224" />
        </g>
        <g
           id="g226"
           transform="scale(1,-1)"
           stroke="#000000"
           style="stroke:#ffffff;stroke-opacity:1">
          <path
             d="m 558,-173.016 v -280.8"
             stroke="#000000"
             style="fill:none;stroke:#ffffff;stroke-width:0.72;stroke-linecap:square;stroke-linejoin:miter;stroke-miterlimit:10;stroke-dasharray:none;stroke-opacity:1"
             id="path228" />
        </g>
        <g
           id="g230"
           transform="scale(1,-1)"
           stroke="#000000"
           style="stroke:#ffffff;stroke-opacity:1">
          <path
             d="M 586.801,-115.414 V -453.816"
             stroke="#000000"
             style="fill:none;stroke:#ffffff;stroke-width:0.72;stroke-linecap:square;stroke-linejoin:miter;stroke-miterlimit:10;stroke-dasharray:none;stroke-opacity:1"
             id="path232" />
        </g>
        <path
           d="m 408.602,115.414 c 0,-2.398 -3.602,-2.398 -3.602,0 0,2.402 3.602,2.402 3.602,0"
           stroke="#000000"
           style="fill:#ffffff;fill-opacity:1;fill-rule:nonzero;stroke:#ffffff;stroke-opacity:1"
           id="path246" />
        <path
           d="m 588.602,115.414 c 0,-2.398 -3.602,-2.398 -3.602,0 0,2.402 3.602,2.402 3.602,0"
           stroke="#000000"
           style="fill:#ffffff;fill-opacity:1;fill-rule:nonzero;stroke:#ffffff;stroke-opacity:1"
           id="path248" />
        <path
           d="m 379.801,173.016 c 0,-2.399 -3.602,-2.399 -3.602,0 0,2.398 3.602,2.398 3.602,0"
           stroke="#000000"
           style="fill:#ffffff;fill-opacity:1;fill-rule:nonzero;stroke:#ffffff;stroke-opacity:1"
           id="path252" />
        <path
           d="m 559.801,173.016 c 0,-2.399 -3.602,-2.399 -3.602,0 0,2.398 3.602,2.398 3.602,0"
           stroke="#000000"
           style="fill:#ffffff;fill-opacity:1;fill-rule:nonzero;stroke:#ffffff;stroke-opacity:1"
           id="path254" />
        <path
           d="m 351,230.617 c 0,-2.402 -3.602,-2.402 -3.602,0 0,2.399 3.602,2.399 3.602,0"
           stroke="#000000"
           style="fill:#ffffff;fill-opacity:1;fill-rule:nonzero;stroke:#ffffff;stroke-opacity:1"
           id="path262" />
        <path
           d="m 531,230.617 c 0,-2.402 -3.602,-2.402 -3.602,0 0,2.399 3.602,2.399 3.602,0"
           stroke="#000000"
           style="fill:#ffffff;fill-opacity:1;fill-rule:nonzero;stroke:#ffffff;stroke-opacity:1"
           id="path264" />
        <path
           d="m 351,230.617 c 0,-2.402 -3.602,-2.402 -3.602,0 0,2.399 3.602,2.399 3.602,0"
           stroke="#000000"
           style="fill:#ffffff;fill-opacity:1;fill-rule:nonzero;stroke:#ffffff;stroke-opacity:1"
           id="path276" />
        <path
           d="m 351,230.617 c 0,-2.402 -3.602,-2.402 -3.602,0 0,2.399 3.602,2.399 3.602,0"
           stroke="#000000"
           style="fill:#ffffff;fill-opacity:1;fill-rule:nonzero;stroke:#ffffff;stroke-opacity:1"
           id="path278" />
        <path
           d="m 379.801,173.016 c 0,-2.399 -3.602,-2.399 -3.602,0 0,2.398 3.602,2.398 3.602,0"
           stroke="#000000"
           style="fill:#ffffff;fill-opacity:1;fill-rule:nonzero;stroke:#ffffff;stroke-opacity:1"
           id="path282" />
        <path
           d="m 379.801,173.016 c 0,-2.399 -3.602,-2.399 -3.602,0 0,2.398 3.602,2.398 3.602,0"
           stroke="#000000"
           style="fill:#ffffff;fill-opacity:1;fill-rule:nonzero;stroke:#ffffff;stroke-opacity:1"
           id="path284" />
        <path
           d="m 408.602,115.414 c 0,-2.398 -3.602,-2.398 -3.602,0 0,2.402 3.602,2.402 3.602,0"
           stroke="#000000"
           style="fill:#ffffff;fill-opacity:1;fill-rule:nonzero;stroke:#ffffff;stroke-opacity:1"
           id="path288" />
        <path
           d="m 408.602,115.414 c 0,-2.398 -3.602,-2.398 -3.602,0 0,2.402 3.602,2.402 3.602,0"
           stroke="#000000"
           style="fill:#ffffff;fill-opacity:1;fill-rule:nonzero;stroke:#ffffff;stroke-opacity:1"
           id="path290" />
        <path
           d="m 531,230.617 c 0,-2.402 -3.602,-2.402 -3.602,0 0,2.399 3.602,2.399 3.602,0"
           stroke="#000000"
           style="fill:#ffffff;fill-opacity:1;fill-rule:nonzero;stroke:#ffffff;stroke-opacity:1"
           id="path296" />
        <path
           d="m 531,230.617 c 0,-2.402 -3.602,-2.402 -3.602,0 0,2.399 3.602,2.399 3.602,0"
           stroke="#000000"
           style="fill:#ffffff;fill-opacity:1;fill-rule:nonzero;stroke:#ffffff;stroke-opacity:1"
           id="path298" />
        <path
           d="m 559.801,173.016 c 0,-2.399 -3.602,-2.399 -3.602,0 0,2.398 3.602,2.398 3.602,0"
           stroke="#000000"
           style="fill:#ffffff;fill-opacity:1;fill-rule:nonzero;stroke:#ffffff;stroke-opacity:1"
           id="path302" />
        <path
           d="m 559.801,173.016 c 0,-2.399 -3.602,-2.399 -3.602,0 0,2.398 3.602,2.398 3.602,0"
           stroke="#000000"
           style="fill:#ffffff;fill-opacity:1;fill-rule:nonzero;stroke:#ffffff;stroke-opacity:1"
           id="path304" />
        <path
           d="m 588.602,115.414 c 0,-2.398 -3.602,-2.398 -3.602,0 0,2.402 3.602,2.402 3.602,0"
           stroke="#000000"
           style="fill:#ffffff;fill-opacity:1;fill-rule:nonzero;stroke:#ffffff;stroke-opacity:1"
           id="path308" />
        <path
           d="m 588.602,115.414 c 0,-2.398 -3.602,-2.398 -3.602,0 0,2.402 3.602,2.402 3.602,0"
           stroke="#000000"
           style="fill:#ffffff;fill-opacity:1;fill-rule:nonzero;stroke:#ffffff;stroke-opacity:1"
           id="path310" />
      </g>
    </g>
    <g
       id="g2461"
       stroke="#000000"
       style="display:inline"
       inkscape:label="txt">
      <text
         xml:space="preserve"
         transform="translate(44.171875,72.214844)"
         stroke="#000000"
         style="font-variant:normal;font-weight:normal;font-size:26px;font-family:'DejaVu Sans';-inkscape-font-specification:DejaVuSans;writing-mode:lr-tb;fill:#000000;fill-opacity:1;fill-rule:nonzero;stroke:none"
         id="text2423"><tspan
           x="0 25.324015 41.236027 54.756035 64.948036 80.938049"
           y="0"
           id="tspan2421">master</tspan></text>
      <text
         xml:space="preserve"
         transform="translate(183.60156,111.81641)"
         stroke="#000000"
         style="font-variant:normal;font-weight:normal;font-size:13px;font-family:'DejaVu Sans';-inkscape-font-specification:DejaVuSans;writing-mode:lr-tb;fill:#000000;fill-opacity:1;fill-rule:nonzero;stroke:none"
         id="text2427"><tspan
           x="0 8.2420053 17.316011 24.609015"
           y="0"
           id="tspan2425">SCLK</tspan></text>
      <text
         xml:space="preserve"
         transform="translate(183.60156,169.41406)"
         stroke="#000000"
         style="font-variant:normal;font-weight:normal;font-size:13px;font-family:'DejaVu Sans';-inkscape-font-specification:DejaVuSans;writing-mode:lr-tb;fill:#000000;fill-opacity:1;fill-rule:nonzero;stroke:none"
         id="text2431"><tspan
           x="0 11.206007 21.437014 29.718018"
           y="0"
           id="tspan2429">MOSI</tspan></text>
      <text
         xml:space="preserve"
         transform="translate(183.60156,227.01562)"
         stroke="#000000"
         style="font-variant:normal;font-weight:normal;font-size:13px;font-family:'DejaVu Sans';-inkscape-font-specification:DejaVuSans;writing-mode:lr-tb;fill:#000000;fill-opacity:1;fill-rule:nonzero;stroke:none"
         id="text2435"><tspan
           x="0 11.206007 15.028009 23.270014"
           y="0"
           id="tspan2433">MISO</tspan></text>
      <text
         xml:space="preserve"
         transform="translate(183.60156,313.41406)"
         stroke="#000000"
         style="font-variant:normal;font-weight:normal;font-size:13px;font-family:'DejaVu Sans';-inkscape-font-specification:DejaVuSans;writing-mode:lr-tb;fill:#000000;fill-opacity:1;fill-rule:nonzero;stroke:none"
         id="text2439"><tspan
           x="0 9.0740051 17.316011 28.197018"
           y="0"
           id="tspan2437">CS#1</tspan></text>
      <text
         xml:space="preserve"
         transform="translate(183.60156,371.01562)"
         stroke="#000000"
         style="font-variant:normal;font-weight:normal;font-size:13px;font-family:'DejaVu Sans';-inkscape-font-specification:DejaVuSans;writing-mode:lr-tb;fill:#000000;fill-opacity:1;fill-rule:nonzero;stroke:none"
         id="text2443"><tspan
           x="0 9.0740051 17.316011 28.197018"
           y="0"
           id="tspan2441">CS#2</tspan></text>
      <text
         xml:space="preserve"
         transform="translate(306.25391,511.41406)"
         stroke="#000000"
         style="font-variant:normal;font-weight:normal;font-size:26px;font-family:'DejaVu Sans';-inkscape-font-specification:DejaVuSans;writing-mode:lr-tb;fill:#000000;fill-opacity:1;fill-rule:nonzero;stroke:none"
         id="text2447"><tspan
           x="0 13.520008 20.722013 36.634022 52.000031 67.990044 76.232048 97.994057"
           y="0"
           id="tspan2445">slave #1</tspan></text>
      <text
         xml:space="preserve"
         transform="translate(486.25391,511.41406)"
         stroke="#000000"
         style="font-variant:normal;font-weight:normal;font-size:26px;font-family:'DejaVu Sans';-inkscape-font-specification:DejaVuSans;writing-mode:lr-tb;fill:#000000;fill-opacity:1;fill-rule:nonzero;stroke:none"
         id="text2451"><tspan
           x="0 13.520008 20.722013 36.634022 52.000031 67.990044 76.232048 97.994057"
           y="0"
           id="tspan2449">slave #2</tspan></text>
      <text
         xml:space="preserve"
         transform="translate(680.39844,504.21484)"
         stroke="#000000"
         style="font-variant:normal;font-weight:normal;font-size:52px;font-family:'DejaVu Sans';-inkscape-font-specification:DejaVuSans;writing-mode:lr-tb;fill:#000000;fill-opacity:1;fill-rule:nonzero;stroke:none"
         id="text2455"><tspan
           x="0 16.484011 32.968021"
           y="0"
           id="tspan2453">...</tspan></text>
      <text
         xml:space="preserve"
         transform="translate(255.60156,50.617187)"
         stroke="#000000"
         style="font-variant:normal;font-weight:normal;font-size:35.0996px;font-family:'DejaVu Sans';-inkscape-font-specification:DejaVuSans;writing-mode:lr-tb;fill:#000000;fill-opacity:1;fill-rule:nonzero;stroke:none"
         id="text2459"><tspan
           x="0 22.253132 43.839375 58.265301 67.882584 89.363525 99.086105 110.21268 130.14923 151.73547 166.16141 175.88399 198.13712 220.35515 241.94139 256.26202 277.74295 287.46555 298.5921 308.91138 331.12943 344.88846 366.4747 380.90063 393.25568 414.7366 434.00629"
           y="0"
           id="tspan2457">Serial Peripheral Interface</tspan></text>
    </g>
  </g>
</svg>
