<?xml version="1.0" encoding="UTF-8" standalone="no"?>
<!--
SPDX-FileCopyrightText: Cosmin Negoita (https://www.svgrepo.com/author/Cosmin%20Negoita/)
SPDX-FileCopyrightText: Robert Ryszard Paciorek <rrp@opcode.eu.org>

SPDX-License-Identifier: CC-BY-4.0

Based-On: https://www.svgrepo.com/svg/408865/folder (https://github.com/stephenhutchings/microns) UNDER CC-BY-4.0 BY Cosmin Negoita
-->

<svg
   fill="#000000"
   version="1.1"
   id="Layer_1"
   width="48"
   height="32"
   viewBox="0 0 48 32"
   enable-background="new 0 0 24 24"
   xml:space="preserve"
   sodipodi:docname="import.svg"
   inkscape:version="1.2.2 (b0a8486541, 2022-12-01)"
   xmlns:inkscape="http://www.inkscape.org/namespaces/inkscape"
   xmlns:sodipodi="http://sodipodi.sourceforge.net/DTD/sodipodi-0.dtd"
   xmlns="http://www.w3.org/2000/svg"
   xmlns:svg="http://www.w3.org/2000/svg"
   xmlns:ns="&amp;#38;ns_sfw;"><defs
   id="defs21" /><sodipodi:namedview
   id="namedview19"
   pagecolor="#8b8b8b"
   bordercolor="#666666"
   borderopacity="1.0"
   inkscape:showpageshadow="2"
   inkscape:pageopacity="0"
   inkscape:pagecheckerboard="0"
   inkscape:deskcolor="#d1d1d1"
   showgrid="false"
   inkscape:zoom="6.675088"
   inkscape:cx="20.299358"
   inkscape:cy="33.857232"
   inkscape:window-width="1920"
   inkscape:window-height="1003"
   inkscape:window-x="0"
   inkscape:window-y="0"
   inkscape:window-maximized="1"
   inkscape:current-layer="Layer_1" />
<metadata
   id="metadata2">
	<ns:sfw>
		<ns:slices>

</ns:slices>
		<ns:sliceSourceBounds
   width="505"
   height="984"
   bottomLeftOrigin="true"
   x="0"
   y="-984">

</ns:sliceSourceBounds>
	</ns:sfw>
</metadata>
<g
   id="g16"
   style="fill:#ffffff;fill-opacity:1;stroke-width:0.696297"
   transform="matrix(1.4361669,0,0,1.4361669,6.7659972,-1.2340028)">
	<g
   id="g8"
   style="fill:#ffffff;fill-opacity:1;stroke-width:0.696297">
		<g
   id="g6"
   style="fill:#ffffff;fill-opacity:1;stroke-width:0.696297">
			<path
   d="M 20,22 H 1 C 0.4,22 0,21.6 0,21 V 3 C 0,2.4 0.4,2 1,2 h 7 c 0.6,0 1,0.4 1,1 v 1 h 11 c 0.6,0 1,0.4 1,1 v 4 c 0,0.6 -0.4,1 -1,1 -0.6,0 -1,-0.4 -1,-1 V 6 H 8 C 7.4,6 7,5.6 7,5 V 4 H 2 v 16 h 18 c 0.6,0 1,0.4 1,1 0,0.6 -0.4,1 -1,1 z"
   id="path4"
   fill="#000000"
   style="fill:#ffffff;fill-opacity:1;stroke-width:0.696297" />
		</g>
	</g>
	<g
   id="g14"
   style="fill:#ffffff;fill-opacity:1;stroke-width:0.696297">
		<g
   id="g12"
   style="fill:#ffffff;fill-opacity:1;stroke-width:0.696297">
			<path
   d="M 20,22 H 1 C 0.7,22 0.4,21.9 0.2,21.6 0,21.3 0,21.1 0,20.8 L 3,8.8 C 3.1,8.3 3.5,8 4,8 h 19 c 0.3,0 0.6,0.1 0.8,0.4 C 24,8.7 24,8.9 24,9.2 l -3,12 C 20.9,21.7 20.5,22 20,22 Z M 2.3,20 H 19.2 L 21.7,10 H 4.8 Z"
   id="path10"
   fill="#000000"
   style="fill:#ffffff;fill-opacity:1;stroke-width:0.696297" />
		</g>
	</g>
</g>
</svg>
