<?xml version="1.0" encoding="UTF-8" standalone="no"?>
<!--
SPDX-FileCopyrightText: Cosmin Negoita (https://www.svgrepo.com/author/Cosmin%20Negoita/)
SPDX-FileCopyrightText: Robert Ryszard Paciorek <rrp@opcode.eu.org>

SPDX-License-Identifier: CC-BY-4.0

Based-On: https://www.svgrepo.com/svg/408998/undo (https://github.com/stephenhutchings/microns) UNDER CC-BY-4.0 BY Cosmin Negoita
-->

<svg
   fill="#000000"
   version="1.1"
   id="Layer_1"
   width="48"
   height="32"
   viewBox="0 0 48 32"
   sodipodi:docname="redo.svg"
   inkscape:version="1.2.2 (b0a8486541, 2022-12-01)"
   xmlns:inkscape="http://www.inkscape.org/namespaces/inkscape"
   xmlns:sodipodi="http://sodipodi.sourceforge.net/DTD/sodipodi-0.dtd"
   xmlns="http://www.w3.org/2000/svg"
   xmlns:svg="http://www.w3.org/2000/svg"
   xmlns:ns1="&amp;#38;#38;#38;#38;ns_sfw;"><defs
   id="defs21" />
   <sodipodi:namedview
   id="namedview19"
   pagecolor="#8b8b8b"
   bordercolor="#666666"
   borderopacity="1.0"
   inkscape:showpageshadow="2"
   inkscape:pageopacity="0"
   inkscape:pagecheckerboard="0"
   inkscape:deskcolor="#d1d1d1"
   showgrid="false"
   inkscape:zoom="4.72"
   inkscape:cx="-47.775424"
   inkscape:cy="-6.5677966"
   inkscape:window-width="1920"
   inkscape:window-height="1003"
   inkscape:window-x="0"
   inkscape:window-y="0"
   inkscape:window-maximized="1"
   inkscape:current-layer="Layer_1" />
<metadata
   id="metadata2">
	<ns1:sfw>
		<ns1:slices>

</ns1:slices>
		<ns1:sliceSourceBounds
   width="505"
   height="984"
   bottomLeftOrigin="true"
   x="0"
   y="-552">

</ns1:sliceSourceBounds>
	</ns1:sfw>
</metadata>
<g
   id="g16"
   transform="matrix(-1.7853751,0,0,1.6950265,45.306625,-4.1807598)"
   style="stroke-width:0.574839;fill:#ffffff;fill-opacity:1">
	<g
   id="g8"
   style="stroke-width:0.574839;fill:#ffffff;fill-opacity:1">
		<g
   id="g6"
   style="stroke-width:0.574839;fill:#ffffff;fill-opacity:1">
			<path
   d="M 10,21 C 9.8,21 9.5,20.9 9.3,20.7 l -9,-8 C 0.1,12.6 0,12.3 0,12 0,11.7 0.1,11.4 0.3,11.3 l 9,-8 C 9.6,3 10,3 10.4,3.1 10.8,3.2 11,3.6 11,4 v 5 c 0,0.6 -0.4,1 -1,1 C 9.4,10 9,9.6 9,9 V 6.2 L 2.5,12 9,17.8 V 15 c 0,-0.6 0.4,-1 1,-1 0.6,0 1,0.4 1,1 v 5 c 0,0.4 -0.2,0.8 -0.6,0.9 C 10.3,21 10.1,21 10,21 Z"
   id="path4"
   fill="#000000"
   style="stroke-width:0.574839;fill:#ffffff;fill-opacity:1" />
		</g>
	</g>
	<g
   id="g14"
   style="stroke-width:0.574839;fill:#ffffff;fill-opacity:1">
		<g
   id="g12"
   style="stroke-width:0.574839;fill:#ffffff;fill-opacity:1">
			<path
   d="m 23,21 c -0.4,0 -0.8,-0.2 -0.9,-0.6 0,0 -2,-4.4 -12.1,-4.4 -0.6,0 -1,-0.4 -1,-1 0,-0.6 0.4,-1 1,-1 6.1,0 9.6,1.5 11.6,2.9 C 19.5,10.1 10.4,10 10,10 9.4,10 9,9.6 9,9 9,8.4 9.4,8 10,8 c 0.1,0 14,0.1 14,12 0,0.5 -0.3,0.9 -0.8,1 -0.1,0 -0.1,0 -0.2,0 z"
   id="path10"
   fill="#000000"
   style="stroke-width:0.574839;fill:#ffffff;fill-opacity:1" />
		</g>
	</g>
</g>
</svg>
