<?xml version="1.0" encoding="UTF-8" standalone="no"?>
<!--
SPDX-FileCopyrightText: Robert Ryszard Paciorek <rrp@opcode.eu.org>
SPDX-License-Identifier: MIT
-->

<svg
   version="1.1"
   id="svg2"
   width="333.31201"
   height="368.16"
   viewBox="0 0 333.31201 368.16"
   sodipodi:docname="opamp.svg"
   inkscape:version="1.2.2 (b0a8486541, 2022-12-01)"
   xmlns:inkscape="http://www.inkscape.org/namespaces/inkscape"
   xmlns:sodipodi="http://sodipodi.sourceforge.net/DTD/sodipodi-0.dtd"
   xmlns="http://www.w3.org/2000/svg"
   xmlns:svg="http://www.w3.org/2000/svg">
  <sodipodi:namedview
     id="namedview109"
     pagecolor="#afafaf"
     bordercolor="#666666"
     borderopacity="1.0"
     inkscape:showpageshadow="2"
     inkscape:pageopacity="0.0"
     inkscape:pagecheckerboard="0"
     inkscape:deskcolor="#d1d1d1"
     showgrid="false"
     inkscape:zoom="1.2820513"
     inkscape:cx="103.35"
     inkscape:cy="216.06001"
     inkscape:window-width="1920"
     inkscape:window-height="1003"
     inkscape:window-x="0"
     inkscape:window-y="0"
     inkscape:window-maximized="1"
     inkscape:current-layer="g8" />
  <defs
     id="defs6">
    <clipPath
       clipPathUnits="userSpaceOnUse"
       id="clipPath18">
      <path
         d="M 0,0 H 249 V 276 H 0 Z"
         id="path16" />
    </clipPath>
  </defs>
  <g
     id="g8"
     transform="matrix(1.3333333,0,0,1.3333333,0,9.204e-6)">
    <g
       id="g10"
       stroke="#000000"
       style="display:inline">
      <g
         aria-label="R1"
         transform="translate(189.64844,228.06641)"
         id="text36"
         style="font-size:13px;font-family:'DejaVu Sans';-inkscape-font-specification:DejaVuSans;fill:#f9f9f9;stroke:none">
        <path
           d="m 5.7700195,-4.4433594 q 0.4125977,0.1396485 0.7998047,0.5966797 0.3935547,0.4570313 0.7871094,1.2568359 L 8.6582031,0 H 7.2807617 L 6.0683594,-2.4311523 Q 5.5986328,-3.3833008 5.1542969,-3.6943359 4.7163086,-4.0053711 3.9545898,-4.0053711 H 2.5581055 V 0 H 1.2758789 v -9.4770508 h 2.8945313 q 1.625,0 2.4248046,0.6791992 0.7998047,0.6791993 0.7998047,2.050293 0,0.8950195 -0.4189453,1.4853516 -0.4125976,0.590332 -1.2060547,0.8188476 z m -3.211914,-3.9799804 v 3.3642578 h 1.6123047 q 0.9267578,0 1.3964843,-0.425293 0.4760742,-0.4316406 0.4760742,-1.2631836 0,-0.831543 -0.4760742,-1.2504883 Q 5.097168,-8.4233398 4.1704102,-8.4233398 Z"
           id="path889" />
        <path
           d="m 10.59531,-1.0791016 h 2.094727 V -8.309082 l -2.278809,0.4570312 v -1.1679687 l 2.266113,-0.4570313 h 1.282227 v 8.3979492 h 2.094727 V 0 H 10.59531 Z"
           id="path891" />
      </g>
      <g
         aria-label="R2"
         transform="translate(189.64844,148.86719)"
         id="text52"
         style="font-size:13px;font-family:'DejaVu Sans';-inkscape-font-specification:DejaVuSans;fill:#f9f9f9;stroke:none">
        <path
           d="m 5.7700195,-4.4433594 q 0.4125977,0.1396485 0.7998047,0.5966797 0.3935547,0.4570313 0.7871094,1.2568359 L 8.6582031,0 H 7.2807617 L 6.0683594,-2.4311523 Q 5.5986328,-3.3833008 5.1542969,-3.6943359 4.7163086,-4.0053711 3.9545898,-4.0053711 H 2.5581055 V 0 H 1.2758789 v -9.4770508 h 2.8945313 q 1.625,0 2.4248046,0.6791992 0.7998047,0.6791993 0.7998047,2.050293 0,0.8950195 -0.4189453,1.4853516 -0.4125976,0.590332 -1.2060547,0.8188476 z m -3.211914,-3.9799804 v 3.3642578 h 1.6123047 q 0.9267578,0 1.3964843,-0.425293 0.4760742,-0.4316406 0.4760742,-1.2631836 0,-0.831543 -0.4760742,-1.2504883 Q 5.097168,-8.4233398 4.1704102,-8.4233398 Z"
           id="path894" />
        <path
           d="m 11.477634,-1.0791016 h 4.475098 V 0 H 9.935154 v -1.0791016 q 0.72998,-0.7553711 1.986816,-2.0249023 1.263184,-1.2758789 1.586914,-1.644043 0.615723,-0.6918945 0.856934,-1.1679687 0.247559,-0.4824219 0.247559,-0.9458008 0,-0.7553711 -0.533204,-1.2314453 -0.526855,-0.4760742 -1.377441,-0.4760742 -0.603027,0 -1.275879,0.2094726 -0.666504,0.2094727 -1.4282225,0.6347656 v -1.2949218 q 0.7744145,-0.3110352 1.4472655,-0.4697266 0.672852,-0.1586914 1.231445,-0.1586914 1.472657,0 2.348633,0.7363281 0.875977,0.7363281 0.875977,1.9677735 0,0.5839843 -0.222168,1.1108398 -0.21582,0.5205078 -0.793457,1.2314453 -0.158692,0.1840821 -1.009278,1.0664063 -0.850585,0.8759765 -2.399414,2.4565429 z"
           id="path896" />
      </g>
      <g
         aria-label="out "
         transform="translate(210.52734,94.867188)"
         id="text92"
         style="font-size:13px;font-family:'DejaVu Sans';-inkscape-font-specification:DejaVuSans;fill:#f9f9f9;stroke:none">
        <path
           d="m 3.9799805,-6.2905273 q -0.9394532,0 -1.4853516,0.7363281 -0.5458984,0.7299805 -0.5458984,2.0058594 0,1.2758789 0.5395508,2.012207 0.5458984,0.72998046 1.4916992,0.72998046 0.9331054,0 1.4790039,-0.73632816 0.5458984,-0.7363281 0.5458984,-2.0058593 0,-1.2631836 -0.5458984,-1.9995118 -0.5458985,-0.7426757 -1.4790039,-0.7426757 z m 0,-0.9902344 q 1.5234375,0 2.3930664,0.9902344 0.8696289,0.9902343 0.8696289,2.7421875 0,1.7456054 -0.8696289,2.74218746 -0.8696289,0.99023437 -2.3930664,0.99023437 -1.5297852,0 -2.3994141,-0.99023437 -0.86328124,-0.99658206 -0.86328124,-2.74218746 0,-1.7519532 0.86328124,-2.7421875 0.8696289,-0.9902344 2.3994141,-0.9902344 z"
           id="path899" />
        <path
           d="M 9.0084972,-2.8056641 V -7.109375 h 1.1679688 v 4.2592773 q 0,1.0092774 0.393555,1.5170899 0.393554,0.50146483 1.180664,0.50146483 0.945801,0 1.491699,-0.60302733 0.552246,-0.6030274 0.552246,-1.644043 V -7.109375 h 1.167969 V 0 H 13.79463 v -1.0917969 q -0.425293,0.64746096 -0.990234,0.96484378 -0.558594,0.31103515 -1.30127,0.31103515 -1.225098,0 -1.8598631,-0.76171875 Q 9.0084972,-1.3393555 9.0084972,-2.8056641 Z m 2.9389648,-4.4750976 z"
           id="path901" />
        <path
           d="m 18.513382,-9.1279297 v 2.0185547 h 2.405762 v 0.9077148 h -2.405762 v 3.859375 q 0,0.869629 0.234863,1.1171875 0.241211,0.24755864 0.971192,0.24755864 h 1.199707 V 0 h -1.199707 q -1.352051,0 -1.866211,-0.50146484 -0.51416,-0.50781246 -0.51416,-1.84082036 v -3.859375 H 16.482132 V -7.109375 h 0.856934 v -2.0185547 z"
           id="path903" />
      </g>
      <g
         transform="translate(131.23339,208.80079)"
         id="text96"
         style="font-size:13px;font-family:'DejaVu Sans';-inkscape-font-specification:DejaVuSans;fill:#f9f9f9;stroke:none" />
      <g
         transform="translate(139.1894,208.80079)"
         id="text100"
         style="font-size:13px;font-family:'DejaVu Sans';-inkscape-font-specification:DejaVuSans;fill:#f9f9f9;stroke:none" />
      <g
         aria-label="U1"
         transform="translate(82.726562,46.800781)"
         id="text164"
         style="font-size:13px;font-family:'DejaVu Sans';-inkscape-font-specification:DejaVuSans;fill:#f9f9f9;stroke:none">
        <path
           d="M 1.1298828,-9.4770508 H 2.418457 v 5.7573242 q 0,1.5234375 0.5522461,2.1962891 0.5522461,0.66650391 1.7900391,0.66650391 1.2314453,0 1.7836914,-0.66650391 0.5522461,-0.6728516 0.5522461,-2.1962891 v -5.7573242 h 1.2885742 v 5.9160156 q 0,1.8535157 -0.9204102,2.79931645 -0.9140625,0.94580078 -2.7041015,0.94580078 -1.7963867,0 -2.7167969,-0.94580078 Q 1.1298828,-1.7075195 1.1298828,-3.5610352 Z"
           id="path908" />
        <path
           d="m 11.115311,-1.0791016 h 2.094726 V -8.309082 l -2.278808,0.4570312 v -1.1679687 l 2.266113,-0.4570313 h 1.282226 v 8.3979492 h 2.094727 V 0 h -5.458984 z"
           id="path910" />
      </g>
      <g
         aria-label="+12V"
         transform="translate(104.21875,28.859375)"
         id="text176"
         style="font-size:11.7002px;font-family:'DejaVu Sans';-inkscape-font-specification:DejaVuSans;fill:#f9f9f9;stroke:none">
        <path
           d="m 5.381635,-7.335477 v 3.1821345 h 3.1821345 v 0.971208 H 5.381635 V 0 H 4.421853 V -3.1821345 H 1.2397185 v -0.971208 H 4.421853 V -7.335477 Z"
           id="path913" />
        <path
           d="m 11.244176,-0.97120801 h 1.885286 V -7.4783017 l -2.050963,0.4113351 v -1.0511898 l 2.039537,-0.4113352 h 1.154023 v 7.55828359 h 1.885287 V 0 h -4.91317 z"
           id="path915" />
        <path
           d="m 19.444515,-0.97120801 h 4.027656 V 0 h -5.415912 v -0.97120801 q 0.656993,-0.67984559 1.788165,-1.82244329 1.136885,-1.1483106 1.428247,-1.479664 0.55416,-0.6227157 0.771253,-1.0511898 0.222807,-0.4341871 0.222807,-0.8512353 0,-0.6798456 -0.479891,-1.1083197 -0.474178,-0.4284741 -1.239719,-0.4284741 -0.542733,0 -1.14831,0.1885286 -0.599864,0.1885286 -1.285423,0.5712988 v -1.1654496 q 0.696985,-0.2799364 1.302562,-0.4227611 0.605577,-0.1428247 1.10832,-0.1428247 1.325413,0 2.113805,0.6627066 0.788393,0.6627066 0.788393,1.7710264 0,0.5255949 -0.199955,0.9997729 -0.194242,0.4684651 -0.714124,1.1083198 -0.142824,0.1656766 -0.908365,0.959782 -0.76554,0.7883924 -2.159509,2.21092649 z"
           id="path917" />
        <path
           d="m 27.953354,0 -3.256403,-8.5294916 h 1.20544 l 2.702244,7.1812264 2.707956,-7.1812264 h 1.199728 L 29.261629,0 Z"
           id="path919" />
      </g>
      <g
         aria-label="-12V"
         transform="translate(106.99219,152.03906)"
         id="text188"
         style="font-size:11.7002px;font-family:'DejaVu Sans';-inkscape-font-specification:DejaVuSans;fill:#f9f9f9;stroke:none">
        <path
           d="M 0.57129883,-3.6734515 H 3.6505995 v 0.9369301 H 0.57129883 Z"
           id="path922" />
        <path
           d="M 5.6631752,-0.97120801 H 7.5484614 V -7.4783017 L 5.4974986,-7.0669666 V -8.1181564 L 7.5370354,-8.5294916 H 8.691059 v 7.55828359 h 1.885286 V 0 H 5.6631752 Z"
           id="path924" />
        <path
           d="m 13.898614,-0.97120801 h 4.027657 V 0 h -5.415913 v -0.97120801 q 0.656994,-0.67984559 1.788166,-1.82244329 1.136884,-1.1483106 1.428247,-1.479664 0.554159,-0.6227157 0.771253,-1.0511898 0.222807,-0.4341871 0.222807,-0.8512353 0,-0.6798456 -0.479891,-1.1083197 -0.474178,-0.4284741 -1.239719,-0.4284741 -0.542734,0 -1.148311,0.1885286 -0.599863,0.1885286 -1.285422,0.5712988 v -1.1654496 q 0.696985,-0.2799364 1.302561,-0.4227611 0.605577,-0.1428247 1.10832,-0.1428247 1.325413,0 2.113806,0.6627066 0.788392,0.6627066 0.788392,1.7710264 0,0.5255949 -0.199954,0.9997729 -0.194242,0.4684651 -0.714124,1.1083198 -0.142825,0.1656766 -0.908365,0.959782 -0.76554,0.7883924 -2.15951,2.21092649 z"
           id="path926" />
        <path
           d="m 22.407454,0 -3.256403,-8.5294916 h 1.20544 l 2.702244,7.1812264 2.707956,-7.1812264 h 1.199728 L 23.715728,0 Z"
           id="path928" />
      </g>
      <g
         aria-label="in"
         transform="translate(18.71875,75.601562)"
         id="text76"
         style="font-size:13px;font-family:'DejaVu Sans';-inkscape-font-specification:DejaVuSans;fill:#f9f9f9;stroke:none">
        <path
           d="M 1.2250977,-7.109375 H 2.3930664 V 0 H 1.2250977 Z m 0,-2.7675781 h 1.1679687 v 1.4790039 H 1.2250977 Z"
           id="path931" />
        <path
           d="M 10.735768,-4.2910156 V 0 H 9.5677991 v -4.2529297 q 0,-1.0092773 -0.3935547,-1.5107422 -0.3935547,-0.5014648 -1.1806641,-0.5014648 -0.9458007,0 -1.4916992,0.6030273 -0.5458984,0.6030274 -0.5458984,1.644043 V 0 H 4.7816663 v -7.109375 h 1.1743164 v 1.1044922 q 0.4189453,-0.6411133 0.9838867,-0.9584961 0.5712891,-0.3173828 1.3139648,-0.3173828 1.2250977,0 1.8535158,0.7617187 0.628418,0.7553711 0.628418,2.2280274 z"
           id="path933" />
      </g>
    </g>
    <g
       id="g12"
       stroke="#000000"
       style="stroke:#ffffff;stroke-opacity:1">
      <g
         id="g14"
         clip-path="url(#clipPath18)"
         stroke="#000000"
         style="stroke:#ffffff;stroke-opacity:1">
        <g
           id="g22"
           transform="scale(1,-1)"
           stroke="#000000"
           style="display:inline;stroke:#ffffff;stroke-opacity:1">
          <path
             d="m 178.129,-172.801 v -10.801"
             stroke="#000000"
             style="fill:none;stroke:#ffffff;stroke-width:0.72;stroke-linecap:square;stroke-linejoin:miter;stroke-miterlimit:10;stroke-dasharray:none;stroke-opacity:1"
             id="path24" />
        </g>
        <g
           id="g26"
           transform="scale(1,-1)"
           stroke="#000000"
           style="stroke:#ffffff;stroke-opacity:1">
          <path
             d="m 178.129,-237.602 v 10.801"
             stroke="#000000"
             style="fill:none;stroke:#ffffff;stroke-width:0.72;stroke-linecap:square;stroke-linejoin:miter;stroke-miterlimit:10;stroke-dasharray:none;stroke-opacity:1"
             id="path28" />
        </g>
        <g
           id="g30"
           transform="scale(1,-1)"
           stroke="#000000"
           style="stroke:#ffffff;stroke-opacity:1">
          <path
             d="m 170.93,-183.602 h 14.398 v -43.199 H 170.93 Z"
             stroke="#000000"
             style="fill:none;stroke:#ffffff;stroke-width:0.36;stroke-linecap:butt;stroke-linejoin:bevel;stroke-miterlimit:10;stroke-dasharray:none;stroke-opacity:1"
             id="path32" />
        </g>
        <g
           id="g38"
           transform="scale(1,-1)"
           stroke="#000000"
           style="stroke:#ffffff;stroke-opacity:1">
          <path
             d="m 178.129,-93.602 v -10.796"
             stroke="#000000"
             style="fill:none;stroke:#ffffff;stroke-width:0.72;stroke-linecap:square;stroke-linejoin:miter;stroke-miterlimit:10;stroke-dasharray:none;stroke-opacity:1"
             id="path40" />
        </g>
        <g
           id="g42"
           transform="scale(1,-1)"
           stroke="#000000"
           style="stroke:#ffffff;stroke-opacity:1">
          <path
             d="m 178.129,-158.398 v 10.796"
             stroke="#000000"
             style="fill:none;stroke:#ffffff;stroke-width:0.72;stroke-linecap:square;stroke-linejoin:miter;stroke-miterlimit:10;stroke-dasharray:none;stroke-opacity:1"
             id="path44" />
        </g>
        <g
           id="g46"
           transform="scale(1,-1)"
           stroke="#000000"
           style="stroke:#ffffff;stroke-opacity:1">
          <path
             d="m 170.93,-104.402 h 14.398 v -43.199 H 170.93 Z"
             stroke="#000000"
             style="fill:none;stroke:#ffffff;stroke-width:0.36;stroke-linecap:butt;stroke-linejoin:bevel;stroke-miterlimit:10;stroke-dasharray:none;stroke-opacity:1"
             id="path48" />
        </g>
        <g
           id="g54"
           transform="scale(1,-1)"
           stroke="#000000"
           style="stroke:#ffffff;stroke-opacity:1">
          <path
             d="m 170.93,-86.398 h 14.398"
             stroke="#000000"
             style="fill:none;stroke:#ffffff;stroke-width:0.72;stroke-linecap:square;stroke-linejoin:miter;stroke-miterlimit:10;stroke-dasharray:none;stroke-opacity:1"
             id="path56" />
        </g>
        <g
           id="g58"
           transform="scale(1,-1)"
           stroke="#000000"
           style="stroke:#ffffff;stroke-opacity:1">
          <path
             d="M 70.129,-100.801 H 48.527"
             stroke="#000000"
             style="fill:none;stroke:#ffffff;stroke-width:0.72;stroke-linecap:square;stroke-linejoin:miter;stroke-miterlimit:10;stroke-dasharray:none;stroke-opacity:1"
             id="path60" />
        </g>
        <g
           id="g62"
           transform="scale(1,-1)"
           stroke="#000000"
           style="stroke:#ffffff;stroke-opacity:1">
          <path
             d="M 70.129,-72 H 55.727"
             stroke="#000000"
             style="fill:none;stroke:#ffffff;stroke-width:0.72;stroke-linecap:square;stroke-linejoin:miter;stroke-miterlimit:10;stroke-dasharray:none;stroke-opacity:1"
             id="path64" />
        </g>
        <g
           id="g66"
           transform="scale(1,-1)"
           stroke="#000000"
           style="stroke:#ffffff;stroke-opacity:1">
          <path
             d="M 41.328,-72 H 55.727"
             stroke="#000000"
             style="fill:none;stroke:#ffffff;stroke-width:0.72;stroke-linecap:square;stroke-linejoin:miter;stroke-miterlimit:10;stroke-dasharray:none;stroke-opacity:1"
             id="path68" />
        </g>
        <g
           id="g70"
           transform="scale(1,-1)"
           stroke="#000000"
           style="stroke:#ffffff;stroke-opacity:1">
          <path
             d="m 41.328,-72 c 0,6.336 -9.504,6.336 -9.504,0 0,-6.336 9.504,-6.336 9.504,0"
             stroke="#000000"
             style="fill:none;stroke:#ffffff;stroke-width:0.36;stroke-linecap:butt;stroke-linejoin:bevel;stroke-miterlimit:10;stroke-dasharray:none;stroke-opacity:1"
             id="path72" />
        </g>
        <g
           id="g78"
           transform="scale(1,-1)"
           stroke="#000000"
           style="stroke:#ffffff;stroke-opacity:1">
          <path
             d="M 199.727,-86.398 H 185.328"
             stroke="#000000"
             style="fill:none;stroke:#ffffff;stroke-width:0.72;stroke-linecap:square;stroke-linejoin:miter;stroke-miterlimit:10;stroke-dasharray:none;stroke-opacity:1"
             id="path80" />
        </g>
        <g
           id="g82"
           transform="scale(1,-1)"
           stroke="#000000"
           style="stroke:#ffffff;stroke-opacity:1">
          <path
             d="m 209.23,-86.398 c 0,6.336 -9.503,6.336 -9.503,0 0,-6.336 9.503,-6.336 9.503,0"
             stroke="#000000"
             style="fill:none;stroke:#ffffff;stroke-width:0.36;stroke-linecap:butt;stroke-linejoin:bevel;stroke-miterlimit:10;stroke-dasharray:none;stroke-opacity:1"
             id="path84" />
        </g>
        <g
           id="g102"
           transform="scale(1,-1)"
           stroke="#000000"
           style="stroke:#ffffff;stroke-opacity:1">
          <path
             d="m 178.129,-252 v 14.398"
             stroke="#000000"
             style="fill:none;stroke:#ffffff;stroke-width:0.72;stroke-linecap:square;stroke-linejoin:miter;stroke-miterlimit:10;stroke-dasharray:none;stroke-opacity:1"
             id="path104" />
        </g>
        <g
           id="g106"
           transform="scale(1,-1)"
           stroke="#000000"
           style="stroke:#ffffff;stroke-opacity:1">
          <path
             d="m 170.93,-252 h 14.398"
             stroke="#000000"
             style="fill:none;stroke:#ffffff;stroke-width:0.36;stroke-linecap:butt;stroke-linejoin:bevel;stroke-miterlimit:10;stroke-dasharray:none;stroke-opacity:1"
             id="path108" />
        </g>
        <g
           id="g110"
           transform="scale(1,-1)"
           stroke="#000000"
           style="stroke:#ffffff;stroke-opacity:1">
          <path
             d="m 173.809,-255.238 h 8.64"
             stroke="#000000"
             style="fill:none;stroke:#ffffff;stroke-width:0.36;stroke-linecap:butt;stroke-linejoin:bevel;stroke-miterlimit:10;stroke-dasharray:none;stroke-opacity:1"
             id="path112" />
        </g>
        <g
           id="g114"
           transform="scale(1,-1)"
           stroke="#000000"
           style="stroke:#ffffff;stroke-opacity:1">
          <path
             d="m 176.688,-258.121 h 2.878"
             stroke="#000000"
             style="fill:none;stroke:#ffffff;stroke-width:0.36;stroke-linecap:butt;stroke-linejoin:bevel;stroke-miterlimit:10;stroke-dasharray:none;stroke-opacity:1"
             id="path116" />
        </g>
        <g
           id="g118"
           transform="scale(1,-1)"
           stroke="#000000"
           style="stroke:#ffffff;stroke-opacity:1">
          <path
             d="M 70.129,-72 H 91.727"
             stroke="#000000"
             style="fill:none;stroke:#ffffff;stroke-width:0.72;stroke-linecap:square;stroke-linejoin:miter;stroke-miterlimit:10;stroke-dasharray:none;stroke-opacity:1"
             id="path120" />
        </g>
        <g
           id="g122"
           transform="scale(1,-1)"
           stroke="#000000"
           style="stroke:#ffffff;stroke-opacity:1">
          <path
             d="M 170.93,-86.398 H 149.328"
             stroke="#000000"
             style="fill:none;stroke:#ffffff;stroke-width:0.72;stroke-linecap:square;stroke-linejoin:miter;stroke-miterlimit:10;stroke-dasharray:none;stroke-opacity:1"
             id="path124" />
        </g>
        <g
           id="g126"
           transform="scale(1,-1)"
           stroke="#000000"
           style="stroke:#ffffff;stroke-opacity:1">
          <path
             d="M 70.129,-100.801 H 91.727"
             stroke="#000000"
             style="fill:none;stroke:#ffffff;stroke-width:0.72;stroke-linecap:square;stroke-linejoin:miter;stroke-miterlimit:10;stroke-dasharray:none;stroke-opacity:1"
             id="path128" />
        </g>
        <g
           id="g130"
           transform="scale(1,-1)"
           stroke="#000000"
           style="stroke:#ffffff;stroke-opacity:1">
          <path
             d="m 91.727,-50.398 v -72"
             stroke="#000000"
             style="fill:none;stroke:#ffffff;stroke-width:0.36;stroke-linecap:butt;stroke-linejoin:bevel;stroke-miterlimit:10;stroke-dasharray:none;stroke-opacity:1"
             id="path132" />
        </g>
        <g
           id="g134"
           transform="scale(1,-1)"
           stroke="#000000"
           style="stroke:#ffffff;stroke-opacity:1">
          <path
             d="m 91.727,-122.398 57.601,36"
             stroke="#000000"
             style="fill:none;stroke:#ffffff;stroke-width:0.36;stroke-linecap:butt;stroke-linejoin:bevel;stroke-miterlimit:10;stroke-dasharray:none;stroke-opacity:1"
             id="path136" />
        </g>
        <g
           id="g138"
           transform="scale(1,-1)"
           stroke="#000000"
           style="stroke:#ffffff;stroke-opacity:1">
          <path
             d="m 149.328,-86.398 -57.601,36"
             stroke="#000000"
             style="fill:none;stroke:#ffffff;stroke-width:0.36;stroke-linecap:butt;stroke-linejoin:bevel;stroke-miterlimit:10;stroke-dasharray:none;stroke-opacity:1"
             id="path140" />
        </g>
        <g
           id="g142"
           transform="scale(1,-1)"
           stroke="#000000"
           style="stroke:#ffffff;stroke-opacity:1">
          <path
             d="M 120.527,-43.199 V -68.398"
             stroke="#000000"
             style="fill:none;stroke:#ffffff;stroke-width:0.72;stroke-linecap:square;stroke-linejoin:miter;stroke-miterlimit:10;stroke-dasharray:none;stroke-opacity:1"
             id="path144" />
        </g>
        <g
           id="g146"
           transform="scale(1,-1)"
           stroke="#000000"
           style="stroke:#ffffff;stroke-opacity:1">
          <path
             d="m 120.527,-129.602 v 25.204"
             stroke="#000000"
             style="fill:none;stroke:#ffffff;stroke-width:0.72;stroke-linecap:square;stroke-linejoin:miter;stroke-miterlimit:10;stroke-dasharray:none;stroke-opacity:1"
             id="path148" />
        </g>
        <g
           id="g150"
           transform="scale(1,-1)"
           stroke="#000000"
           style="stroke:#ffffff;stroke-opacity:1">
          <path
             d="m 95.328,-72 h 7.199"
             stroke="#000000"
             style="fill:none;stroke:#ffffff;stroke-width:0.36;stroke-linecap:butt;stroke-linejoin:bevel;stroke-miterlimit:10;stroke-dasharray:none;stroke-opacity:1"
             id="path152" />
        </g>
        <g
           id="g154"
           transform="scale(1,-1)"
           stroke="#000000"
           style="stroke:#ffffff;stroke-opacity:1">
          <path
             d="m 98.93,-68.398 v -7.204"
             stroke="#000000"
             style="fill:none;stroke:#ffffff;stroke-width:0.36;stroke-linecap:butt;stroke-linejoin:bevel;stroke-miterlimit:10;stroke-dasharray:none;stroke-opacity:1"
             id="path156" />
        </g>
        <g
           id="g158"
           transform="scale(1,-1)"
           stroke="#000000"
           style="stroke:#ffffff;stroke-opacity:1">
          <path
             d="m 95.328,-100.801 h 7.199"
             stroke="#000000"
             style="fill:none;stroke:#ffffff;stroke-width:0.36;stroke-linecap:butt;stroke-linejoin:bevel;stroke-miterlimit:10;stroke-dasharray:none;stroke-opacity:1"
             id="path160" />
        </g>
        <g
           id="g166"
           transform="scale(1,-1)"
           stroke="#000000"
           style="stroke:#ffffff;stroke-opacity:1">
          <path
             d="M 120.527,-28.801 V -43.199"
             stroke="#000000"
             style="fill:none;stroke:#ffffff;stroke-width:0.72;stroke-linecap:square;stroke-linejoin:miter;stroke-miterlimit:10;stroke-dasharray:none;stroke-opacity:1"
             id="path168" />
        </g>
        <g
           id="g170"
           transform="scale(1,-1)"
           stroke="#000000"
           style="stroke:#ffffff;stroke-opacity:1">
          <path
             d="m 109.727,-28.801 h 21.601"
             stroke="#000000"
             style="fill:none;stroke:#ffffff;stroke-width:0.36;stroke-linecap:butt;stroke-linejoin:bevel;stroke-miterlimit:10;stroke-dasharray:none;stroke-opacity:1"
             id="path172" />
        </g>
        <g
           id="g178"
           transform="scale(1,-1)"
           stroke="#000000"
           style="stroke:#ffffff;stroke-opacity:1">
          <path
             d="m 120.527,-144 v 14.398"
             stroke="#000000"
             style="fill:none;stroke:#ffffff;stroke-width:0.72;stroke-linecap:square;stroke-linejoin:miter;stroke-miterlimit:10;stroke-dasharray:none;stroke-opacity:1"
             id="path180" />
        </g>
        <g
           id="g182"
           transform="scale(1,-1)"
           stroke="#000000"
           style="stroke:#ffffff;stroke-opacity:1">
          <path
             d="M 131.328,-144 H 109.727"
             stroke="#000000"
             style="fill:none;stroke:#ffffff;stroke-width:0.36;stroke-linecap:butt;stroke-linejoin:bevel;stroke-miterlimit:10;stroke-dasharray:none;stroke-opacity:1"
             id="path184" />
        </g>
        <g
           id="g190"
           transform="scale(1,-1)"
           stroke="#000000"
           style="stroke:#ffffff;stroke-opacity:1">
          <path
             d="m 178.129,-93.602 v 7.204"
             stroke="#000000"
             style="fill:none;stroke:#ffffff;stroke-width:0.72;stroke-linecap:square;stroke-linejoin:miter;stroke-miterlimit:10;stroke-dasharray:none;stroke-opacity:1"
             id="path192" />
        </g>
        <g
           id="g194"
           transform="scale(1,-1)"
           stroke="#000000"
           style="stroke:#ffffff;stroke-opacity:1">
          <path
             d="M 178.129,-165.602 H 48.527"
             stroke="#000000"
             style="fill:none;stroke:#ffffff;stroke-width:0.72;stroke-linecap:square;stroke-linejoin:miter;stroke-miterlimit:10;stroke-dasharray:none;stroke-opacity:1"
             id="path196" />
        </g>
        <g
           id="g198"
           transform="scale(1,-1)"
           stroke="#000000"
           style="stroke:#ffffff;stroke-opacity:1">
          <path
             d="m 178.129,-172.801 v 14.403"
             stroke="#000000"
             style="fill:none;stroke:#ffffff;stroke-width:0.72;stroke-linecap:square;stroke-linejoin:miter;stroke-miterlimit:10;stroke-dasharray:none;stroke-opacity:1"
             id="path200" />
        </g>
        <g
           id="g202"
           transform="scale(1,-1)"
           stroke="#000000"
           style="stroke:#ffffff;stroke-opacity:1">
          <path
             d="m 48.527,-165.602 v 64.801"
             stroke="#000000"
             style="fill:none;stroke:#ffffff;stroke-width:0.72;stroke-linecap:square;stroke-linejoin:miter;stroke-miterlimit:10;stroke-dasharray:none;stroke-opacity:1"
             id="path204" />
        </g>
        <path
           d="m 179.93,86.398 c 0,-2.398 -3.602,-2.398 -3.602,0 0,2.403 3.602,2.403 3.602,0"
           stroke="#000000"
           style="fill:#000000;fill-opacity:1;fill-rule:nonzero;stroke:#ffffff;stroke-opacity:1"
           id="path206" />
        <path
           d="m 179.93,86.398 c 0,-2.398 -3.602,-2.398 -3.602,0 0,2.403 3.602,2.403 3.602,0"
           stroke="#000000"
           style="fill:#000000;fill-opacity:1;fill-rule:nonzero;stroke:#ffffff;stroke-opacity:1"
           id="path208" />
        <path
           d="m 179.93,86.398 c 0,-2.398 -3.602,-2.398 -3.602,0 0,2.403 3.602,2.403 3.602,0"
           stroke="#000000"
           style="fill:#ffffff;fill-opacity:1;fill-rule:nonzero;stroke:#ffffff;stroke-opacity:1"
           id="path210" />
        <path
           d="m 179.93,165.602 c 0,-2.403 -3.602,-2.403 -3.602,0 0,2.398 3.602,2.398 3.602,0"
           stroke="#000000"
           style="fill:#000000;fill-opacity:1;fill-rule:nonzero;stroke:#ffffff;stroke-opacity:1"
           id="path212" />
        <path
           d="m 179.93,165.602 c 0,-2.403 -3.602,-2.403 -3.602,0 0,2.398 3.602,2.398 3.602,0"
           stroke="#000000"
           style="fill:#000000;fill-opacity:1;fill-rule:nonzero;stroke:#ffffff;stroke-opacity:1"
           id="path214" />
        <path
           d="m 179.93,165.602 c 0,-2.403 -3.602,-2.403 -3.602,0 0,2.398 3.602,2.398 3.602,0"
           stroke="#000000"
           style="fill:#ffffff;fill-opacity:1;fill-rule:nonzero;stroke:#ffffff;stroke-opacity:1"
           id="path216" />
      </g>
    </g>
  </g>
</svg>
