<?xml version="1.0" encoding="UTF-8" standalone="no"?>
<!--
SPDX-FileCopyrightText: Cosmin Negoita (https://www.svgrepo.com/author/Cosmin%20Negoita/)
SPDX-FileCopyrightText: Robert Ryszard Paciorek <rrp@opcode.eu.org>

SPDX-License-Identifier: CC-BY-4.0

Based-On: https://www.svgrepo.com/svg/408867/floppy (https://github.com/stephenhutchings/microns) UNDER CC-BY-4.0 BY Cosmin Negoita
-->

<svg
   fill="#000000"
   version="1.1"
   id="Layer_1"
   width="48"
   height="32"
   viewBox="0 0 48 32"
   enable-background="new 0 0 24 24"
   xml:space="preserve"
   sodipodi:docname="save.svg"
   inkscape:version="1.2.2 (b0a8486541, 2022-12-01)"
   xmlns:inkscape="http://www.inkscape.org/namespaces/inkscape"
   xmlns:sodipodi="http://sodipodi.sourceforge.net/DTD/sodipodi-0.dtd"
   xmlns="http://www.w3.org/2000/svg"
   xmlns:svg="http://www.w3.org/2000/svg"
   xmlns:ns="&amp;#38;ns_sfw;"><defs
   id="defs181" /><sodipodi:namedview
   id="namedview179"
   pagecolor="#8b8b8b"
   bordercolor="#666666"
   borderopacity="1.0"
   inkscape:showpageshadow="2"
   inkscape:pageopacity="0"
   inkscape:pagecheckerboard="0"
   inkscape:deskcolor="#d1d1d1"
   showgrid="false"
   inkscape:zoom="6.675088"
   inkscape:cx="-21.647655"
   inkscape:cy="32.658745"
   inkscape:window-width="1920"
   inkscape:window-height="1003"
   inkscape:window-x="0"
   inkscape:window-y="0"
   inkscape:window-maximized="1"
   inkscape:current-layer="Layer_1" />
<metadata
   id="metadata146">
	<ns:sfw>
		<ns:slices>

</ns:slices>
		<ns:sliceSourceBounds
   width="505"
   height="984"
   bottomLeftOrigin="true"
   x="0"
   y="-552">

</ns:sliceSourceBounds>
	</ns:sfw>
</metadata>
<g
   id="g176"
   style="fill:#ffffff;fill-opacity:1;stroke-width:0.837552"
   transform="matrix(1.192735,0,0,1.1951757,9.68718,1.6578916)">
	<g
   id="g152"
   style="fill:#ffffff;fill-opacity:1;stroke-width:0.837552">
		<g
   id="g150"
   style="fill:#ffffff;fill-opacity:1;stroke-width:0.837552">
			<path
   d="M 23,24 H 5 C 4.7,24 4.5,23.9 4.3,23.7 l -4,-4 C 0.1,19.5 0,19.3 0,19 V 1 C 0,0.4 0.4,0 1,0 h 22 c 0.6,0 1,0.4 1,1 v 22 c 0,0.6 -0.4,1 -1,1 z M 5.4,22 H 22 V 2 H 2 v 16.6 z"
   id="path148"
   fill="#000000"
   style="fill:#ffffff;fill-opacity:1;stroke-width:0.837552" />
		</g>
	</g>
	<g
   id="g158"
   style="fill:#ffffff;fill-opacity:1;stroke-width:0.837552">
		<g
   id="g156"
   style="fill:#ffffff;fill-opacity:1;stroke-width:0.837552">
			<path
   d="M 18,24 H 6 C 5.4,24 5,23.6 5,23 v -7 c 0,-0.6 0.4,-1 1,-1 h 12 c 0.6,0 1,0.4 1,1 v 7 c 0,0.6 -0.4,1 -1,1 z M 7,22 H 17 V 17 H 7 Z"
   id="path154"
   fill="#000000"
   style="fill:#ffffff;fill-opacity:1;stroke-width:0.837552" />
		</g>
	</g>
	<g
   id="g168"
   style="fill:#ffffff;fill-opacity:1;stroke-width:0.837552">
		<g
   id="g162"
   fill="#000000"
   style="fill:#ffffff;fill-opacity:1;stroke-width:0.837552">
			<rect
   x="8"
   y="20"
   width="3"
   height="4"
   id="rect160"
   style="fill:#ffffff;fill-opacity:1;stroke-width:0.837552" />
		</g>
		<g
   id="g166"
   style="fill:#ffffff;fill-opacity:1;stroke-width:0.837552">
			<path
   d="M 12,24 H 8 v -5 h 4 z M 9,23 h 2 V 20 H 9 Z"
   id="path164"
   fill="#000000"
   style="fill:#ffffff;fill-opacity:1;stroke-width:0.837552" />
		</g>
	</g>
	<g
   id="g174"
   style="fill:#ffffff;fill-opacity:1;stroke-width:0.837552">
		<g
   id="g172"
   fill="#000000"
   style="fill:#ffffff;fill-opacity:1;stroke-width:0.837552">
			<path
   d="M 19,13 H 5 C 4.4,13 4,12.6 4,12 V 1 C 4,0.4 4.4,0 5,0 h 14 c 0.6,0 1,0.4 1,1 v 11 c 0,0.6 -0.4,1 -1,1 z M 6,11 H 18 V 2 H 6 Z"
   id="path170"
   fill="#000000"
   style="fill:#ffffff;fill-opacity:1;stroke-width:0.837552" />
		</g>
	</g>
</g>
</svg>
