<?xml version="1.0" encoding="UTF-8" standalone="no"?>
<!--
SPDX-FileCopyrightText: zest (https://www.svgrepo.com/author/zest/)
SPDX-FileCopyrightText: Robert Ryszard Paciorek <rrp@opcode.eu.org>

SPDX-License-Identifier: MIT

Based-On: https://www.svgrepo.com/svg/509717/align-middle (https://zesticons.com/icons?p=zest-free) UNDER MIT BY zest
-->

<svg
   width="48"
   height="48"
   viewBox="0 0 48 48"
   fill="none"
   version="1.1"
   id="svg4"
   sodipodi:docname="scale.svg"
   inkscape:version="1.2.2 (b0a8486541, 2022-12-01)"
   xmlns:inkscape="http://www.inkscape.org/namespaces/inkscape"
   xmlns:sodipodi="http://sodipodi.sourceforge.net/DTD/sodipodi-0.dtd"
   xmlns="http://www.w3.org/2000/svg"
   xmlns:svg="http://www.w3.org/2000/svg">
  <defs
     id="defs8" />
  <sodipodi:namedview
     id="namedview6"
     pagecolor="#8b8b8b"
     bordercolor="#666666"
     borderopacity="1.0"
     inkscape:showpageshadow="2"
     inkscape:pageopacity="0"
     inkscape:pagecheckerboard="0"
     inkscape:deskcolor="#d1d1d1"
     showgrid="false"
     inkscape:zoom="8.5848653"
     inkscape:cx="17.181399"
     inkscape:cy="30.169373"
     inkscape:window-width="1920"
     inkscape:window-height="1003"
     inkscape:window-x="0"
     inkscape:window-y="0"
     inkscape:window-maximized="1"
     inkscape:current-layer="svg4" />
  <path
     fill-rule="evenodd"
     clip-rule="evenodd"
     d="m 18.032832,29.967202 c 1.082868,1.08287 0.797742,2.553391 -0.285088,3.636221 l -5.354926,5.704378 h 5.640032 c 1.531311,-3.9e-5 2.772796,0.891995 2.772757,2.423304 -6e-5,1.53133 -1.241467,2.423287 -2.772795,2.423345 H 6.2688885 c -1.5313097,3.8e-5 -2.4233433,-0.891996 -2.4233044,-2.423304 l -1.98e-5,-11.763944 c 1.98e-5,-1.531368 0.8919756,-2.772775 2.423344,-2.772796 1.5313692,2.1e-5 2.4233228,1.241428 2.423344,2.772796 l -2.12e-5,5.640013 5.7043789,-5.354925 c 1.116489,-1.048092 2.553351,-1.367956 3.636222,-0.285088 z M 6.3541538,6.354112 C 7.4370236,5.2712425 8.9075441,5.5563692 9.9903741,6.6391992 L 41.360835,38.009659 c 1.082869,1.082868 1.367955,2.553351 0.285087,3.63622 -1.082869,1.082869 -2.553351,0.797782 -3.63622,-0.285087 L 6.6392409,9.9903323 C 5.556411,8.9075024 5.2712849,7.4369811 6.3541538,6.354112 Z m 37.8003182,11.678676 1e-6,-11.7639217 c 0,-1.5312708 -0.892035,-2.4233051 -2.423306,-2.423305 L 29.967226,3.845542 c -1.531311,-3.92e-5 -2.772797,0.8919946 -2.772757,2.4233045 5.8e-5,1.5313291 1.241466,2.4232849 2.772795,2.423344 l 5.640014,-2.08e-5 -5.354945,5.7043983 c -1.048129,1.116528 -1.367956,2.553352 -0.285087,3.636221 1.082868,1.082869 2.553349,0.797781 3.636219,-0.285088 l 5.704397,-5.354945 v 5.640032 c 0,1.531271 0.892035,2.772757 2.423305,2.772757 1.531271,0 2.423305,-1.241486 2.423305,-2.772757 z"
     fill="#000000"
     id="path2"
     style="fill:#ffffff;fill-opacity:1;stroke-width:0.999999"
     sodipodi:nodetypes="ssccccccccccssssssssssscccccssscsss" />
</svg>
