<?xml version="1.0" encoding="UTF-8" standalone="no"?>
<!--
SPDX-FileCopyrightText: Robert Ryszard Paciorek <rrp@opcode.eu.org>
SPDX-License-Identifier: MIT
-->

<svg
   version="1.1"
   id="svg2"
   width="279.936"
   height="64.416"
   viewBox="0 0 279.936 64.416"
   sodipodi:docname="coil-symbols.svg"
   inkscape:version="1.2.2 (b0a8486541, 2022-12-01)"
   xmlns:inkscape="http://www.inkscape.org/namespaces/inkscape"
   xmlns:sodipodi="http://sodipodi.sourceforge.net/DTD/sodipodi-0.dtd"
   xmlns="http://www.w3.org/2000/svg"
   xmlns:svg="http://www.w3.org/2000/svg">
  <sodipodi:namedview
     id="namedview37"
     pagecolor="#afafaf"
     bordercolor="#666666"
     borderopacity="1.0"
     inkscape:showpageshadow="2"
     inkscape:pageopacity="0.0"
     inkscape:pagecheckerboard="0"
     inkscape:deskcolor="#d1d1d1"
     showgrid="false"
     inkscape:zoom="3.663686"
     inkscape:cx="104.1301"
     inkscape:cy="32.208"
     inkscape:window-width="1920"
     inkscape:window-height="1003"
     inkscape:window-x="0"
     inkscape:window-y="0"
     inkscape:window-maximized="1"
     inkscape:current-layer="g14" />
  <defs
     id="defs6">
    <clipPath
       clipPathUnits="userSpaceOnUse"
       id="clipPath18">
      <path
         d="M 0,0 H 209 V 48 H 0 Z"
         id="path16" />
    </clipPath>
  </defs>
  <g
     id="g8"
     transform="matrix(1.3333333,0,0,1.3333333,0,1.6104e-6)">
    <g
       id="g10" />
    <g
       id="g12">
      <g
         id="g14"
         clip-path="url(#clipPath18)">
        <path
           d="M 0,0 H 210 V 49 H 0 Z"
           stroke="#000000" style="fill:#ffffff;fill-opacity:0;fill-rule:nonzero;stroke:none"
           id="path20" />
        <g
           id="g22"
           transform="scale(1,-1)">
          <path
             d="M 32.977,-25.199 H 18.574"
             stroke="#000000" style="fill:none;stroke:#ffffff;stroke-width:0.72;stroke-linecap:square;stroke-linejoin:miter;stroke-miterlimit:10;stroke-dasharray:none;stroke-opacity:1"
             id="path24" />
        </g>
        <g
           id="g26"
           transform="scale(1,-1)">
          <path
             d="M 76.176,-25.199 H 90.574"
             stroke="#000000" style="fill:none;stroke:#ffffff;stroke-width:0.72;stroke-linecap:square;stroke-linejoin:miter;stroke-miterlimit:10;stroke-dasharray:none;stroke-opacity:1"
             id="path28" />
        </g>
        <g
           id="g30"
           transform="scale(1,-1)">
          <path
             d="m 47.375,-25.199 c 0,3.976 -3.223,7.199 -7.199,7.199 -3.977,0 -7.199,-3.223 -7.199,-7.199"
             stroke="#000000" style="fill:none;stroke:#ffffff;stroke-width:0.36;stroke-linecap:butt;stroke-linejoin:bevel;stroke-miterlimit:10;stroke-dasharray:none;stroke-opacity:1"
             id="path32" />
        </g>
        <g
           id="g34"
           transform="scale(1,-1)">
          <path
             d="m 61.777,-25.199 c 0,3.976 -3.226,7.199 -7.203,7.199 -3.976,0 -7.199,-3.223 -7.199,-7.199"
             stroke="#000000" style="fill:none;stroke:#ffffff;stroke-width:0.36;stroke-linecap:butt;stroke-linejoin:bevel;stroke-miterlimit:10;stroke-dasharray:none;stroke-opacity:1"
             id="path36" />
        </g>
        <g
           id="g38"
           transform="scale(1,-1)">
          <path
             d="m 76.176,-25.199 c 0,3.976 -3.223,7.199 -7.199,7.199 -3.977,0 -7.2,-3.223 -7.2,-7.199"
             stroke="#000000" style="fill:none;stroke:#ffffff;stroke-width:0.36;stroke-linecap:butt;stroke-linejoin:bevel;stroke-miterlimit:10;stroke-dasharray:none;stroke-opacity:1"
             id="path40" />
        </g>
        <g
           id="g42"
           transform="scale(1,-1)">
          <path
             d="m 145.172,-30.188 c 1.668,1.665 2.39,4.055 1.933,6.364 -0.46,2.312 -2.043,4.242 -4.222,5.144 -2.176,0.903 -4.66,0.657 -6.617,-0.652 -1.961,-1.309 -3.137,-3.512 -3.137,-5.867"
             stroke="#000000" style="fill:none;stroke:#ffffff;stroke-width:0.36;stroke-linecap:butt;stroke-linejoin:bevel;stroke-miterlimit:10;stroke-dasharray:none;stroke-opacity:1"
             id="path44" />
        </g>
        <g
           id="g46"
           transform="scale(1,-1)">
          <path
             d="m 155.426,-30.293 c 2.062,2.063 2.676,5.156 1.562,7.848 -1.113,2.691 -3.738,4.445 -6.652,4.445 -2.91,0 -5.539,-1.754 -6.652,-4.445 -1.114,-2.692 -0.496,-5.785 1.562,-7.848"
             stroke="#000000" style="fill:none;stroke:#ffffff;stroke-width:0.36;stroke-linecap:butt;stroke-linejoin:bevel;stroke-miterlimit:10;stroke-dasharray:none;stroke-opacity:1"
             id="path48" />
        </g>
        <g
           id="g50"
           transform="scale(1,-1)">
          <path
             d="m 165.578,-30.293 c 2.059,2.063 2.676,5.156 1.563,7.848 -1.114,2.691 -3.743,4.445 -6.653,4.445 -2.914,0 -5.539,-1.754 -6.652,-4.445 -1.113,-2.692 -0.5,-5.785 1.562,-7.848"
             stroke="#000000" style="fill:none;stroke:#ffffff;stroke-width:0.36;stroke-linecap:butt;stroke-linejoin:bevel;stroke-miterlimit:10;stroke-dasharray:none;stroke-opacity:1"
             id="path52" />
        </g>
        <g
           id="g54"
           transform="scale(1,-1)">
          <path
             d="m 177.84,-25.199 c 0,2.402 -1.199,4.648 -3.199,5.984 -2,1.336 -4.536,1.586 -6.758,0.668 -2.219,-0.922 -3.836,-2.891 -4.305,-5.25 -0.469,-2.355 0.27,-4.793 1.973,-6.496"
             stroke="#000000" style="fill:none;stroke:#ffffff;stroke-width:0.36;stroke-linecap:butt;stroke-linejoin:bevel;stroke-miterlimit:10;stroke-dasharray:none;stroke-opacity:1"
             id="path56" />
        </g>
        <g
           id="g58"
           transform="scale(1,-1)">
          <path
             d="m 119.375,-25.199 h 13.609"
             stroke="#000000" style="fill:none;stroke:#ffffff;stroke-width:0.72;stroke-linecap:square;stroke-linejoin:miter;stroke-miterlimit:10;stroke-dasharray:none;stroke-opacity:1"
             id="path60" />
        </g>
        <g
           id="g62"
           transform="scale(1,-1)">
          <path
             d="m 177.84,-25.199 h 13.535"
             stroke="#000000" style="fill:none;stroke:#ffffff;stroke-width:0.72;stroke-linecap:square;stroke-linejoin:miter;stroke-miterlimit:10;stroke-dasharray:none;stroke-opacity:1"
             id="path64" />
        </g>
      </g>
    </g>
  </g>
</svg>
