<?xml version="1.0" encoding="UTF-8" standalone="no"?>
<!--
SPDX-FileCopyrightText: Robert Ryszard Paciorek <rrp@opcode.eu.org>
SPDX-License-Identifier: MIT
-->

<svg
   version="1.1"
   id="svg2"
   width="545.47198"
   height="180.384"
   viewBox="0 0 545.47198 180.384"
   sodipodi:docname="contacts-symbols.svg"
   inkscape:version="1.2.2 (b0a8486541, 2022-12-01)"
   xmlns:inkscape="http://www.inkscape.org/namespaces/inkscape"
   xmlns:sodipodi="http://sodipodi.sourceforge.net/DTD/sodipodi-0.dtd"
   xmlns="http://www.w3.org/2000/svg"
   xmlns:svg="http://www.w3.org/2000/svg">
  <sodipodi:namedview
     id="namedview103"
     pagecolor="#afafaf"
     bordercolor="#666666"
     borderopacity="1.0"
     inkscape:showpageshadow="2"
     inkscape:pageopacity="0"
     inkscape:pagecheckerboard="0"
     inkscape:deskcolor="#d1d1d1"
     showgrid="false"
     inkscape:zoom="1.30832"
     inkscape:cx="261.78611"
     inkscape:cy="90.192002"
     inkscape:window-width="1920"
     inkscape:window-height="1003"
     inkscape:window-x="0"
     inkscape:window-y="0"
     inkscape:window-maximized="1"
     inkscape:current-layer="g14" />
  <defs
     id="defs6">
    <clipPath
       clipPathUnits="userSpaceOnUse"
       id="clipPath18">
      <path
         d="M 0,0 H 409 V 135 H 0 Z"
         id="path16" />
    </clipPath>
  </defs>
  <g
     id="g8"
     transform="matrix(1.3333333,0,0,1.3333333,0,4.5096e-6)">
    <g
       id="g10" />
    <g
       id="g12">
      <g
         id="g14"
         clip-path="url(#clipPath18)">
        <path
           d="M 0,0 H 410 V 136 H 0 Z"
           stroke="#000000"
           style="fill:#ffffff;fill-opacity:0;fill-rule:nonzero;stroke:none"
           id="path20" />
        <g
           id="g22"
           transform="scale(1,-1)">
          <path
             d="M 45,-46.297 61.199,-80.496"
             stroke="#000000"
             style="fill:none;stroke:#ffffff;stroke-width:0.36;stroke-linecap:butt;stroke-linejoin:bevel;stroke-miterlimit:10;stroke-dasharray:none;stroke-opacity:1"
             id="path24" />
        </g>
        <g
           id="g26"
           transform="scale(1,-1)">
          <path
             d="M 61.199,-80.496 V -94.895"
             stroke="#000000"
             style="fill:none;stroke:#ffffff;stroke-width:0.72;stroke-linecap:square;stroke-linejoin:miter;stroke-miterlimit:10;stroke-dasharray:none;stroke-opacity:1"
             id="path28" />
        </g>
        <g
           id="g30"
           transform="scale(1,-1)">
          <path
             d="m 61.199,-48.098 v 18"
             stroke="#000000"
             style="fill:none;stroke:#ffffff;stroke-width:0.72;stroke-linecap:square;stroke-linejoin:miter;stroke-miterlimit:10;stroke-dasharray:none;stroke-opacity:1"
             id="path32" />
        </g>
        <g
           aria-label="normal open"
           transform="translate(18,114.16406)"
           id="text36"
           style="font-size:13px;font-family:'DejaVu Sans';-inkscape-font-specification:DejaVuSans;fill:#ffffff">
          <path
             d="M 7.1347656,-4.2910156 V 0 H 5.9667969 v -4.2529297 q 0,-1.0092773 -0.3935547,-1.5107422 -0.3935547,-0.5014648 -1.1806641,-0.5014648 -0.9458008,0 -1.4916992,0.6030273 -0.5458984,0.6030274 -0.5458984,1.644043 V 0 H 1.1806641 v -7.109375 h 1.1743164 v 1.1044922 q 0.4189453,-0.6411133 0.9838867,-0.9584961 0.5712891,-0.3173828 1.3139648,-0.3173828 1.2250977,0 1.8535157,0.7617187 0.6284179,0.7553711 0.6284179,2.2280274 z"
             id="path2392" />
          <path
             d="m 12.208985,-6.2905273 q -0.939453,0 -1.485351,0.7363281 -0.545899,0.7299805 -0.545899,2.0058594 0,1.2758789 0.539551,2.012207 0.545899,0.72998046 1.491699,0.72998046 0.933106,0 1.479004,-0.73632816 0.545899,-0.7363281 0.545899,-2.0058593 0,-1.2631836 -0.545899,-1.9995118 -0.545898,-0.7426757 -1.479004,-0.7426757 z m 0,-0.9902344 q 1.523438,0 2.393067,0.9902344 0.869629,0.9902343 0.869629,2.7421875 0,1.7456054 -0.869629,2.74218746 -0.869629,0.99023437 -2.393067,0.99023437 -1.529785,0 -2.3994137,-0.99023437 Q 8.94629,-1.8027344 8.94629,-3.5483398 q 0,-1.7519532 0.8632813,-2.7421875 0.8696287,-0.9902344 2.3994137,-0.9902344 z"
             id="path2394" />
          <path
             d="m 21.451736,-6.0175781 q -0.196777,-0.1142578 -0.43164,-0.1650391 -0.228516,-0.057129 -0.507813,-0.057129 -0.990234,0 -1.523437,0.6474609 -0.526856,0.6411133 -0.526856,1.847168 V 0 h -1.174316 v -7.109375 h 1.174316 v 1.1044922 q 0.368164,-0.6474609 0.958496,-0.9584961 0.590332,-0.3173828 1.434571,-0.3173828 0.120605,0 0.266601,0.019043 0.145996,0.012695 0.323731,0.044434 z"
             id="path2396" />
          <path
             d="m 27.976267,-5.7446289 q 0.437988,-0.7871094 1.047363,-1.1616211 0.609375,-0.3745117 1.43457,-0.3745117 1.11084,0 1.713868,0.7807617 0.603027,0.7744141 0.603027,2.2089844 V 0 h -1.174316 v -4.2529297 q 0,-1.0219726 -0.361817,-1.5170898 -0.361816,-0.4951172 -1.104492,-0.4951172 -0.907715,0 -1.43457,0.6030273 -0.526856,0.6030274 -0.526856,1.644043 V 0 h -1.174316 v -4.2529297 q 0,-1.0283203 -0.361817,-1.5170898 -0.361816,-0.4951172 -1.117187,-0.4951172 -0.89502,0 -1.421875,0.609375 -0.526856,0.6030273 -0.526856,1.6376953 V 0 h -1.174316 v -7.109375 h 1.174316 v 1.1044922 q 0.399903,-0.6538086 0.958497,-0.9648438 0.558593,-0.3110351 1.32666,-0.3110351 0.774414,0 1.313965,0.3935547 0.545898,0.3935547 0.806152,1.1425781 z"
             id="path2398" />
          <path
             d="m 38.334076,-3.5737305 q -1.415527,0 -1.961426,0.3237305 -0.545898,0.3237305 -0.545898,1.1044922 0,0.6220703 0.40625,0.9902344 0.412597,0.36181637 1.117187,0.36181637 0.971192,0 1.555176,-0.68554687 0.590332,-0.6918945 0.590332,-1.8344727 v -0.2602539 z m 2.32959,-0.4824218 V 0 h -1.167969 v -1.0791016 q -0.399902,0.64746097 -0.996582,0.95849613 -0.59668,0.3046875 -1.459961,0.3046875 -1.091797,0 -1.739258,-0.609375 -0.641113,-0.61572263 -0.641113,-1.64404293 0,-1.1997071 0.799805,-1.8090821 0.806152,-0.609375 2.399414,-0.609375 h 1.637695 v -0.1142578 q 0,-0.8061523 -0.533203,-1.2441406 -0.526856,-0.4443359 -1.485352,-0.4443359 -0.609375,0 -1.187011,0.1459961 -0.577637,0.145996 -1.11084,0.4379882 v -1.0791015 q 0.641113,-0.2475586 1.24414,-0.3681641 0.603028,-0.1269531 1.174317,-0.1269531 1.54248,0 2.304199,0.7998047 0.761719,0.7998047 0.761719,2.4248047 z"
             id="path2400" />
          <path
             d="M 43.098122,-9.8769531 H 44.26609 V 0 h -1.167968 z"
             id="path2402" />
          <path
             d="m 53.536011,-6.2905273 q -0.939453,0 -1.485352,0.7363281 -0.545898,0.7299805 -0.545898,2.0058594 0,1.2758789 0.539551,2.012207 0.545898,0.72998046 1.491699,0.72998046 0.933105,0 1.479004,-0.73632816 0.545898,-0.7363281 0.545898,-2.0058593 0,-1.2631836 -0.545898,-1.9995118 -0.545899,-0.7426757 -1.479004,-0.7426757 z m 0,-0.9902344 q 1.523437,0 2.393066,0.9902344 0.869629,0.9902343 0.869629,2.7421875 0,1.7456054 -0.869629,2.74218746 -0.869629,0.99023437 -2.393066,0.99023437 -1.529785,0 -2.399414,-0.99023437 -0.863282,-0.99658206 -0.863282,-2.74218746 0,-1.7519532 0.863282,-2.7421875 0.869629,-0.9902344 2.399414,-0.9902344 z"
             id="path2404" />
          <path
             d="M 59.815018,-1.0664062 V 2.7041016 H 58.640701 V -7.109375 h 1.174317 v 1.0791016 q 0.368164,-0.6347657 0.926758,-0.9394532 0.564941,-0.3110351 1.345703,-0.3110351 1.294922,0 2.101074,1.0283203 0.8125,1.0283203 0.8125,2.7041016 0,1.6757812 -0.8125,2.70410152 -0.806152,1.02832031 -2.101074,1.02832031 -0.780762,0 -1.345703,-0.3046875 -0.558594,-0.31103516 -0.926758,-0.94580073 z m 3.973633,-2.4819336 q 0,-1.2885743 -0.533204,-2.0185547 -0.526855,-0.7363282 -1.453613,-0.7363282 -0.926758,0 -1.459961,0.7363282 -0.526855,0.7299804 -0.526855,2.0185547 0,1.2885742 0.526855,2.0249023 0.533203,0.72998047 1.459961,0.72998047 0.926758,0 1.453613,-0.72998047 0.533204,-0.7363281 0.533204,-2.0249023 z"
             id="path2406" />
          <path
             d="m 73.008194,-3.8466797 v 0.5712891 h -5.370117 q 0.07617,1.2060547 0.723633,1.8408203 0.653808,0.62841796 1.815429,0.62841796 0.672852,0 1.30127,-0.16503907 0.634765,-0.16503909 1.256836,-0.49511719 v 1.10449219 q -0.628418,0.26660157 -1.288574,0.40625 -0.660157,0.13964844 -1.339356,0.13964844 -1.701172,0 -2.697754,-0.99023437 -0.990234,-0.99023436 -0.990234,-2.67871096 0,-1.7456054 0.939453,-2.7675781 0.945801,-1.0283203 2.54541,-1.0283203 1.43457,0 2.266113,0.9267578 0.837891,0.9204102 0.837891,2.5073242 z m -1.167969,-0.3427734 q -0.0127,-0.9584961 -0.539551,-1.5297852 -0.520507,-0.571289 -1.383789,-0.571289 -0.977539,0 -1.567871,0.5522461 -0.583984,0.552246 -0.672851,1.5551757 z"
             id="path2408" />
          <path
             d="M 80.83181,-4.2910156 V 0 h -1.167969 v -4.2529297 q 0,-1.0092773 -0.393554,-1.5107422 -0.393555,-0.5014648 -1.180665,-0.5014648 -0.9458,0 -1.491699,0.6030273 -0.545898,0.6030274 -0.545898,1.644043 V 0 h -1.174317 v -7.109375 h 1.174317 v 1.1044922 q 0.418945,-0.6411133 0.983887,-0.9584961 0.571289,-0.3173828 1.313964,-0.3173828 1.225098,0 1.853516,0.7617187 0.628418,0.7553711 0.628418,2.2280274 z"
             id="path2410" />
        </g>
        <g
           id="g38"
           transform="scale(1,-1)">
          <path
             d="m 167.398,-46.297 16.204,-34.199"
             stroke="#000000"
             style="fill:none;stroke:#ffffff;stroke-width:0.36;stroke-linecap:butt;stroke-linejoin:bevel;stroke-miterlimit:10;stroke-dasharray:none;stroke-opacity:1"
             id="path40" />
        </g>
        <g
           id="g42"
           transform="scale(1,-1)">
          <path
             d="M 183.602,-80.496 V -94.895"
             stroke="#000000"
             style="fill:none;stroke:#ffffff;stroke-width:0.72;stroke-linecap:square;stroke-linejoin:miter;stroke-miterlimit:10;stroke-dasharray:none;stroke-opacity:1"
             id="path44" />
        </g>
        <g
           id="g46"
           transform="scale(1,-1)">
          <path
             d="m 183.602,-48.098 v 18"
             stroke="#000000"
             style="fill:none;stroke:#ffffff;stroke-width:0.72;stroke-linecap:square;stroke-linejoin:miter;stroke-miterlimit:10;stroke-dasharray:none;stroke-opacity:1"
             id="path48" />
        </g>
        <g
           id="g50"
           transform="scale(1,-1)">
          <path
             d="m 183.602,-49.895 h -18"
             stroke="#000000"
             style="fill:none;stroke:#ffffff;stroke-width:0.36;stroke-linecap:butt;stroke-linejoin:bevel;stroke-miterlimit:10;stroke-dasharray:none;stroke-opacity:1"
             id="path52" />
        </g>
        <g
           id="g54"
           transform="scale(1,-1)">
          <path
             d="m 183.602,-49.895 v 1.797"
             stroke="#000000"
             style="fill:none;stroke:#ffffff;stroke-width:0.36;stroke-linecap:butt;stroke-linejoin:bevel;stroke-miterlimit:10;stroke-dasharray:none;stroke-opacity:1"
             id="path56" />
        </g>
        <g
           aria-label="normal close"
           transform="translate(140.39844,114.16406)"
           id="text60"
           style="font-size:13px;font-family:'DejaVu Sans';-inkscape-font-specification:DejaVuSans;fill:#ffffff">
          <path
             d="M 7.1347656,-4.2910156 V 0 H 5.9667969 v -4.2529297 q 0,-1.0092773 -0.3935547,-1.5107422 -0.3935547,-0.5014648 -1.1806641,-0.5014648 -0.9458008,0 -1.4916992,0.6030273 -0.5458984,0.6030274 -0.5458984,1.644043 V 0 H 1.1806641 v -7.109375 h 1.1743164 v 1.1044922 q 0.4189453,-0.6411133 0.9838867,-0.9584961 0.5712891,-0.3173828 1.3139648,-0.3173828 1.2250977,0 1.8535157,0.7617187 0.6284179,0.7553711 0.6284179,2.2280274 z"
             id="path2369" />
          <path
             d="m 12.208985,-6.2905273 q -0.939453,0 -1.485351,0.7363281 -0.545899,0.7299805 -0.545899,2.0058594 0,1.2758789 0.539551,2.012207 0.545899,0.72998046 1.491699,0.72998046 0.933106,0 1.479004,-0.73632816 0.545899,-0.7363281 0.545899,-2.0058593 0,-1.2631836 -0.545899,-1.9995118 -0.545898,-0.7426757 -1.479004,-0.7426757 z m 0,-0.9902344 q 1.523438,0 2.393067,0.9902344 0.869629,0.9902343 0.869629,2.7421875 0,1.7456054 -0.869629,2.74218746 -0.869629,0.99023437 -2.393067,0.99023437 -1.529785,0 -2.3994137,-0.99023437 Q 8.94629,-1.8027344 8.94629,-3.5483398 q 0,-1.7519532 0.8632813,-2.7421875 0.8696287,-0.9902344 2.3994137,-0.9902344 z"
             id="path2371" />
          <path
             d="m 21.451736,-6.0175781 q -0.196777,-0.1142578 -0.43164,-0.1650391 -0.228516,-0.057129 -0.507813,-0.057129 -0.990234,0 -1.523437,0.6474609 -0.526856,0.6411133 -0.526856,1.847168 V 0 h -1.174316 v -7.109375 h 1.174316 v 1.1044922 q 0.368164,-0.6474609 0.958496,-0.9584961 0.590332,-0.3173828 1.434571,-0.3173828 0.120605,0 0.266601,0.019043 0.145996,0.012695 0.323731,0.044434 z"
             id="path2373" />
          <path
             d="m 27.976267,-5.7446289 q 0.437988,-0.7871094 1.047363,-1.1616211 0.609375,-0.3745117 1.43457,-0.3745117 1.11084,0 1.713868,0.7807617 0.603027,0.7744141 0.603027,2.2089844 V 0 h -1.174316 v -4.2529297 q 0,-1.0219726 -0.361817,-1.5170898 -0.361816,-0.4951172 -1.104492,-0.4951172 -0.907715,0 -1.43457,0.6030273 -0.526856,0.6030274 -0.526856,1.644043 V 0 h -1.174316 v -4.2529297 q 0,-1.0283203 -0.361817,-1.5170898 -0.361816,-0.4951172 -1.117187,-0.4951172 -0.89502,0 -1.421875,0.609375 -0.526856,0.6030273 -0.526856,1.6376953 V 0 h -1.174316 v -7.109375 h 1.174316 v 1.1044922 q 0.399903,-0.6538086 0.958497,-0.9648438 0.558593,-0.3110351 1.32666,-0.3110351 0.774414,0 1.313965,0.3935547 0.545898,0.3935547 0.806152,1.1425781 z"
             id="path2375" />
          <path
             d="m 38.334076,-3.5737305 q -1.415527,0 -1.961426,0.3237305 -0.545898,0.3237305 -0.545898,1.1044922 0,0.6220703 0.40625,0.9902344 0.412597,0.36181637 1.117187,0.36181637 0.971192,0 1.555176,-0.68554687 0.590332,-0.6918945 0.590332,-1.8344727 v -0.2602539 z m 2.32959,-0.4824218 V 0 h -1.167969 v -1.0791016 q -0.399902,0.64746097 -0.996582,0.95849613 -0.59668,0.3046875 -1.459961,0.3046875 -1.091797,0 -1.739258,-0.609375 -0.641113,-0.61572263 -0.641113,-1.64404293 0,-1.1997071 0.799805,-1.8090821 0.806152,-0.609375 2.399414,-0.609375 h 1.637695 v -0.1142578 q 0,-0.8061523 -0.533203,-1.2441406 -0.526856,-0.4443359 -1.485352,-0.4443359 -0.609375,0 -1.187011,0.1459961 -0.577637,0.145996 -1.11084,0.4379882 v -1.0791015 q 0.641113,-0.2475586 1.24414,-0.3681641 0.603028,-0.1269531 1.174317,-0.1269531 1.54248,0 2.304199,0.7998047 0.761719,0.7998047 0.761719,2.4248047 z"
             id="path2377" />
          <path
             d="M 43.098122,-9.8769531 H 44.26609 V 0 h -1.167968 z"
             id="path2379" />
          <path
             d="m 55.897339,-6.8364258 v 1.0917969 q -0.495117,-0.2729492 -0.996582,-0.40625 -0.495117,-0.1396484 -1.00293,-0.1396484 -1.13623,0 -1.764648,0.7236328 -0.628418,0.7172851 -0.628418,2.0185547 0,1.3012695 0.628418,2.0249023 0.628418,0.71728516 1.764648,0.71728516 0.507813,0 1.00293,-0.13330079 0.501465,-0.13964847 0.996582,-0.41259767 v 1.07910158 q -0.48877,0.22851563 -1.015625,0.34277344 -0.520508,0.11425781 -1.11084,0.11425781 -1.605957,0 -2.551758,-1.00927734 -0.945801,-1.00927739 -0.945801,-2.72314449 0,-1.7392579 0.952149,-2.7358399 0.958496,-0.996582 2.621582,-0.996582 0.539551,0 1.053711,0.1142578 0.51416,0.1079102 0.996582,0.3300781 z"
             id="path2381" />
          <path
             d="m 57.918133,-9.8769531 h 1.167969 V 0 h -1.167969 z"
             id="path2383" />
          <path
             d="m 64.235016,-6.2905273 q -0.939453,0 -1.485352,0.7363281 -0.545898,0.7299805 -0.545898,2.0058594 0,1.2758789 0.539551,2.012207 0.545898,0.72998046 1.491699,0.72998046 0.933105,0 1.479004,-0.73632816 0.545898,-0.7363281 0.545898,-2.0058593 0,-1.2631836 -0.545898,-1.9995118 -0.545899,-0.7426757 -1.479004,-0.7426757 z m 0,-0.9902344 q 1.523437,0 2.393066,0.9902344 0.869629,0.9902343 0.869629,2.7421875 0,1.7456054 -0.869629,2.74218746 -0.869629,0.99023437 -2.393066,0.99023437 -1.529785,0 -2.399414,-0.99023437 -0.863281,-0.99658206 -0.863281,-2.74218746 0,-1.7519532 0.863281,-2.7421875 0.869629,-0.9902344 2.399414,-0.9902344 z"
             id="path2385" />
          <path
             d="m 73.955368,-6.8999023 v 1.1044921 q -0.495117,-0.2539062 -1.02832,-0.3808593 -0.533203,-0.1269532 -1.104492,-0.1269532 -0.869629,0 -1.307618,0.2666016 -0.43164,0.2666016 -0.43164,0.7998047 0,0.40625 0.311035,0.6411133 0.311035,0.2285156 1.250488,0.4379883 l 0.399903,0.088867 q 1.24414,0.2666016 1.764648,0.7553711 0.526855,0.4824219 0.526855,1.3520508 0,0.99023439 -0.787109,1.56787111 -0.780762,0.57763672 -2.151855,0.57763672 -0.571289,0 -1.19336,-0.11425781 -0.615722,-0.10791016 -1.301269,-0.33007813 V -1.4663086 q 0.647461,0.3364258 1.275879,0.50781251 0.628418,0.16503906 1.24414,0.16503906 0.825196,0 1.269531,-0.27929687 0.444336,-0.2856445 0.444336,-0.7998047 0,-0.4760742 -0.32373,-0.7299805 -0.317383,-0.2539062 -1.402832,-0.4887695 l -0.40625,-0.095215 q -1.085449,-0.2285157 -1.567871,-0.6982422 -0.482422,-0.4760742 -0.482422,-1.3012696 0,-1.0029296 0.710937,-1.5488281 0.710938,-0.5458984 2.018555,-0.5458984 0.647461,0 1.21875,0.095215 0.571289,0.095215 1.053711,0.2856446 z"
             id="path2387" />
          <path
             d="m 82.225197,-3.8466797 v 0.5712891 H 76.85508 q 0.07617,1.2060547 0.723632,1.8408203 0.653809,0.62841796 1.81543,0.62841796 0.672852,0 1.30127,-0.16503907 0.634765,-0.16503909 1.256836,-0.49511719 v 1.10449219 q -0.628418,0.26660157 -1.288575,0.40625 -0.660156,0.13964844 -1.339355,0.13964844 -1.701172,0 -2.697754,-0.99023437 -0.990234,-0.99023436 -0.990234,-2.67871096 0,-1.7456054 0.939453,-2.7675781 0.945801,-1.0283203 2.54541,-1.0283203 1.43457,0 2.266113,0.9267578 0.837891,0.9204102 0.837891,2.5073242 z m -1.167969,-0.3427734 q -0.01269,-0.9584961 -0.539551,-1.5297852 -0.520508,-0.571289 -1.383789,-0.571289 -0.977539,0 -1.567871,0.5522461 -0.583984,0.552246 -0.672851,1.5551757 z"
             id="path2389" />
        </g>
        <g
           id="g62"
           transform="scale(1,-1)">
          <path
             d="m 277.199,-109.297 h 14.403"
             stroke="#000000"
             style="fill:none;stroke:#ffffff;stroke-width:0.72;stroke-linecap:square;stroke-linejoin:miter;stroke-miterlimit:10;stroke-dasharray:none;stroke-opacity:1"
             id="path64" />
        </g>
        <g
           id="g70"
           transform="scale(1,-1)">
          <path
             d="M 342,-109.297 H 327.602"
             stroke="#000000"
             style="fill:none;stroke:#ffffff;stroke-width:0.72;stroke-linecap:square;stroke-linejoin:miter;stroke-miterlimit:10;stroke-dasharray:none;stroke-opacity:1"
             id="path72" />
        </g>
        <g
           id="g78"
           transform="scale(1,-1)">
          <path
             d="M 297.359,-111.098 H 321.84"
             stroke="#000000"
             style="fill:none;stroke:#ffffff;stroke-width:0.36;stroke-linecap:butt;stroke-linejoin:bevel;stroke-miterlimit:10;stroke-dasharray:none;stroke-opacity:1"
             id="path80" />
        </g>
        <g
           id="g82"
           transform="scale(1,-1)">
          <path
             d="m 300.238,-109.297 c 0,1.922 -2.879,1.922 -2.879,0 0,-1.918 2.879,-1.918 2.879,0"
             stroke="#000000"
             style="fill:none;stroke:#ffffff;stroke-width:0.36;stroke-linecap:butt;stroke-linejoin:bevel;stroke-miterlimit:10;stroke-dasharray:none;stroke-opacity:1"
             id="path84" />
        </g>
        <g
           id="g86"
           transform="scale(1,-1)">
          <path
             d="m 321.84,-109.297 c 0,1.922 -2.879,1.922 -2.879,0 0,-1.918 2.879,-1.918 2.879,0"
             stroke="#000000"
             style="fill:none;stroke:#ffffff;stroke-width:0.36;stroke-linecap:butt;stroke-linejoin:bevel;stroke-miterlimit:10;stroke-dasharray:none;stroke-opacity:1"
             id="path88" />
        </g>
        <g
           id="g90"
           transform="scale(1,-1)">
          <path
             d="m 291.602,-109.297 h 5.757"
             stroke="#000000"
             style="fill:none;stroke:#ffffff;stroke-width:0.36;stroke-linecap:butt;stroke-linejoin:bevel;stroke-miterlimit:10;stroke-dasharray:none;stroke-opacity:1"
             id="path92" />
        </g>
        <g
           id="g94"
           transform="scale(1,-1)">
          <path
             d="m 321.84,-109.297 h 5.762"
             stroke="#000000"
             style="fill:none;stroke:#ffffff;stroke-width:0.36;stroke-linecap:butt;stroke-linejoin:bevel;stroke-miterlimit:10;stroke-dasharray:none;stroke-opacity:1"
             id="path96" />
        </g>
        <g
           id="g98"
           transform="scale(1,-1)">
          <path
             d="m 309.602,-111.098 v 5.403"
             stroke="#000000"
             style="fill:none;stroke:#ffffff;stroke-width:0.36;stroke-linecap:butt;stroke-linejoin:bevel;stroke-miterlimit:10;stroke-dasharray:none;stroke-opacity:1"
             id="path100" />
        </g>
        <g
           id="g102"
           transform="scale(1,-1)">
          <path
             d="m 306.719,-100.297 h 5.761"
             stroke="#000000"
             style="fill:none;stroke:#ffffff;stroke-width:0.36;stroke-linecap:butt;stroke-linejoin:bevel;stroke-miterlimit:10;stroke-dasharray:none;stroke-opacity:1"
             id="path104" />
        </g>
        <g
           id="g106"
           transform="scale(1,-1)">
          <path
             d="m 308.16,-102.816 h 2.879"
             stroke="#000000"
             style="fill:none;stroke:#ffffff;stroke-width:0.36;stroke-linecap:butt;stroke-linejoin:bevel;stroke-miterlimit:10;stroke-dasharray:none;stroke-opacity:1"
             id="path108" />
        </g>
        <g
           id="g110"
           transform="scale(1,-1)">
          <path
             d="m 311.039,-102.816 -1.437,-2.879"
             stroke="#000000"
             style="fill:none;stroke:#ffffff;stroke-width:0.36;stroke-linecap:butt;stroke-linejoin:bevel;stroke-miterlimit:10;stroke-dasharray:none;stroke-opacity:1"
             id="path112" />
        </g>
        <g
           id="g114"
           transform="scale(1,-1)">
          <path
             d="m 308.16,-102.816 1.442,-2.879"
             stroke="#000000"
             style="fill:none;stroke:#ffffff;stroke-width:0.36;stroke-linecap:butt;stroke-linejoin:bevel;stroke-miterlimit:10;stroke-dasharray:none;stroke-opacity:1"
             id="path116" />
        </g>
        <g
           id="g118"
           transform="scale(1,-1)">
          <path
             d="m 309.602,-102.816 v 2.519"
             stroke="#000000"
             style="fill:none;stroke:#ffffff;stroke-width:0.36;stroke-linecap:butt;stroke-linejoin:bevel;stroke-miterlimit:10;stroke-dasharray:none;stroke-opacity:1"
             id="path120" />
        </g>
        <g
           aria-label="push button - NC"
           transform="translate(277.19922,87.695312)"
           id="text124"
           style="font-size:13px;font-family:'DejaVu Sans';-inkscape-font-specification:DejaVuSans;fill:#ffffff">
          <path
             d="M 2.3549805,-1.0664062 V 2.7041016 H 1.1806641 V -7.109375 h 1.1743164 v 1.0791016 q 0.368164,-0.6347657 0.9267578,-0.9394532 0.5649414,-0.3110351 1.3457031,-0.3110351 1.2949219,0 2.1010742,1.0283203 0.8125,1.0283203 0.8125,2.7041016 0,1.6757812 -0.8125,2.70410152 -0.8061523,1.02832031 -2.1010742,1.02832031 -0.7807617,0 -1.3457031,-0.3046875 Q 2.7231445,-0.43164063 2.3549805,-1.0664062 Z m 3.9736328,-2.4819336 q 0,-1.2885743 -0.5332031,-2.0185547 -0.5268555,-0.7363282 -1.4536133,-0.7363282 -0.9267578,0 -1.459961,0.7363282 -0.5268554,0.7299804 -0.5268554,2.0185547 0,1.2885742 0.5268554,2.0249023 0.5332032,0.72998047 1.459961,0.72998047 0.9267578,0 1.4536133,-0.72998047 0.5332031,-0.7363281 0.5332031,-2.0249023 z"
             id="path2413" />
          <path
             d="M 9.3464975,-2.8056641 V -7.109375 h 1.1679685 v 4.2592773 q 0,1.0092774 0.393555,1.5170899 0.393555,0.50146483 1.180664,0.50146483 0.945801,0 1.491699,-0.60302733 0.552246,-0.6030274 0.552246,-1.644043 V -7.109375 h 1.167969 V 0 H 14.13263 v -1.0917969 q -0.425293,0.64746096 -0.990234,0.96484378 -0.558594,0.31103515 -1.30127,0.31103515 -1.225097,0 -1.8598628,-0.76171875 Q 9.3464975,-1.3393555 9.3464975,-2.8056641 Z m 2.9389645,-4.4750976 z"
             id="path2415" />
          <path
             d="m 22.228334,-6.8999023 v 1.1044921 q -0.495117,-0.2539062 -1.02832,-0.3808593 -0.533203,-0.1269532 -1.104492,-0.1269532 -0.869629,0 -1.307617,0.2666016 -0.431641,0.2666016 -0.431641,0.7998047 0,0.40625 0.311035,0.6411133 0.311035,0.2285156 1.250489,0.4379883 l 0.399902,0.088867 q 1.244141,0.2666016 1.764648,0.7553711 0.526856,0.4824219 0.526856,1.3520508 0,0.99023439 -0.78711,1.56787111 -0.780761,0.57763672 -2.151855,0.57763672 -0.571289,0 -1.193359,-0.11425781 -0.615723,-0.10791016 -1.30127,-0.33007813 V -1.4663086 q 0.647461,0.3364258 1.275879,0.50781251 0.628418,0.16503906 1.244141,0.16503906 0.825195,0 1.269531,-0.27929687 0.444336,-0.2856445 0.444336,-0.7998047 0,-0.4760742 -0.323731,-0.7299805 -0.317383,-0.2539062 -1.402832,-0.4887695 l -0.40625,-0.095215 q -1.085449,-0.2285157 -1.567871,-0.6982422 -0.482422,-0.4760742 -0.482422,-1.3012696 0,-1.0029296 0.710938,-1.5488281 0.710937,-0.5458984 2.018554,-0.5458984 0.647461,0 1.21875,0.095215 0.57129,0.095215 1.053711,0.2856446 z"
             id="path2417" />
          <path
             d="M 30.36578,-4.2910156 V 0 h -1.167969 v -4.2529297 q 0,-1.0092773 -0.393555,-1.5107422 -0.393554,-0.5014648 -1.180664,-0.5014648 -0.9458,0 -1.491699,0.6030273 -0.545898,0.6030274 -0.545898,1.644043 V 0 h -1.174317 v -9.8769531 h 1.174317 v 3.8720703 q 0.418945,-0.6411133 0.983886,-0.9584961 0.57129,-0.3173828 1.313965,-0.3173828 1.225098,0 1.853516,0.7617187 0.628418,0.7553711 0.628418,2.2280274 z"
             id="path2419" />
          <path
             d="m 41.870636,-3.5483398 q 0,-1.2885743 -0.533203,-2.0185547 -0.526856,-0.7363282 -1.453613,-0.7363282 -0.926758,0 -1.459961,0.7363282 -0.526856,0.7299804 -0.526856,2.0185547 0,1.2885742 0.526856,2.0249023 0.533203,0.72998047 1.459961,0.72998047 0.926757,0 1.453613,-0.72998047 0.533203,-0.7363281 0.533203,-2.0249023 z m -3.973633,-2.4819336 q 0.368164,-0.6347657 0.926758,-0.9394532 0.564941,-0.3110351 1.345703,-0.3110351 1.294922,0 2.101074,1.0283203 0.8125,1.0283203 0.8125,2.7041016 0,1.6757812 -0.8125,2.70410152 -0.806152,1.02832031 -2.101074,1.02832031 -0.780762,0 -1.345703,-0.3046875 -0.558594,-0.31103516 -0.926758,-0.94580073 V 0 h -1.174316 v -9.8769531 h 1.174316 z"
             id="path2421" />
          <path
             d="M 44.888519,-2.8056641 V -7.109375 h 1.167969 v 4.2592773 q 0,1.0092774 0.393555,1.5170899 0.393554,0.50146483 1.180664,0.50146483 0.945801,0 1.491699,-0.60302733 0.552246,-0.6030274 0.552246,-1.644043 V -7.109375 h 1.167969 V 0 h -1.167969 v -1.0917969 q -0.425293,0.64746096 -0.990234,0.96484378 -0.558594,0.31103515 -1.30127,0.31103515 -1.225097,0 -1.859863,-0.76171875 -0.634766,-0.76171878 -0.634766,-2.22802738 z m 2.938965,-4.4750976 z"
             id="path2423" />
          <path
             d="m 54.393402,-9.1279297 v 2.0185547 h 2.405762 v 0.9077148 h -2.405762 v 3.859375 q 0,0.869629 0.234863,1.1171875 0.241211,0.24755864 0.971192,0.24755864 h 1.199707 V 0 h -1.199707 q -1.352051,0 -1.866211,-0.50146484 -0.51416,-0.50781246 -0.51416,-1.84082036 v -3.859375 H 52.362152 V -7.109375 h 0.856934 v -2.0185547 z"
             id="path2425" />
          <path
             d="m 59.489407,-9.1279297 v 2.0185547 h 2.405761 v 0.9077148 h -2.405761 v 3.859375 q 0,0.869629 0.234863,1.1171875 0.241211,0.24755864 0.971191,0.24755864 h 1.199707 V 0 H 60.695461 Q 59.34341,0 58.82925,-0.50146484 58.31509,-1.0092773 58.31509,-2.3422852 v -3.859375 H 57.458157 V -7.109375 h 0.856933 v -2.0185547 z"
             id="path2427" />
          <path
             d="m 66.18502,-6.2905273 q -0.939453,0 -1.485351,0.7363281 -0.545899,0.7299805 -0.545899,2.0058594 0,1.2758789 0.539551,2.012207 0.545899,0.72998046 1.491699,0.72998046 0.933106,0 1.479004,-0.73632816 0.545899,-0.7363281 0.545899,-2.0058593 0,-1.2631836 -0.545899,-1.9995118 -0.545898,-0.7426757 -1.479004,-0.7426757 z m 0,-0.9902344 q 1.523438,0 2.393067,0.9902344 0.869629,0.9902343 0.869629,2.7421875 0,1.7456054 -0.869629,2.74218746 -0.869629,0.99023437 -2.393067,0.99023437 -1.529785,0 -2.399414,-0.99023437 -0.863281,-0.99658206 -0.863281,-2.74218746 0,-1.7519532 0.863281,-2.7421875 0.869629,-0.9902344 2.399414,-0.9902344 z"
             id="path2429" />
          <path
             d="M 77.243813,-4.2910156 V 0 h -1.167969 v -4.2529297 q 0,-1.0092773 -0.393555,-1.5107422 -0.393555,-0.5014648 -1.180664,-0.5014648 -0.945801,0 -1.491699,0.6030273 -0.545899,0.6030274 -0.545899,1.644043 V 0 h -1.174316 v -7.109375 h 1.174316 v 1.1044922 q 0.418946,-0.6411133 0.983887,-0.9584961 0.571289,-0.3173828 1.313965,-0.3173828 1.225098,0 1.853516,0.7617187 0.628418,0.7553711 0.628418,2.2280274 z"
             id="path2431" />
          <path
             d="m 83.041817,-4.081543 h 3.421386 v 1.0410157 h -3.421386 z"
             id="path2433" />
          <path
             d="m 92.444939,-9.4770508 h 1.726562 l 4.202149,7.9282227 v -7.9282227 h 1.24414 V 0 H 97.891228 L 93.689079,-7.9282227 V 0 h -1.24414 z"
             id="path2435" />
          <path
             d="m 109.26562,-8.7470703 v 1.3520508 q -0.64746,-0.6030274 -1.38379,-0.9013672 -0.72998,-0.2983399 -1.55518,-0.2983399 -1.625,0 -2.48828,0.9965821 -0.86328,0.9902343 -0.86328,2.8691406 0,1.8725586 0.86328,2.8691406 0.86328,0.99023439 2.48828,0.99023439 0.8252,0 1.55518,-0.29833979 0.73633,-0.2983399 1.38379,-0.9013672 v 1.33935543 q -0.67285,0.45703125 -1.42823,0.68554688 -0.74902,0.22851562 -1.58691,0.22851562 -2.15185,0 -3.38965,-1.31396483 -1.23779,-1.3203125 -1.23779,-3.5991211 0,-2.2851563 1.23779,-3.5991211 1.2378,-1.3203125 3.38965,-1.3203125 0.85059,0 1.59961,0.2285156 0.75537,0.222168 1.41553,0.6728516 z"
             id="path2437" />
        </g>
        <g
           id="g126"
           transform="scale(1,-1)">
          <path
             d="m 277.199,-51.695 h 14.403"
             stroke="#000000"
             style="fill:none;stroke:#ffffff;stroke-width:0.72;stroke-linecap:square;stroke-linejoin:miter;stroke-miterlimit:10;stroke-dasharray:none;stroke-opacity:1"
             id="path128" />
        </g>
        <g
           id="g134"
           transform="scale(1,-1)">
          <path
             d="M 342,-51.695 H 327.602"
             stroke="#000000"
             style="fill:none;stroke:#ffffff;stroke-width:0.72;stroke-linecap:square;stroke-linejoin:miter;stroke-miterlimit:10;stroke-dasharray:none;stroke-opacity:1"
             id="path136" />
        </g>
        <g
           id="g142"
           transform="scale(1,-1)">
          <path
             d="M 297.359,-44.496 H 321.84"
             stroke="#000000"
             style="fill:none;stroke:#ffffff;stroke-width:0.36;stroke-linecap:butt;stroke-linejoin:bevel;stroke-miterlimit:10;stroke-dasharray:none;stroke-opacity:1"
             id="path144" />
        </g>
        <g
           id="g146"
           transform="scale(1,-1)">
          <path
             d="m 300.238,-51.695 c 0,1.918 -2.879,1.918 -2.879,0 0,-1.922 2.879,-1.922 2.879,0"
             stroke="#000000"
             style="fill:none;stroke:#ffffff;stroke-width:0.36;stroke-linecap:butt;stroke-linejoin:bevel;stroke-miterlimit:10;stroke-dasharray:none;stroke-opacity:1"
             id="path148" />
        </g>
        <g
           id="g150"
           transform="scale(1,-1)">
          <path
             d="m 321.84,-51.695 c 0,1.918 -2.879,1.918 -2.879,0 0,-1.922 2.879,-1.922 2.879,0"
             stroke="#000000"
             style="fill:none;stroke:#ffffff;stroke-width:0.36;stroke-linecap:butt;stroke-linejoin:bevel;stroke-miterlimit:10;stroke-dasharray:none;stroke-opacity:1"
             id="path152" />
        </g>
        <g
           id="g154"
           transform="scale(1,-1)">
          <path
             d="m 309.602,-44.496 v 5.398"
             stroke="#000000"
             style="fill:none;stroke:#ffffff;stroke-width:0.36;stroke-linecap:butt;stroke-linejoin:bevel;stroke-miterlimit:10;stroke-dasharray:none;stroke-opacity:1"
             id="path156" />
        </g>
        <g
           id="g158"
           transform="scale(1,-1)">
          <path
             d="m 306.719,-33.695 h 5.761"
             stroke="#000000"
             style="fill:none;stroke:#ffffff;stroke-width:0.36;stroke-linecap:butt;stroke-linejoin:bevel;stroke-miterlimit:10;stroke-dasharray:none;stroke-opacity:1"
             id="path160" />
        </g>
        <g
           id="g162"
           transform="scale(1,-1)">
          <path
             d="m 308.16,-36.215 h 2.879"
             stroke="#000000"
             style="fill:none;stroke:#ffffff;stroke-width:0.36;stroke-linecap:butt;stroke-linejoin:bevel;stroke-miterlimit:10;stroke-dasharray:none;stroke-opacity:1"
             id="path164" />
        </g>
        <g
           id="g166"
           transform="scale(1,-1)">
          <path
             d="m 311.039,-36.215 -1.437,-2.883"
             stroke="#000000"
             style="fill:none;stroke:#ffffff;stroke-width:0.36;stroke-linecap:butt;stroke-linejoin:bevel;stroke-miterlimit:10;stroke-dasharray:none;stroke-opacity:1"
             id="path168" />
        </g>
        <g
           id="g170"
           transform="scale(1,-1)">
          <path
             d="m 308.16,-36.215 1.442,-2.883"
             stroke="#000000"
             style="fill:none;stroke:#ffffff;stroke-width:0.36;stroke-linecap:butt;stroke-linejoin:bevel;stroke-miterlimit:10;stroke-dasharray:none;stroke-opacity:1"
             id="path172" />
        </g>
        <g
           id="g174"
           transform="scale(1,-1)">
          <path
             d="m 291.602,-51.695 h 5.757"
             stroke="#000000"
             style="fill:none;stroke:#ffffff;stroke-width:0.36;stroke-linecap:butt;stroke-linejoin:bevel;stroke-miterlimit:10;stroke-dasharray:none;stroke-opacity:1"
             id="path176" />
        </g>
        <g
           id="g178"
           transform="scale(1,-1)">
          <path
             d="m 321.84,-51.695 h 5.762"
             stroke="#000000"
             style="fill:none;stroke:#ffffff;stroke-width:0.36;stroke-linecap:butt;stroke-linejoin:bevel;stroke-miterlimit:10;stroke-dasharray:none;stroke-opacity:1"
             id="path180" />
        </g>
        <g
           id="g182"
           transform="scale(1,-1)">
          <path
             d="m 309.602,-36.215 v 2.52"
             stroke="#000000"
             style="fill:none;stroke:#ffffff;stroke-width:0.36;stroke-linecap:butt;stroke-linejoin:bevel;stroke-miterlimit:10;stroke-dasharray:none;stroke-opacity:1"
             id="path184" />
        </g>
        <g
           aria-label="push button - NO"
           transform="translate(277.19922,30.097656)"
           id="text188"
           style="font-size:13px;font-family:'DejaVu Sans';-inkscape-font-specification:DejaVuSans;fill:#ffffff">
          <path
             d="M 2.3549805,-1.0664062 V 2.7041016 H 1.1806641 V -7.109375 h 1.1743164 v 1.0791016 q 0.368164,-0.6347657 0.9267578,-0.9394532 0.5649414,-0.3110351 1.3457031,-0.3110351 1.2949219,0 2.1010742,1.0283203 0.8125,1.0283203 0.8125,2.7041016 0,1.6757812 -0.8125,2.70410152 -0.8061523,1.02832031 -2.1010742,1.02832031 -0.7807617,0 -1.3457031,-0.3046875 Q 2.7231445,-0.43164063 2.3549805,-1.0664062 Z m 3.9736328,-2.4819336 q 0,-1.2885743 -0.5332031,-2.0185547 -0.5268555,-0.7363282 -1.4536133,-0.7363282 -0.9267578,0 -1.459961,0.7363282 -0.5268554,0.7299804 -0.5268554,2.0185547 0,1.2885742 0.5268554,2.0249023 0.5332032,0.72998047 1.459961,0.72998047 0.9267578,0 1.4536133,-0.72998047 0.5332031,-0.7363281 0.5332031,-2.0249023 z"
             id="path2440" />
          <path
             d="M 9.3464975,-2.8056641 V -7.109375 h 1.1679685 v 4.2592773 q 0,1.0092774 0.393555,1.5170899 0.393555,0.50146483 1.180664,0.50146483 0.945801,0 1.491699,-0.60302733 0.552246,-0.6030274 0.552246,-1.644043 V -7.109375 h 1.167969 V 0 H 14.13263 v -1.0917969 q -0.425293,0.64746096 -0.990234,0.96484378 -0.558594,0.31103515 -1.30127,0.31103515 -1.225097,0 -1.8598628,-0.76171875 Q 9.3464975,-1.3393555 9.3464975,-2.8056641 Z m 2.9389645,-4.4750976 z"
             id="path2442" />
          <path
             d="m 22.228334,-6.8999023 v 1.1044921 q -0.495117,-0.2539062 -1.02832,-0.3808593 -0.533203,-0.1269532 -1.104492,-0.1269532 -0.869629,0 -1.307617,0.2666016 -0.431641,0.2666016 -0.431641,0.7998047 0,0.40625 0.311035,0.6411133 0.311035,0.2285156 1.250489,0.4379883 l 0.399902,0.088867 q 1.244141,0.2666016 1.764648,0.7553711 0.526856,0.4824219 0.526856,1.3520508 0,0.99023439 -0.78711,1.56787111 -0.780761,0.57763672 -2.151855,0.57763672 -0.571289,0 -1.193359,-0.11425781 -0.615723,-0.10791016 -1.30127,-0.33007813 V -1.4663086 q 0.647461,0.3364258 1.275879,0.50781251 0.628418,0.16503906 1.244141,0.16503906 0.825195,0 1.269531,-0.27929687 0.444336,-0.2856445 0.444336,-0.7998047 0,-0.4760742 -0.323731,-0.7299805 -0.317383,-0.2539062 -1.402832,-0.4887695 l -0.40625,-0.095215 q -1.085449,-0.2285157 -1.567871,-0.6982422 -0.482422,-0.4760742 -0.482422,-1.3012696 0,-1.0029296 0.710938,-1.5488281 0.710937,-0.5458984 2.018554,-0.5458984 0.647461,0 1.21875,0.095215 0.57129,0.095215 1.053711,0.2856446 z"
             id="path2444" />
          <path
             d="M 30.36578,-4.2910156 V 0 h -1.167969 v -4.2529297 q 0,-1.0092773 -0.393555,-1.5107422 -0.393554,-0.5014648 -1.180664,-0.5014648 -0.9458,0 -1.491699,0.6030273 -0.545898,0.6030274 -0.545898,1.644043 V 0 h -1.174317 v -9.8769531 h 1.174317 v 3.8720703 q 0.418945,-0.6411133 0.983886,-0.9584961 0.57129,-0.3173828 1.313965,-0.3173828 1.225098,0 1.853516,0.7617187 0.628418,0.7553711 0.628418,2.2280274 z"
             id="path2446" />
          <path
             d="m 41.870636,-3.5483398 q 0,-1.2885743 -0.533203,-2.0185547 -0.526856,-0.7363282 -1.453613,-0.7363282 -0.926758,0 -1.459961,0.7363282 -0.526856,0.7299804 -0.526856,2.0185547 0,1.2885742 0.526856,2.0249023 0.533203,0.72998047 1.459961,0.72998047 0.926757,0 1.453613,-0.72998047 0.533203,-0.7363281 0.533203,-2.0249023 z m -3.973633,-2.4819336 q 0.368164,-0.6347657 0.926758,-0.9394532 0.564941,-0.3110351 1.345703,-0.3110351 1.294922,0 2.101074,1.0283203 0.8125,1.0283203 0.8125,2.7041016 0,1.6757812 -0.8125,2.70410152 -0.806152,1.02832031 -2.101074,1.02832031 -0.780762,0 -1.345703,-0.3046875 -0.558594,-0.31103516 -0.926758,-0.94580073 V 0 h -1.174316 v -9.8769531 h 1.174316 z"
             id="path2448" />
          <path
             d="M 44.888519,-2.8056641 V -7.109375 h 1.167969 v 4.2592773 q 0,1.0092774 0.393555,1.5170899 0.393554,0.50146483 1.180664,0.50146483 0.945801,0 1.491699,-0.60302733 0.552246,-0.6030274 0.552246,-1.644043 V -7.109375 h 1.167969 V 0 h -1.167969 v -1.0917969 q -0.425293,0.64746096 -0.990234,0.96484378 -0.558594,0.31103515 -1.30127,0.31103515 -1.225097,0 -1.859863,-0.76171875 -0.634766,-0.76171878 -0.634766,-2.22802738 z m 2.938965,-4.4750976 z"
             id="path2450" />
          <path
             d="m 54.393402,-9.1279297 v 2.0185547 h 2.405762 v 0.9077148 h -2.405762 v 3.859375 q 0,0.869629 0.234863,1.1171875 0.241211,0.24755864 0.971192,0.24755864 h 1.199707 V 0 h -1.199707 q -1.352051,0 -1.866211,-0.50146484 -0.51416,-0.50781246 -0.51416,-1.84082036 v -3.859375 H 52.362152 V -7.109375 h 0.856934 v -2.0185547 z"
             id="path2452" />
          <path
             d="m 59.489407,-9.1279297 v 2.0185547 h 2.405761 v 0.9077148 h -2.405761 v 3.859375 q 0,0.869629 0.234863,1.1171875 0.241211,0.24755864 0.971191,0.24755864 h 1.199707 V 0 H 60.695461 Q 59.34341,0 58.82925,-0.50146484 58.31509,-1.0092773 58.31509,-2.3422852 v -3.859375 H 57.458157 V -7.109375 h 0.856933 v -2.0185547 z"
             id="path2454" />
          <path
             d="m 66.18502,-6.2905273 q -0.939453,0 -1.485351,0.7363281 -0.545899,0.7299805 -0.545899,2.0058594 0,1.2758789 0.539551,2.012207 0.545899,0.72998046 1.491699,0.72998046 0.933106,0 1.479004,-0.73632816 0.545899,-0.7363281 0.545899,-2.0058593 0,-1.2631836 -0.545899,-1.9995118 -0.545898,-0.7426757 -1.479004,-0.7426757 z m 0,-0.9902344 q 1.523438,0 2.393067,0.9902344 0.869629,0.9902343 0.869629,2.7421875 0,1.7456054 -0.869629,2.74218746 -0.869629,0.99023437 -2.393067,0.99023437 -1.529785,0 -2.399414,-0.99023437 -0.863281,-0.99658206 -0.863281,-2.74218746 0,-1.7519532 0.863281,-2.7421875 0.869629,-0.9902344 2.399414,-0.9902344 z"
             id="path2456" />
          <path
             d="M 77.243813,-4.2910156 V 0 h -1.167969 v -4.2529297 q 0,-1.0092773 -0.393555,-1.5107422 -0.393555,-0.5014648 -1.180664,-0.5014648 -0.945801,0 -1.491699,0.6030273 -0.545899,0.6030274 -0.545899,1.644043 V 0 h -1.174316 v -7.109375 h 1.174316 v 1.1044922 q 0.418946,-0.6411133 0.983887,-0.9584961 0.571289,-0.3173828 1.313965,-0.3173828 1.225098,0 1.853516,0.7617187 0.628418,0.7553711 0.628418,2.2280274 z"
             id="path2458" />
          <path
             d="m 83.041817,-4.081543 h 3.421386 v 1.0410157 h -3.421386 z"
             id="path2460" />
          <path
             d="m 92.444939,-9.4770508 h 1.726562 l 4.202149,7.9282227 v -7.9282227 h 1.24414 V 0 H 97.891228 L 93.689079,-7.9282227 V 0 h -1.24414 z"
             id="path2462" />
          <path
             d="m 106.01562,-8.6074219 q -1.39649,0 -2.22168,1.0410157 -0.81885,1.0410156 -0.81885,2.8374023 0,1.7900391 0.81885,2.8310547 0.82519,1.04101561 2.22168,1.04101561 1.39648,0 2.20898,-1.04101561 0.81885,-1.0410156 0.81885,-2.8310547 0,-1.7963867 -0.81885,-2.8374023 -0.8125,-1.0410157 -2.20898,-1.0410157 z m 0,-1.0410156 q 1.99316,0 3.18652,1.3393555 1.19336,1.3330078 1.19336,3.5800781 0,2.2407226 -1.19336,3.5800781 -1.19336,1.33300783 -3.18652,1.33300783 -1.99951,0 -3.19922,-1.33300783 -1.19336,-1.3330078 -1.19336,-3.5800781 0,-2.2470703 1.19336,-3.5800781 1.19971,-1.3393555 3.19922,-1.3393555 z"
             id="path2464" />
        </g>
      </g>
    </g>
  </g>
</svg>
