<?xml version="1.0" encoding="UTF-8" standalone="no"?>
<!--
SPDX-FileCopyrightText: Robert Ryszard Paciorek <rrp@opcode.eu.org>
SPDX-License-Identifier: MIT
-->

<svg
   version="1.1"
   id="svg2"
   width="447.45599"
   height="176.16"
   viewBox="0 0 447.45599 176.16"
   sodipodi:docname="resistor-divider.svg"
   inkscape:version="1.2.2 (b0a8486541, 2022-12-01)"
   xmlns:inkscape="http://www.inkscape.org/namespaces/inkscape"
   xmlns:sodipodi="http://sodipodi.sourceforge.net/DTD/sodipodi-0.dtd"
   xmlns="http://www.w3.org/2000/svg"
   xmlns:svg="http://www.w3.org/2000/svg">
  <sodipodi:namedview
     id="namedview377"
     pagecolor="#afafaf"
     bordercolor="#666666"
     borderopacity="1.0"
     inkscape:showpageshadow="2"
     inkscape:pageopacity="0"
     inkscape:pagecheckerboard="0"
     inkscape:deskcolor="#d1d1d1"
     showgrid="false"
     inkscape:zoom="1.8946095"
     inkscape:cx="90.519974"
     inkscape:cy="88.144815"
     inkscape:window-width="1920"
     inkscape:window-height="1003"
     inkscape:window-x="0"
     inkscape:window-y="0"
     inkscape:window-maximized="1"
     inkscape:current-layer="g14" />
  <defs
     id="defs6">
    <clipPath
       clipPathUnits="userSpaceOnUse"
       id="clipPath18">
      <path
         d="M 0,0 H 335 V 132 H 0 Z"
         id="path16" />
    </clipPath>
  </defs>
  <g
     id="g8"
     transform="matrix(1.3333333,0,0,1.3333333,0,4.404e-6)">
    <g
       id="g10" />
    <g
       id="g12">
      <g
         id="g14"
         clip-path="url(#clipPath18)">
        <path
           d="M 0,0 H 336 V 133 H 0 Z"
           stroke="#000000"
           style="fill:#ffffff;fill-opacity:0;fill-rule:nonzero;stroke:none"
           id="path20" />
        <g
           id="g22"
           transform="scale(1,-1)">
          <path
             d="M 115.199,-79.199 H 104.398"
             stroke="#000000"
             style="fill:none;stroke:#ffffff;stroke-width:0.72;stroke-linecap:square;stroke-linejoin:miter;stroke-miterlimit:10;stroke-dasharray:none;stroke-opacity:1"
             id="path24" />
        </g>
        <g
           id="g26"
           transform="scale(1,-1)">
          <path
             d="M 50.398,-79.199 H 61.199"
             stroke="#000000"
             style="fill:none;stroke:#ffffff;stroke-width:0.72;stroke-linecap:square;stroke-linejoin:miter;stroke-miterlimit:10;stroke-dasharray:none;stroke-opacity:1"
             id="path28" />
        </g>
        <g
           id="g30"
           transform="scale(1,-1)">
          <path
             d="m 61.199,-72 h 43.199 V -86.398 H 61.199 Z"
             stroke="#000000"
             style="fill:none;stroke:#ffffff;stroke-width:0.36;stroke-linecap:butt;stroke-linejoin:bevel;stroke-miterlimit:10;stroke-dasharray:none;stroke-opacity:1"
             id="path32" />
        </g>
        <g
           aria-label="R1"
           transform="translate(64.800781,64.800781)"
           id="text36"
           style="font-size:13px;font-family:'DejaVu Sans';-inkscape-font-specification:DejaVuSans;fill:#ffffff">
          <path
             d="m 5.7700195,-4.4433594 q 0.4125977,0.1396485 0.7998047,0.5966797 0.3935547,0.4570313 0.7871094,1.2568359 L 8.6582031,0 H 7.2807617 L 6.0683594,-2.4311523 Q 5.5986328,-3.3833008 5.1542969,-3.6943359 4.7163086,-4.0053711 3.9545898,-4.0053711 H 2.5581055 V 0 H 1.2758789 v -9.4770508 h 2.8945313 q 1.625,0 2.4248046,0.6791992 0.7998047,0.6791993 0.7998047,2.050293 0,0.8950195 -0.4189453,1.4853516 -0.4125976,0.590332 -1.2060547,0.8188476 z m -3.211914,-3.9799804 v 3.3642578 h 1.6123047 q 0.9267578,0 1.3964843,-0.425293 0.4760742,-0.4316406 0.4760742,-1.2631836 0,-0.831543 -0.4760742,-1.2504883 Q 5.097168,-8.4233398 4.1704102,-8.4233398 Z"
             id="path1783" />
          <path
             d="m 10.59531,-1.0791016 h 2.094727 V -8.309082 l -2.278809,0.4570312 v -1.1679687 l 2.266113,-0.4570313 h 1.282227 v 8.3979492 h 2.094727 V 0 H 10.59531 Z"
             id="path1785" />
        </g>
        <g
           id="g38"
           transform="scale(1,-1)">
          <path
             d="m 244.801,-108 v 14.398"
             stroke="#000000"
             style="fill:none;stroke:#ffffff;stroke-width:0.72;stroke-linecap:square;stroke-linejoin:miter;stroke-miterlimit:10;stroke-dasharray:none;stroke-opacity:1"
             id="path40" />
        </g>
        <g
           id="g42"
           transform="scale(1,-1)">
          <path
             d="M 237.602,-108 H 252"
             stroke="#000000"
             style="fill:none;stroke:#ffffff;stroke-width:0.36;stroke-linecap:butt;stroke-linejoin:bevel;stroke-miterlimit:10;stroke-dasharray:none;stroke-opacity:1"
             id="path44" />
        </g>
        <g
           id="g46"
           transform="scale(1,-1)">
          <path
             d="m 240.48,-111.238 h 8.641"
             stroke="#000000"
             style="fill:none;stroke:#ffffff;stroke-width:0.36;stroke-linecap:butt;stroke-linejoin:bevel;stroke-miterlimit:10;stroke-dasharray:none;stroke-opacity:1"
             id="path48" />
        </g>
        <g
           id="g50"
           transform="scale(1,-1)">
          <path
             d="m 243.359,-114.121 h 2.879"
             stroke="#000000"
             style="fill:none;stroke:#ffffff;stroke-width:0.36;stroke-linecap:butt;stroke-linejoin:bevel;stroke-miterlimit:10;stroke-dasharray:none;stroke-opacity:1"
             id="path52" />
        </g>
        <g
           id="g54"
           transform="scale(1,-1)">
          <path
             d="M 28.801,-50.398 V -64.801"
             stroke="#000000"
             style="fill:none;stroke:#ffffff;stroke-width:0.72;stroke-linecap:square;stroke-linejoin:miter;stroke-miterlimit:10;stroke-dasharray:none;stroke-opacity:1"
             id="path56" />
        </g>
        <g
           id="g58"
           transform="scale(1,-1)">
          <path
             d="M 18,-50.398 H 39.602"
             stroke="#000000"
             style="fill:none;stroke:#ffffff;stroke-width:0.36;stroke-linecap:butt;stroke-linejoin:bevel;stroke-miterlimit:10;stroke-dasharray:none;stroke-opacity:1"
             id="path60" />
        </g>
        <g
           aria-label="Vcc"
           transform="translate(18.394531,50.460937)"
           id="text64"
           style="font-size:11.7002px;font-family:'DejaVu Sans';-inkscape-font-specification:DejaVuSans;fill:#ffffff">
          <path
             d="M 3.3478112,0 0.09140781,-8.5294916 H 1.2968483 l 2.7022435,7.1812264 2.7079565,-7.1812264 H 7.9067758 L 4.6560855,0 Z"
             id="path1776" />
          <path
             d="m 13.710219,-6.1528884 v 0.982634 q -0.445613,-0.2456585 -0.896939,-0.3656313 -0.445613,-0.1256857 -0.902652,-0.1256857 -1.022625,0 -1.588211,0.6512806 -0.5655856,0.6455677 -0.5655856,1.8167303 0,1.1711626 0.5655856,1.8224433 0.565586,0.64556768 1.588211,0.64556768 0.457039,0 0.902652,-0.11997275 0.451326,-0.12568574 0.896939,-0.37134423 v 0.971208 q -0.4399,0.20566758 -0.914078,0.30850137 -0.468465,0.10283379 -0.999773,0.10283379 -1.445386,0 -2.2966211,-0.90836514 -0.8512352,-0.90836512 -0.8512352,-2.45087202 0,-1.5653588 0.8569482,-2.4622979 0.8626611,-0.8969392 2.3594641,-0.8969392 0.485604,0 0.948356,0.1028338 0.462752,0.097121 0.896939,0.2970754 z"
             id="path1778" />
          <path
             d="m 20.098535,-6.1528884 v 0.982634 q -0.445614,-0.2456585 -0.89694,-0.3656313 -0.445613,-0.1256857 -0.902652,-0.1256857 -1.022625,0 -1.588211,0.6512806 -0.565585,0.6455677 -0.565585,1.8167303 0,1.1711626 0.565585,1.8224433 0.565586,0.64556768 1.588211,0.64556768 0.457039,0 0.902652,-0.11997275 0.451326,-0.12568574 0.89694,-0.37134423 v 0.971208 q -0.439901,0.20566758 -0.914079,0.30850137 -0.468465,0.10283379 -0.999773,0.10283379 -1.445386,0 -2.296621,-0.90836514 -0.851235,-0.90836512 -0.851235,-2.45087202 0,-1.5653588 0.856948,-2.4622979 0.862661,-0.8969392 2.359464,-0.8969392 0.485604,0 0.948356,0.1028338 0.462752,0.097121 0.89694,0.2970754 z"
             id="path1780" />
        </g>
        <g
           id="g66"
           transform="scale(1,-1)">
          <path
             d="M 172.801,-36 H 158.398"
             stroke="#000000"
             style="fill:none;stroke:#ffffff;stroke-width:0.72;stroke-linecap:square;stroke-linejoin:miter;stroke-miterlimit:10;stroke-dasharray:none;stroke-opacity:1"
             id="path68" />
        </g>
        <g
           id="g70"
           transform="scale(1,-1)">
          <path
             d="m 182.305,-36 c 0,6.336 -9.504,6.336 -9.504,0 0,-6.336 9.504,-6.336 9.504,0"
             stroke="#000000"
             style="fill:none;stroke:#ffffff;stroke-width:0.36;stroke-linecap:butt;stroke-linejoin:bevel;stroke-miterlimit:10;stroke-dasharray:none;stroke-opacity:1"
             id="path72" />
        </g>
        <g
           aria-label="Vcc · R1 / (R1 + R2)"
           transform="translate(185.39844,30.066406)"
           id="text76"
           style="font-size:13px;font-family:'DejaVu Sans';-inkscape-font-specification:DejaVuSans;fill:#ffffff">
          <path
             d="M 3.7197266,0 0.1015625,-9.4770508 H 1.440918 l 3.0024414,7.9790039 3.008789,-7.9790039 H 8.7851563 L 5.1733398,0 Z"
             id="path1793" />
          <path
             d="m 15.272314,-6.8364258 v 1.0917969 q -0.495117,-0.2729492 -0.996582,-0.40625 -0.495117,-0.1396484 -1.00293,-0.1396484 -1.13623,0 -1.764648,0.7236328 -0.628418,0.7172851 -0.628418,2.0185547 0,1.3012695 0.628418,2.0249023 0.628418,0.71728516 1.764648,0.71728516 0.507813,0 1.00293,-0.13330079 0.501465,-0.13964847 0.996582,-0.41259767 v 1.07910158 q -0.488769,0.22851563 -1.015625,0.34277344 -0.520508,0.11425781 -1.11084,0.11425781 -1.605957,0 -2.551758,-1.00927734 -0.9458004,-1.00927739 -0.9458004,-2.72314449 0,-1.7392579 0.9521484,-2.7358399 0.958496,-0.996582 2.621582,-0.996582 0.539551,0 1.053711,0.1142578 0.51416,0.1079102 0.996582,0.3300781 z"
             id="path1795" />
          <path
             d="m 22.409319,-6.8364258 v 1.0917969 q -0.495117,-0.2729492 -0.996582,-0.40625 -0.495117,-0.1396484 -1.00293,-0.1396484 -1.13623,0 -1.764648,0.7236328 -0.628418,0.7172851 -0.628418,2.0185547 0,1.3012695 0.628418,2.0249023 0.628418,0.71728516 1.764648,0.71728516 0.507813,0 1.00293,-0.13330079 0.501465,-0.13964847 0.996582,-0.41259767 v 1.07910158 q -0.48877,0.22851563 -1.015625,0.34277344 -0.520508,0.11425781 -1.11084,0.11425781 -1.605957,0 -2.551758,-1.00927734 -0.945801,-1.00927739 -0.945801,-2.72314449 0,-1.7392579 0.952149,-2.7358399 0.958496,-0.996582 2.621582,-0.996582 0.539551,0 1.053711,0.1142578 0.51416,0.1079102 0.996582,0.3300781 z"
             id="path1797" />
          <path
             d="m 28.677153,-5.3193359 h 1.339355 v 1.6123046 h -1.339355 z"
             id="path1799" />
          <path
             d="m 41.234043,-4.4433594 q 0.412598,0.1396485 0.799805,0.5966797 0.393554,0.4570313 0.787109,1.2568359 L 44.122227,0 H 42.744785 L 41.532383,-2.4311523 Q 41.062656,-3.3833008 40.61832,-3.6943359 40.180332,-4.0053711 39.418613,-4.0053711 H 38.022129 V 0 h -1.282227 v -9.4770508 h 2.894532 q 1.625,0 2.424804,0.6791992 0.799805,0.6791993 0.799805,2.050293 0,0.8950195 -0.418945,1.4853516 -0.412598,0.590332 -1.206055,0.8188476 z m -3.211914,-3.9799804 v 3.3642578 h 1.612305 q 0.926758,0 1.396484,-0.425293 0.476074,-0.4316406 0.476074,-1.2631836 0,-0.831543 -0.476074,-1.2504883 -0.469726,-0.4252929 -1.396484,-0.4252929 z"
             id="path1801" />
          <path
             d="M 46.046333,-1.0791016 H 48.14106 V -8.309082 l -2.278809,0.4570312 v -1.1679687 l 2.266114,-0.4570313 h 1.282226 v 8.3979492 h 2.094727 V 0 h -5.458985 z"
             id="path1803" />
          <path
             d="m 60.123817,-9.4770508 h 1.079102 L 57.902138,1.2060547 h -1.079102 z"
             id="path1805" />
          <path
             d="m 69.303802,-9.8642578 q -0.850585,1.4599609 -1.263183,2.8881836 -0.412598,1.4282226 -0.412598,2.8945312 0,1.4663086 0.412598,2.9072266 0.418945,1.43457031 1.263183,2.8881836 H 68.288177 Q 67.336029,0.22216797 66.859955,-1.21875 q -0.469727,-1.440918 -0.469727,-2.862793 0,-1.4155273 0.469727,-2.8500976 0.469726,-1.4345703 1.428222,-2.9326172 z"
             id="path1807" />
          <path
             d="m 76.074066,-4.4433594 q 0.412598,0.1396485 0.799805,0.5966797 0.393555,0.4570313 0.787109,1.2568359 L 78.96225,0 H 77.584808 L 76.372406,-2.4311523 Q 75.902679,-3.3833008 75.458344,-3.6943359 75.020355,-4.0053711 74.258636,-4.0053711 H 72.862152 V 0 h -1.282226 v -9.4770508 h 2.894531 q 1.625,0 2.424804,0.6791992 0.799805,0.6791993 0.799805,2.050293 0,0.8950195 -0.418945,1.4853516 -0.412598,0.590332 -1.206055,0.8188476 z m -3.211914,-3.9799804 v 3.3642578 h 1.612305 q 0.926758,0 1.396484,-0.425293 0.476074,-0.4316406 0.476074,-1.2631836 0,-0.831543 -0.476074,-1.2504883 -0.469726,-0.4252929 -1.396484,-0.4252929 z"
             id="path1809" />
          <path
             d="m 80.938354,-1.0791016 h 2.094727 V -8.309082 l -2.278809,0.4570312 v -1.1679687 l 2.266114,-0.4570313 h 1.282226 v 8.3979492 h 2.094727 V 0 h -5.458985 z"
             id="path1811" />
          <path
             d="m 97.642548,-8.1503906 v 3.5356445 h 3.535642 v 1.0791016 H 97.642548 V 0 h -1.066407 v -3.5356445 h -3.535644 v -1.0791016 h 3.535644 v -3.5356445 z"
             id="path1813" />
          <path
             d="m 112.39609,-4.4433594 q 0.4126,0.1396485 0.7998,0.5966797 0.39356,0.4570313 0.78711,1.2568359 L 115.28427,0 h -1.37744 l -1.2124,-2.4311523 q -0.46973,-0.9521485 -0.91407,-1.2631836 -0.43798,-0.3110352 -1.1997,-0.3110352 h -1.39649 V 0 h -1.28222 v -9.4770508 h 2.89453 q 1.625,0 2.4248,0.6791992 0.79981,0.6791993 0.79981,2.050293 0,0.8950195 -0.41895,1.4853516 -0.4126,0.590332 -1.20605,0.8188476 z m -3.21192,-3.9799804 v 3.3642578 h 1.61231 q 0.92676,0 1.39648,-0.425293 0.47608,-0.4316406 0.47608,-1.2631836 0,-0.831543 -0.47608,-1.2504883 -0.46972,-0.4252929 -1.39648,-0.4252929 z"
             id="path1815" />
          <path
             d="m 118.1037,-1.0791016 h 4.4751 V 0 h -6.01758 v -1.0791016 q 0.72998,-0.7553711 1.98681,-2.0249023 1.26319,-1.2758789 1.58692,-1.644043 0.61572,-0.6918945 0.85693,-1.1679687 0.24756,-0.4824219 0.24756,-0.9458008 0,-0.7553711 -0.5332,-1.2314453 -0.52686,-0.4760742 -1.37744,-0.4760742 -0.60303,0 -1.27588,0.2094726 -0.66651,0.2094727 -1.42823,0.6347656 v -1.2949218 q 0.77442,-0.3110352 1.44727,-0.4697266 0.67285,-0.1586914 1.23145,-0.1586914 1.47265,0 2.34863,0.7363281 0.87598,0.7363281 0.87598,1.9677735 0,0.5839843 -0.22217,1.1108398 -0.21582,0.5205078 -0.79346,1.2314453 -0.15869,0.1840821 -1.00928,1.0664063 -0.85058,0.8759765 -2.39941,2.4565429 z"
             id="path1817" />
          <path
             d="m 124.9181,-9.8642578 h 1.01562 q 0.95215,1.4980469 1.42188,2.9326172 0.47607,1.4345703 0.47607,2.8500976 0,1.421875 -0.47607,2.862793 -0.46973,1.44091797 -1.42188,2.9326172 h -1.01562 q 0.84424,-1.45361329 1.25683,-2.8881836 0.41895,-1.440918 0.41895,-2.9072266 0,-1.4663086 -0.41895,-2.8945312 -0.41259,-1.4282227 -1.25683,-2.8881836 z"
             id="path1819" />
        </g>
        <g
           id="g78"
           transform="scale(1,-1)">
          <path
             d="M 28.801,-64.801 V -79.199"
             stroke="#000000"
             style="fill:none;stroke:#ffffff;stroke-width:0.72;stroke-linecap:square;stroke-linejoin:miter;stroke-miterlimit:10;stroke-dasharray:none;stroke-opacity:1"
             id="path80" />
        </g>
        <g
           id="g82"
           transform="scale(1,-1)">
          <path
             d="M 28.801,-79.199 H 50.398"
             stroke="#000000"
             style="fill:none;stroke:#ffffff;stroke-width:0.72;stroke-linecap:square;stroke-linejoin:miter;stroke-miterlimit:10;stroke-dasharray:none;stroke-opacity:1"
             id="path84" />
        </g>
        <g
           id="g86"
           transform="scale(1,-1)">
          <path
             d="m 223.199,-79.199 h 21.602"
             stroke="#000000"
             style="fill:none;stroke:#ffffff;stroke-width:0.72;stroke-linecap:square;stroke-linejoin:miter;stroke-miterlimit:10;stroke-dasharray:none;stroke-opacity:1"
             id="path88" />
        </g>
        <g
           id="g90"
           transform="scale(1,-1)">
          <path
             d="M 244.801,-79.199 V -93.602"
             stroke="#000000"
             style="fill:none;stroke:#ffffff;stroke-width:0.72;stroke-linecap:square;stroke-linejoin:miter;stroke-miterlimit:10;stroke-dasharray:none;stroke-opacity:1"
             id="path92" />
        </g>
        <g
           id="g94"
           transform="scale(1,-1)">
          <path
             d="m 115.199,-79.199 h 43.199"
             stroke="#000000"
             style="fill:none;stroke:#ffffff;stroke-width:0.72;stroke-linecap:square;stroke-linejoin:miter;stroke-miterlimit:10;stroke-dasharray:none;stroke-opacity:1"
             id="path96" />
        </g>
        <g
           id="g98"
           transform="scale(1,-1)">
          <path
             d="M 136.801,-79.199 V -36"
             stroke="#000000"
             style="fill:none;stroke:#ffffff;stroke-width:0.72;stroke-linecap:square;stroke-linejoin:miter;stroke-miterlimit:10;stroke-dasharray:none;stroke-opacity:1"
             id="path100" />
        </g>
        <g
           id="g102"
           transform="scale(1,-1)">
          <path
             d="m 136.801,-36 h 21.597"
             stroke="#000000"
             style="fill:none;stroke:#ffffff;stroke-width:0.72;stroke-linecap:square;stroke-linejoin:miter;stroke-miterlimit:10;stroke-dasharray:none;stroke-opacity:1"
             id="path104" />
        </g>
        <g
           id="g106"
           transform="scale(1,-1)">
          <path
             d="M 223.199,-79.199 H 212.398"
             stroke="#000000"
             style="fill:none;stroke:#ffffff;stroke-width:0.72;stroke-linecap:square;stroke-linejoin:miter;stroke-miterlimit:10;stroke-dasharray:none;stroke-opacity:1"
             id="path108" />
        </g>
        <g
           id="g110"
           transform="scale(1,-1)">
          <path
             d="m 158.398,-79.199 h 10.801"
             stroke="#000000"
             style="fill:none;stroke:#ffffff;stroke-width:0.72;stroke-linecap:square;stroke-linejoin:miter;stroke-miterlimit:10;stroke-dasharray:none;stroke-opacity:1"
             id="path112" />
        </g>
        <g
           id="g114"
           transform="scale(1,-1)">
          <path
             d="m 169.199,-72 h 43.199 v -14.398 h -43.199 z"
             stroke="#000000"
             style="fill:none;stroke:#ffffff;stroke-width:0.36;stroke-linecap:butt;stroke-linejoin:bevel;stroke-miterlimit:10;stroke-dasharray:none;stroke-opacity:1"
             id="path116" />
        </g>
        <g
           aria-label="R2"
           transform="translate(172.80078,64.800781)"
           id="text120"
           style="font-size:13px;font-family:'DejaVu Sans';-inkscape-font-specification:DejaVuSans;fill:#ffffff">
          <path
             d="m 5.7700195,-4.4433594 q 0.4125977,0.1396485 0.7998047,0.5966797 0.3935547,0.4570313 0.7871094,1.2568359 L 8.6582031,0 H 7.2807617 L 6.0683594,-2.4311523 Q 5.5986328,-3.3833008 5.1542969,-3.6943359 4.7163086,-4.0053711 3.9545898,-4.0053711 H 2.5581055 V 0 H 1.2758789 v -9.4770508 h 2.8945313 q 1.625,0 2.4248046,0.6791992 0.7998047,0.6791993 0.7998047,2.050293 0,0.8950195 -0.4189453,1.4853516 -0.4125976,0.590332 -1.2060547,0.8188476 z m -3.211914,-3.9799804 v 3.3642578 h 1.6123047 q 0.9267578,0 1.3964843,-0.425293 0.4760742,-0.4316406 0.4760742,-1.2631836 0,-0.831543 -0.4760742,-1.2504883 Q 5.097168,-8.4233398 4.1704102,-8.4233398 Z"
             id="path1788" />
          <path
             d="m 11.477634,-1.0791016 h 4.475098 V 0 H 9.935154 v -1.0791016 q 0.72998,-0.7553711 1.986816,-2.0249023 1.263184,-1.2758789 1.586914,-1.644043 0.615723,-0.6918945 0.856934,-1.1679687 0.247559,-0.4824219 0.247559,-0.9458008 0,-0.7553711 -0.533204,-1.2314453 -0.526855,-0.4760742 -1.377441,-0.4760742 -0.603027,0 -1.275879,0.2094726 -0.666504,0.2094727 -1.4282225,0.6347656 v -1.2949218 q 0.7744145,-0.3110352 1.4472655,-0.4697266 0.672852,-0.1586914 1.231445,-0.1586914 1.472657,0 2.348633,0.7363281 0.875977,0.7363281 0.875977,1.9677735 0,0.5839843 -0.222168,1.1108398 -0.21582,0.5205078 -0.793457,1.2314453 -0.158692,0.1840821 -1.009278,1.0664063 -0.850585,0.8759765 -2.399414,2.4565429 z"
             id="path1790" />
        </g>
        <path
           d="m 138.602,79.199 c 0,-2.398 -3.602,-2.398 -3.602,0 0,2.403 3.602,2.403 3.602,0"
           stroke="#000000"
           style="fill:#000000;fill-opacity:1;fill-rule:nonzero;stroke:none"
           id="path122" />
        <path
           d="m 138.602,79.199 c 0,-2.398 -3.602,-2.398 -3.602,0 0,2.403 3.602,2.403 3.602,0"
           stroke="#000000"
           style="fill:#000000;fill-opacity:1;fill-rule:nonzero;stroke:none"
           id="path124" />
        <path
           d="m 138.602,79.199 c 0,-2.398 -3.602,-2.398 -3.602,0 0,2.403 3.602,2.403 3.602,0"
           stroke="#000000"
           style="fill:#ffffff;fill-opacity:1;fill-rule:nonzero;stroke:none"
           id="path126" />
      </g>
    </g>
  </g>
</svg>
