<?xml version="1.0" encoding="UTF-8" standalone="no"?>
<!--
SPDX-FileCopyrightText: Robert Ryszard Paciorek <rrp@opcode.eu.org>
SPDX-License-Identifier: MIT
-->

<svg
   version="1.1"
   id="svg2"
   width="360"
   height="176.16"
   viewBox="0 0 360 176.16"
   sodipodi:docname="resistor-pullup.svg"
   inkscape:version="1.2.2 (b0a8486541, 2022-12-01)"
   xmlns:inkscape="http://www.inkscape.org/namespaces/inkscape"
   xmlns:sodipodi="http://sodipodi.sourceforge.net/DTD/sodipodi-0.dtd"
   xmlns="http://www.w3.org/2000/svg"
   xmlns:svg="http://www.w3.org/2000/svg">
  <sodipodi:namedview
     id="namedview449"
     pagecolor="#afafaf"
     bordercolor="#666666"
     borderopacity="1.0"
     inkscape:showpageshadow="2"
     inkscape:pageopacity="0"
     inkscape:pagecheckerboard="0"
     inkscape:deskcolor="#d1d1d1"
     showgrid="false"
     inkscape:zoom="2.6793823"
     inkscape:cx="102.82221"
     inkscape:cy="70.165425"
     inkscape:window-width="1920"
     inkscape:window-height="1003"
     inkscape:window-x="0"
     inkscape:window-y="0"
     inkscape:window-maximized="1"
     inkscape:current-layer="text60" />
  <defs
     id="defs6">
    <clipPath
       clipPathUnits="userSpaceOnUse"
       id="clipPath18">
      <path
         d="M 0,0 H 270 V 132 H 0 Z"
         id="path16" />
    </clipPath>
  </defs>
  <g
     id="g8"
     transform="matrix(1.3333333,0,0,1.3333333,0,4.404e-6)">
    <g
       id="g10" />
    <g
       id="g12">
      <g
         id="g14"
         clip-path="url(#clipPath18)">
        <path
           d="M 0,0 H 270 V 133 H 0 Z"
           stroke="#000000"
           style="fill:#ffffff;fill-opacity:0;fill-rule:nonzero;stroke:none"
           id="path20" />
        <g
           id="g22"
           transform="scale(1,-1)">
          <path
             d="M 115.199,-79.199 H 104.398"
             stroke="#000000"
             style="fill:none;stroke:#ffffff;stroke-width:0.72;stroke-linecap:square;stroke-linejoin:miter;stroke-miterlimit:10;stroke-dasharray:none;stroke-opacity:1"
             id="path24" />
        </g>
        <g
           id="g26"
           transform="scale(1,-1)">
          <path
             d="M 50.398,-79.199 H 61.199"
             stroke="#000000"
             style="fill:none;stroke:#ffffff;stroke-width:0.72;stroke-linecap:square;stroke-linejoin:miter;stroke-miterlimit:10;stroke-dasharray:none;stroke-opacity:1"
             id="path28" />
        </g>
        <g
           id="g30"
           transform="scale(1,-1)">
          <path
             d="m 61.199,-72 h 43.199 V -86.398 H 61.199 Z"
             stroke="#000000"
             style="fill:none;stroke:#ffffff;stroke-width:0.36;stroke-linecap:butt;stroke-linejoin:bevel;stroke-miterlimit:10;stroke-dasharray:none;stroke-opacity:1"
             id="path32" />
        </g>
        <g
           id="g34"
           transform="scale(1,-1)">
          <path
             d="m 244.801,-108 v 14.398"
             stroke="#000000"
             style="fill:none;stroke:#ffffff;stroke-width:0.72;stroke-linecap:square;stroke-linejoin:miter;stroke-miterlimit:10;stroke-dasharray:none;stroke-opacity:1"
             id="path36" />
        </g>
        <g
           id="g38"
           transform="scale(1,-1)">
          <path
             d="M 237.602,-108 H 252"
             stroke="#000000"
             style="fill:none;stroke:#ffffff;stroke-width:0.36;stroke-linecap:butt;stroke-linejoin:bevel;stroke-miterlimit:10;stroke-dasharray:none;stroke-opacity:1"
             id="path40" />
        </g>
        <g
           id="g42"
           transform="scale(1,-1)">
          <path
             d="m 240.48,-111.238 h 8.641"
             stroke="#000000"
             style="fill:none;stroke:#ffffff;stroke-width:0.36;stroke-linecap:butt;stroke-linejoin:bevel;stroke-miterlimit:10;stroke-dasharray:none;stroke-opacity:1"
             id="path44" />
        </g>
        <g
           id="g46"
           transform="scale(1,-1)">
          <path
             d="m 243.359,-114.121 h 2.879"
             stroke="#000000"
             style="fill:none;stroke:#ffffff;stroke-width:0.36;stroke-linecap:butt;stroke-linejoin:bevel;stroke-miterlimit:10;stroke-dasharray:none;stroke-opacity:1"
             id="path48" />
        </g>
        <g
           id="g50"
           transform="scale(1,-1)">
          <path
             d="M 28.801,-50.398 V -64.801"
             stroke="#000000"
             style="fill:none;stroke:#ffffff;stroke-width:0.72;stroke-linecap:square;stroke-linejoin:miter;stroke-miterlimit:10;stroke-dasharray:none;stroke-opacity:1"
             id="path52" />
        </g>
        <g
           id="g54"
           transform="scale(1,-1)">
          <path
             d="M 18,-50.398 H 39.602"
             stroke="#000000"
             style="fill:none;stroke:#ffffff;stroke-width:0.36;stroke-linecap:butt;stroke-linejoin:bevel;stroke-miterlimit:10;stroke-dasharray:none;stroke-opacity:1"
             id="path56" />
        </g>
        <g
           aria-label="Vcc"
           transform="translate(18.394531,50.460937)"
           id="text60"
           style="font-size:11.7002px;font-family:'DejaVu Sans';-inkscape-font-specification:DejaVuSans;fill:#ffffff">
          <path
             d="M 3.3478112,0 0.09140781,-8.5294916 H 1.2968483 l 2.7022435,7.1812264 2.7079565,-7.1812264 H 7.9067758 L 4.6560855,0 Z"
             id="path1293" />
          <path
             d="m 13.710219,-6.1528884 v 0.982634 q -0.445613,-0.2456585 -0.896939,-0.3656313 -0.445613,-0.1256857 -0.902652,-0.1256857 -1.022625,0 -1.588211,0.6512806 -0.5655856,0.6455677 -0.5655856,1.8167303 0,1.1711626 0.5655856,1.8224433 0.565586,0.64556768 1.588211,0.64556768 0.457039,0 0.902652,-0.11997275 0.451326,-0.12568574 0.896939,-0.37134423 v 0.971208 q -0.4399,0.20566758 -0.914078,0.30850137 -0.468465,0.10283379 -0.999773,0.10283379 -1.445386,0 -2.2966211,-0.90836514 -0.8512352,-0.90836512 -0.8512352,-2.45087202 0,-1.5653588 0.8569482,-2.4622979 0.8626611,-0.8969392 2.3594641,-0.8969392 0.485604,0 0.948356,0.1028338 0.462752,0.097121 0.896939,0.2970754 z"
             id="path1295" />
          <path
             d="m 20.098535,-6.1528884 v 0.982634 q -0.445614,-0.2456585 -0.89694,-0.3656313 -0.445613,-0.1256857 -0.902652,-0.1256857 -1.022625,0 -1.588211,0.6512806 -0.565585,0.6455677 -0.565585,1.8167303 0,1.1711626 0.565585,1.8224433 0.565586,0.64556768 1.588211,0.64556768 0.457039,0 0.902652,-0.11997275 0.451326,-0.12568574 0.89694,-0.37134423 v 0.971208 q -0.439901,0.20566758 -0.914079,0.30850137 -0.468465,0.10283379 -0.999773,0.10283379 -1.445386,0 -2.296621,-0.90836514 -0.851235,-0.90836512 -0.851235,-2.45087202 0,-1.5653588 0.856948,-2.4622979 0.862661,-0.8969392 2.359464,-0.8969392 0.485604,0 0.948356,0.1028338 0.462752,0.097121 0.89694,0.2970754 z"
             id="path1297" />
        </g>
        <g
           id="g62"
           transform="scale(1,-1)">
          <path
             d="M 207,-63 172.801,-79.199"
             stroke="#000000"
             style="fill:none;stroke:#ffffff;stroke-width:0.36;stroke-linecap:butt;stroke-linejoin:bevel;stroke-miterlimit:10;stroke-dasharray:none;stroke-opacity:1"
             id="path64" />
        </g>
        <g
           id="g66"
           transform="scale(1,-1)">
          <path
             d="M 172.801,-79.199 H 158.398"
             stroke="#000000"
             style="fill:none;stroke:#ffffff;stroke-width:0.72;stroke-linecap:square;stroke-linejoin:miter;stroke-miterlimit:10;stroke-dasharray:none;stroke-opacity:1"
             id="path68" />
        </g>
        <g
           id="g70"
           transform="scale(1,-1)">
          <path
             d="m 205.199,-79.199 h 18"
             stroke="#000000"
             style="fill:none;stroke:#ffffff;stroke-width:0.72;stroke-linecap:square;stroke-linejoin:miter;stroke-miterlimit:10;stroke-dasharray:none;stroke-opacity:1"
             id="path72" />
        </g>
        <g
           id="g74"
           transform="scale(1,-1)">
          <path
             d="M 172.801,-36 H 158.398"
             stroke="#000000"
             style="fill:none;stroke:#ffffff;stroke-width:0.72;stroke-linecap:square;stroke-linejoin:miter;stroke-miterlimit:10;stroke-dasharray:none;stroke-opacity:1"
             id="path76" />
        </g>
        <g
           id="g78"
           transform="scale(1,-1)">
          <path
             d="m 182.305,-36 c 0,6.336 -9.504,6.336 -9.504,0 0,-6.336 9.504,-6.336 9.504,0"
             stroke="#000000"
             style="fill:none;stroke:#ffffff;stroke-width:0.36;stroke-linecap:butt;stroke-linejoin:bevel;stroke-miterlimit:10;stroke-dasharray:none;stroke-opacity:1"
             id="path80" />
        </g>
        <g
           aria-label="output"
           transform="translate(185.39844,30.066406)"
           id="text84"
           style="font-size:13px;font-family:'DejaVu Sans';-inkscape-font-specification:DejaVuSans;fill:#ffffff">
          <path
             d="m 3.9799805,-6.2905273 q -0.9394532,0 -1.4853516,0.7363281 -0.5458984,0.7299805 -0.5458984,2.0058594 0,1.2758789 0.5395508,2.012207 0.5458984,0.72998046 1.4916992,0.72998046 0.9331054,0 1.4790039,-0.73632816 0.5458984,-0.7363281 0.5458984,-2.0058593 0,-1.2631836 -0.5458984,-1.9995118 -0.5458985,-0.7426757 -1.4790039,-0.7426757 z m 0,-0.9902344 q 1.5234375,0 2.3930664,0.9902344 0.8696289,0.9902343 0.8696289,2.7421875 0,1.7456054 -0.8696289,2.74218746 -0.8696289,0.99023437 -2.3930664,0.99023437 -1.5297852,0 -2.3994141,-0.99023437 -0.86328124,-0.99658206 -0.86328124,-2.74218746 0,-1.7519532 0.86328124,-2.7421875 0.8696289,-0.9902344 2.3994141,-0.9902344 z"
             id="path1280" />
          <path
             d="M 9.0084972,-2.8056641 V -7.109375 h 1.1679688 v 4.2592773 q 0,1.0092774 0.393555,1.5170899 0.393554,0.50146483 1.180664,0.50146483 0.945801,0 1.491699,-0.60302733 0.552246,-0.6030274 0.552246,-1.644043 V -7.109375 h 1.167969 V 0 H 13.79463 v -1.0917969 q -0.425293,0.64746096 -0.990234,0.96484378 -0.558594,0.31103515 -1.30127,0.31103515 -1.225098,0 -1.8598631,-0.76171875 Q 9.0084972,-1.3393555 9.0084972,-2.8056641 Z m 2.9389648,-4.4750976 z"
             id="path1282" />
          <path
             d="m 18.513382,-9.1279297 v 2.0185547 h 2.405762 v 0.9077148 h -2.405762 v 3.859375 q 0,0.869629 0.234863,1.1171875 0.241211,0.24755864 0.971192,0.24755864 h 1.199707 V 0 h -1.199707 q -1.352051,0 -1.866211,-0.50146484 -0.51416,-0.50781246 -0.51416,-1.84082036 v -3.859375 H 16.482132 V -7.109375 h 0.856934 v -2.0185547 z"
             id="path1284" />
          <path
             d="M 23.583994,-1.0664062 V 2.7041016 H 22.409678 V -7.109375 h 1.174316 v 1.0791016 q 0.368164,-0.6347657 0.926758,-0.9394532 0.564941,-0.3110351 1.345703,-0.3110351 1.294922,0 2.101074,1.0283203 0.8125,1.0283203 0.8125,2.7041016 0,1.6757812 -0.8125,2.70410152 -0.806152,1.02832031 -2.101074,1.02832031 -0.780762,0 -1.345703,-0.3046875 -0.558594,-0.31103516 -0.926758,-0.94580073 z m 3.973633,-2.4819336 q 0,-1.2885743 -0.533203,-2.0185547 -0.526856,-0.7363282 -1.453614,-0.7363282 -0.926757,0 -1.459961,0.7363282 -0.526855,0.7299804 -0.526855,2.0185547 0,1.2885742 0.526855,2.0249023 0.533204,0.72998047 1.459961,0.72998047 0.926758,0 1.453614,-0.72998047 0.533203,-0.7363281 0.533203,-2.0249023 z"
             id="path1286" />
          <path
             d="M 30.57551,-2.8056641 V -7.109375 h 1.167969 v 4.2592773 q 0,1.0092774 0.393554,1.5170899 0.393555,0.50146483 1.180665,0.50146483 0.9458,0 1.491699,-0.60302733 0.552246,-0.6030274 0.552246,-1.644043 V -7.109375 h 1.167969 V 0 h -1.167969 v -1.0917969 q -0.425293,0.64746096 -0.990235,0.96484378 -0.558593,0.31103515 -1.301269,0.31103515 -1.225098,0 -1.859863,-0.76171875 Q 30.57551,-1.3393555 30.57551,-2.8056641 Z m 2.938965,-4.4750976 z"
             id="path1288" />
          <path
             d="m 40.080395,-9.1279297 v 2.0185547 h 2.405761 v 0.9077148 h -2.405761 v 3.859375 q 0,0.869629 0.234863,1.1171875 0.241211,0.24755864 0.971191,0.24755864 h 1.199707 V 0 h -1.199707 q -1.35205,0 -1.866211,-0.50146484 -0.51416,-0.50781246 -0.51416,-1.84082036 v -3.859375 H 38.049145 V -7.109375 h 0.856933 v -2.0185547 z"
             id="path1290" />
        </g>
        <g
           id="g86"
           transform="scale(1,-1)">
          <path
             d="M 28.801,-64.801 V -79.199"
             stroke="#000000"
             style="fill:none;stroke:#ffffff;stroke-width:0.72;stroke-linecap:square;stroke-linejoin:miter;stroke-miterlimit:10;stroke-dasharray:none;stroke-opacity:1"
             id="path88" />
        </g>
        <g
           id="g90"
           transform="scale(1,-1)">
          <path
             d="M 28.801,-79.199 H 50.398"
             stroke="#000000"
             style="fill:none;stroke:#ffffff;stroke-width:0.72;stroke-linecap:square;stroke-linejoin:miter;stroke-miterlimit:10;stroke-dasharray:none;stroke-opacity:1"
             id="path92" />
        </g>
        <g
           id="g94"
           transform="scale(1,-1)">
          <path
             d="m 223.199,-79.199 h 21.602"
             stroke="#000000"
             style="fill:none;stroke:#ffffff;stroke-width:0.72;stroke-linecap:square;stroke-linejoin:miter;stroke-miterlimit:10;stroke-dasharray:none;stroke-opacity:1"
             id="path96" />
        </g>
        <g
           id="g98"
           transform="scale(1,-1)">
          <path
             d="M 244.801,-79.199 V -93.602"
             stroke="#000000"
             style="fill:none;stroke:#ffffff;stroke-width:0.72;stroke-linecap:square;stroke-linejoin:miter;stroke-miterlimit:10;stroke-dasharray:none;stroke-opacity:1"
             id="path100" />
        </g>
        <g
           id="g102"
           transform="scale(1,-1)">
          <path
             d="m 115.199,-79.199 h 43.199"
             stroke="#000000"
             style="fill:none;stroke:#ffffff;stroke-width:0.72;stroke-linecap:square;stroke-linejoin:miter;stroke-miterlimit:10;stroke-dasharray:none;stroke-opacity:1"
             id="path104" />
        </g>
        <g
           id="g106"
           transform="scale(1,-1)">
          <path
             d="M 136.801,-79.199 V -36"
             stroke="#000000"
             style="fill:none;stroke:#ffffff;stroke-width:0.72;stroke-linecap:square;stroke-linejoin:miter;stroke-miterlimit:10;stroke-dasharray:none;stroke-opacity:1"
             id="path108" />
        </g>
        <g
           id="g110"
           transform="scale(1,-1)">
          <path
             d="m 136.801,-36 h 21.597"
             stroke="#000000"
             style="fill:none;stroke:#ffffff;stroke-width:0.72;stroke-linecap:square;stroke-linejoin:miter;stroke-miterlimit:10;stroke-dasharray:none;stroke-opacity:1"
             id="path112" />
        </g>
        <path
           d="m 138.602,79.199 c 0,-2.398 -3.602,-2.398 -3.602,0 0,2.403 3.602,2.403 3.602,0"
           stroke="#000000"
           style="fill:#000000;fill-opacity:1;fill-rule:nonzero;stroke:none"
           id="path114" />
        <path
           d="m 138.602,79.199 c 0,-2.398 -3.602,-2.398 -3.602,0 0,2.403 3.602,2.403 3.602,0"
           stroke="#000000"
           style="fill:#000000;fill-opacity:1;fill-rule:nonzero;stroke:none"
           id="path116" />
        <path
           d="m 138.602,79.199 c 0,-2.398 -3.602,-2.398 -3.602,0 0,2.403 3.602,2.403 3.602,0"
           stroke="#000000"
           style="fill:#ffffff;fill-opacity:1;fill-rule:nonzero;stroke:none"
           id="path118" />
      </g>
    </g>
  </g>
</svg>
